<mxfile host="app.diagrams.net" agent="Mozilla/5.0 (Windows NT 10.0; Win64; x64) AppleWebKit/537.36 (KHTML, like Gecko) Chrome/132.0.0.0 Safari/537.36" version="26.0.14">
  <diagram name="Page-1" id="cRbdmD_8lLsyf097ppJ1">
    <mxGraphModel dx="3070" dy="843" grid="0" gridSize="10" guides="1" tooltips="1" connect="1" arrows="1" fold="1" page="1" pageScale="1" pageWidth="850" pageHeight="1100" math="0" shadow="0">
      <root>
        <mxCell id="0" />
        <mxCell id="1" parent="0" />
        <mxCell id="dCbXYARRjmfmnTsoq2Sv-2" value="&lt;font style=&quot;font-size: 15px;&quot;&gt;AWS Cloud&lt;/font&gt;" style="points=[[0,0],[0.25,0],[0.5,0],[0.75,0],[1,0],[1,0.25],[1,0.5],[1,0.75],[1,1],[0.75,1],[0.5,1],[0.25,1],[0,1],[0,0.75],[0,0.5],[0,0.25]];outlineConnect=0;gradientColor=none;html=1;whiteSpace=wrap;fontSize=12;fontStyle=0;container=1;pointerEvents=0;collapsible=0;recursiveResize=0;shape=mxgraph.aws4.group;grIcon=mxgraph.aws4.group_aws_cloud_alt;strokeColor=#0000FF;fillColor=none;verticalAlign=top;align=left;spacingLeft=30;fontColor=#232F3E;dashed=1;strokeWidth=4;" vertex="1" parent="1">
          <mxGeometry x="-360" y="150" width="1180" height="800" as="geometry" />
        </mxCell>
        <mxCell id="dCbXYARRjmfmnTsoq2Sv-1" value="&lt;font style=&quot;font-size: 14px; color: rgb(128, 128, 128);&quot;&gt;VPC&lt;/font&gt;" style="points=[[0,0],[0.25,0],[0.5,0],[0.75,0],[1,0],[1,0.25],[1,0.5],[1,0.75],[1,1],[0.75,1],[0.5,1],[0.25,1],[0,1],[0,0.75],[0,0.5],[0,0.25]];outlineConnect=0;gradientColor=none;html=1;whiteSpace=wrap;fontSize=12;fontStyle=0;container=1;pointerEvents=0;collapsible=0;recursiveResize=0;shape=mxgraph.aws4.group;grIcon=mxgraph.aws4.group_vpc2;strokeColor=#8C4FFF;fillColor=none;verticalAlign=top;align=left;spacingLeft=30;fontColor=#AAB7B8;dashed=0;" vertex="1" parent="dCbXYARRjmfmnTsoq2Sv-2">
          <mxGeometry x="120" y="50" width="1010" height="710" as="geometry" />
        </mxCell>
        <mxCell id="dCbXYARRjmfmnTsoq2Sv-7" value="&lt;span style=&quot;font-size: 13px;&quot;&gt;&lt;font style=&quot;color: rgb(0, 0, 0);&quot;&gt;&lt;b&gt;Availability Zone B&lt;/b&gt;&lt;/font&gt;&lt;/span&gt;" style="fillColor=none;strokeColor=#0000CC;dashed=1;verticalAlign=top;fontStyle=0;fontColor=#147EBA;whiteSpace=wrap;html=1;strokeWidth=2;direction=east;" vertex="1" parent="dCbXYARRjmfmnTsoq2Sv-1">
          <mxGeometry x="120" y="390" width="840" height="280" as="geometry" />
        </mxCell>
        <mxCell id="dCbXYARRjmfmnTsoq2Sv-6" value="&lt;font style=&quot;color: rgb(0, 0, 0); font-size: 13px;&quot;&gt;&lt;b&gt;Availability Zone A&lt;/b&gt;&lt;/font&gt;" style="fillColor=none;strokeColor=#0000CC;dashed=1;verticalAlign=top;fontStyle=0;fontColor=#147EBA;whiteSpace=wrap;html=1;strokeWidth=2;" vertex="1" parent="dCbXYARRjmfmnTsoq2Sv-1">
          <mxGeometry x="120" y="20" width="840" height="290" as="geometry" />
        </mxCell>
        <mxCell id="dCbXYARRjmfmnTsoq2Sv-25" value="&lt;font style=&quot;color: rgb(0, 0, 0);&quot;&gt;&lt;b&gt;&lt;i&gt;Private Subnet&lt;/i&gt;&lt;/b&gt;&lt;/font&gt;" style="points=[[0,0],[0.25,0],[0.5,0],[0.75,0],[1,0],[1,0.25],[1,0.5],[1,0.75],[1,1],[0.75,1],[0.5,1],[0.25,1],[0,1],[0,0.75],[0,0.5],[0,0.25]];outlineConnect=0;html=1;whiteSpace=wrap;fontSize=12;fontStyle=0;container=1;pointerEvents=0;collapsible=0;recursiveResize=0;shape=mxgraph.aws4.group;grIcon=mxgraph.aws4.group_security_group;grStroke=0;strokeColor=#006EAF;fillColor=none;verticalAlign=top;align=center;spacingLeft=30;fontColor=#ffffff;dashed=0;" vertex="1" parent="dCbXYARRjmfmnTsoq2Sv-1">
          <mxGeometry x="720" y="430" width="210" height="200" as="geometry" />
        </mxCell>
        <mxCell id="dCbXYARRjmfmnTsoq2Sv-26" value="&lt;i&gt;&lt;font style=&quot;color: light-dark(rgb(0, 0, 0), rgb(0, 0, 0));&quot;&gt;Data Tier&lt;/font&gt;&lt;/i&gt;" style="whiteSpace=wrap;html=1;aspect=fixed;fillColor=none;strokeColor=light-dark(#000000,#FF0080);strokeWidth=2;dashed=1;verticalAlign=top;" vertex="1" parent="dCbXYARRjmfmnTsoq2Sv-25">
          <mxGeometry x="25" y="30" width="150" height="150" as="geometry" />
        </mxCell>
        <mxCell id="dCbXYARRjmfmnTsoq2Sv-27" value="&lt;i&gt;&lt;font style=&quot;color: light-dark(rgb(0, 0, 0), rgb(0, 0, 0)); font-size: 13px;&quot;&gt;RDS MySQL&amp;nbsp;&lt;/font&gt;&lt;/i&gt;&lt;div&gt;&lt;i&gt;&lt;font style=&quot;color: light-dark(rgb(0, 0, 0), rgb(0, 0, 0)); font-size: 13px;&quot;&gt;Standby Instance&lt;/font&gt;&lt;/i&gt;&lt;/div&gt;" style="sketch=0;outlineConnect=0;fontColor=#232F3E;gradientColor=none;fillColor=light-dark(#C925D1,#660033);strokeColor=none;dashed=0;verticalLabelPosition=bottom;verticalAlign=top;align=center;html=1;fontSize=12;fontStyle=0;aspect=fixed;pointerEvents=1;shape=mxgraph.aws4.rds_mysql_instance;" vertex="1" parent="dCbXYARRjmfmnTsoq2Sv-25">
          <mxGeometry x="57.5" y="55" width="85" height="85" as="geometry" />
        </mxCell>
        <mxCell id="dCbXYARRjmfmnTsoq2Sv-152" value="" style="rounded=0;whiteSpace=wrap;html=1;fillColor=none;strokeColor=#0066CC;dashed=1;strokeWidth=2;" vertex="1" parent="dCbXYARRjmfmnTsoq2Sv-25">
          <mxGeometry width="210" height="200" as="geometry" />
        </mxCell>
        <mxCell id="dCbXYARRjmfmnTsoq2Sv-31" value="&lt;i&gt;&lt;b&gt;&lt;font style=&quot;color: rgb(0, 0, 0);&quot;&gt;Private subnet&lt;/font&gt;&lt;/b&gt;&lt;/i&gt;" style="points=[[0,0],[0.25,0],[0.5,0],[0.75,0],[1,0],[1,0.25],[1,0.5],[1,0.75],[1,1],[0.75,1],[0.5,1],[0.25,1],[0,1],[0,0.75],[0,0.5],[0,0.25]];outlineConnect=0;html=1;whiteSpace=wrap;fontSize=12;fontStyle=0;container=1;pointerEvents=0;collapsible=0;recursiveResize=0;shape=mxgraph.aws4.group;grIcon=mxgraph.aws4.group_security_group;grStroke=0;strokeColor=#006EAF;fillColor=none;verticalAlign=top;align=center;spacingLeft=30;fontColor=#ffffff;dashed=0;" vertex="1" parent="dCbXYARRjmfmnTsoq2Sv-1">
          <mxGeometry x="440" y="430" width="220" height="200" as="geometry" />
        </mxCell>
        <mxCell id="dCbXYARRjmfmnTsoq2Sv-151" value="" style="rounded=0;whiteSpace=wrap;html=1;fillColor=none;strokeColor=#0066CC;strokeWidth=2;dashed=1;" vertex="1" parent="dCbXYARRjmfmnTsoq2Sv-31">
          <mxGeometry width="220" height="200" as="geometry" />
        </mxCell>
        <mxCell id="dCbXYARRjmfmnTsoq2Sv-9" value="&lt;i&gt;&lt;font style=&quot;color: light-dark(rgb(0, 0, 0), rgb(0, 0, 0));&quot;&gt;&lt;b&gt;Private subnet&lt;/b&gt;&lt;/font&gt;&lt;/i&gt;" style="points=[[0,0],[0.25,0],[0.5,0],[0.75,0],[1,0],[1,0.25],[1,0.5],[1,0.75],[1,1],[0.75,1],[0.5,1],[0.25,1],[0,1],[0,0.75],[0,0.5],[0,0.25]];outlineConnect=0;html=1;whiteSpace=wrap;fontSize=12;fontStyle=0;container=1;pointerEvents=0;collapsible=0;recursiveResize=0;shape=mxgraph.aws4.group;grIcon=mxgraph.aws4.group_security_group;grStroke=0;strokeColor=light-dark(#006EAF,#99CCFF);fillColor=none;verticalAlign=top;align=center;spacingLeft=30;fontColor=#000000;strokeWidth=9;perimeterSpacing=10;" vertex="1" parent="dCbXYARRjmfmnTsoq2Sv-1">
          <mxGeometry x="440" y="55" width="224" height="230" as="geometry" />
        </mxCell>
        <mxCell id="dCbXYARRjmfmnTsoq2Sv-39" value="&lt;font style=&quot;color: light-dark(rgb(0, 0, 0), rgb(0, 0, 0));&quot;&gt;&lt;i&gt;Application Tier&lt;/i&gt;&lt;/font&gt;" style="whiteSpace=wrap;html=1;aspect=fixed;fillColor=none;strokeColor=#FF8000;verticalAlign=top;strokeWidth=2;" vertex="1" parent="dCbXYARRjmfmnTsoq2Sv-9">
          <mxGeometry x="30" y="60" width="150" height="150" as="geometry" />
        </mxCell>
        <mxCell id="dCbXYARRjmfmnTsoq2Sv-47" value="" style="shape=image;verticalLabelPosition=bottom;labelBackgroundColor=default;verticalAlign=top;aspect=fixed;imageAspect=0;image=data:image/png,iVBORw0KGgoAAAANSUhEUgAAAcgAAABuCAMAAACUTXOfAAABs1BMVEX///8AAABDkO66urrPIaHgJKdEje7aI6XVIqO9HZpgYGBAnuyaFuHHH51Cle36+vqIEed+DuuBgYFJc/FAoeyOE+VBm+3d3d1Ei++ZmZlIdvF7DeyVFePt7e3AwMBqamo+p+tFh+9He/DR0dFiBfRGg++kpKQ9sOo+qutrCPG0G5fqJ6twCu9Kb/KJiYmrHNuvHdqiGd5KSkpWAvjgAKHiAKPx8fFycnI3NzdAQEDxstrTAJ6qANj59P0cHBwpKSnGH6zOOqfwvN3wxuL61+zkO66jYO3Ur/K5e+zz6vyvx/ethPR5wfDz9f6kevTb5vvI1fqDs/NtkfPfUrLkb73VTa3wpNT74fG7St7MlezhyfafQeeuZ+rCk/CfLOPk0/mFfu3FcuSCKOiWwfS4XeSjUOjAgOrQqvJpYuru3/mGc+5grO66k/OgyvR0pfLJ4fmRRe2+WeCzPN7TkunPuPhTTe2q0/WSsPXJrfY3u+mvwveSa/Vvs+/nzPW9ofeHTfOJXveQpvU0YPFtmvLIb7TmgcTW3PvaicPyo9WhvuavMqKCfcioTq5wj9TujMqeYLyIcMhT5thYAAAUH0lEQVR4nO2d+1sTSdbHQ0BAg0mAhFvCLSRcXgFXDTIS4qyAImrEESSKIO+CyLCM4vqy6IyOc2Vlb+78yW931znVVdW3atIhmWf7+/hLJ51ONx/r1LlVJRAoSY//oOjixeldcvjkkqamJ+RwNd70dG19NVLad/gqv+anVYwXpwHcQpMCUdEzeDsZj8ejitY2KnaHvmSUn1YxKoLj7SaNYxK4rceJotHm/y1U7CZ9OetP0xrGS6vk8KBJU/I2OVyIAsZodDMU3qrcbfpy0AZwfA7HhGNTHObE7ShyjAZDbeGQP1VWqzS7qsyKeXL4AjjukMODKGKMfh1ra2sLh33zWp3amSYcwdPZTWp2NRmHt6OIMbrZF9JAhit2q75slL+kYrx0CT2dp0mNI4J8EUU1B2MEZPCrit2sL2s9nyYxI7io80kNYzIZ1VyfXZ3jn2OhkDYgw/X7lbxhX6b6HmL/NXKYT4IUg7qTjxxQjM2bgT0EGayv7D37MtFFAAmezm3ESOLGZsoxsRsotAHIcL0fhFSbMBkHLupGnGKkPo6KsTnxjfLuyzYAGexfrOhd+xKlJuNUjpiMe6ZzZDE2Jza1t3FEBoO+51pdeqNhpMm4nTjBGI1yGDXDqmoxjCD771Twrn2JekGy45iMy6NNvbXzcZPj+DV84EMYQNb3+2mB6tEOVDmSkHVbA47ahHmrmWJMNA9/IGdEKMiOV5W6a1+i5kmRoyk5T45XITu+rR3lE83IMREcjkHoeIgg6zN/q9Bt+xL0BJLjyafwAkyPzQvkMIEYE18P9fXF4CTCUQHZ0V+Jm/YlKr/dhFUOaAtYJ9nx5nVyuJEAjImEwrEvBqHjng7Sz9RVgXA4NiXjTNlR82/gjNcJwDgaHFZBhkjoyIzIlB9MVli76xSjEm7QsiNxU7G6PJoAjn8e0kBqJAt7DMh+P1NXOeV3519camI5Uk+HcLwFJyaQYyJwr08DGWuLxdBpJSAzfjB5Gtr9k6K/KHr8+I0irebIScvibMPZEP8nIOd6lwzI0dGRjUAAQIagHElB9qf8YPIU9Ia0xmkipSqSjmMwJuNJOHmdpMebP5LD3VGCcXTkvnK0H7MAmfmlUg/3X6T/m/4DaVYlDTkCRyhyJGEALgDHTfjw61ENoyLt8AMHMqiDTD2ozMP9F2l32gYjDMco2tXA62ZSq4Kcq+LpEIwj5IVCTAcZfLX1qgNBZjKStxPpqXWvnp6B9m7J6w/U9rS7+fu41NX2dhdNZwNST3ZV6lpvnDEmD/DkuyQdl7gPx6Ogkb/C3R/GEGRQjTn2OxBk6q3U3XTWlKDLLYMD9pfvPkfOHC9Ph9/ApHb164Nyp7dLP9n1c+O1Dv/9FMN6cVqTgBGLxvHbq/Tkd80kq5qAv8Nd5DgyNASn4IgMv9QOH/TjiOySCSYHSuEINDutn7hHP60MozJymV79C6kPuH20yR7ra+1Ov3nz+PFfnj9XPdfbL17cxtEYX5s/WF1d3cgzJx9gUvUdfHgEQQaHhg7Ja4shAAk51186AGRKJlM3XjrIGnVEmA84bgQ4jF33inB/c4kPyA9IXS5MybrW5YhRI/cOZMcTuqcD4/Gv3w4NDcFXbIUISMjUFTIAMtP1nfOXt5QEkFGL2QNf5k7xekxe564uMa+dzPx0St/QU9WuPjO8nN9GjqPo6YwAR8WwKroHJ4ZgjoTQ8bt+AJlqdQ4mPQNZU2MyTwlnSLpHkrrGX9zGCqJOOo/I/g98oXo4a+KrHxNY5BjFnM4IYBwJqgNyqA+M6X6IeK1Yh6xHkCnnYNJDkDWXxYtHxDPkvEE5nROuXev8ke6TPpmkL0XacbiXFr5J6LWqUZg2748QjOn3Gseh4WE4+wOEHwB2MYMgWx2DSS9B1lwXzKsBZI13vuukeGkJkIIxdqFxmVtaj2ttVU+h2BjYPbi7yWBMjIKns5HWMI6k04FDAEkcVdINyawYeJsBkKkupy/3FKToOxpBXpf5g8jI6KTJgDzxkBTGZP777xW/dPVgfn5+Z2fnyZP1dcVrbSIc49Fo/Nnr15vNjAjHH+HTmyNEaSU6+ZaA7INJ8LCNgMQ6ZCaDIH9yeDQWZK2b1MBgZ0vvF4bn5R0DI0jJMMFRg8Yry4BUHFenZxzsnLxsvLgwT74xZuLicWO3KotRrXEQfUwDx/fKQYGAHMZgkizGCndA6PggBSBTYw7BJAvyBDNY+6DgcnDvmoA0TqQnUa3JheVAyunqwPiXwuW/ZN7eMc3jmDUdU4yJUZwg82mwq2ltnnlJQPZhMBkmuVY0rq8QZFfK/pZZkCdzKtu5ccn5jmYga86d6Fs4mXqfXoJU1S3kvPQwGFqOXWEc2cT8wA+A8Qpk7wjI4RgGk7CIB+qQhRSCHLMPJksHyUeLnG01BSkVutvKPK73GmRAmIhb6MuPzdKq9qNx5CN+WDWsaVU/wgv7wxrIPgwmSYNysANmzTspANk1ZhtMegGS/cNy7p05SOZPciJZeCxlAMmZ8Gv44k6TKUYTgpiGe/2OXnEVOV6hDvw9AhK7IfehQwCDyYcIsvWh3a16AZKN+2VAusiVmMjqouUAySUd4KUF3ZrCOEwmnz17+vTp9vb2rVtra2v379+/e/fuN6o+fvz47oDdcGUjTTBSw6qoMKyBpN2Q0LPTD6HjYheA7BqzCya9AMn+aaVAygbYphK9kLKC7NWvj5HTgqK8opOExAdp0JUfmVcPASQGk0FoNIe336YAZOuYzaUrA7KEv/o17y9pIwakB4HT3TQFyZZGAkMEZAgmwZdBAhKDSR2kTTB5aiCF4EwiM2oqPjHHOszlBnnN+Wx7rY7qHA+4dwp9GsjYHhy3wYoBDCa7AGTrz9bB5KmBnBR8lJMVtfjEXC8bh5QbZIkB8MFmOm1qWFW97NNAhiCYLNRrIDvQuD5EkGPWmbpTA9krRn8nKWrxibnLbN267CB7T36V3YP3aUZXeMOqioCMtYFx3YLeKwgdC60AsvVny2DyFEGK+Rj3X8cn5r4MlB8kMyFwQVNEdXcUr2d3d3dDkZZ4VfTu3TvFUVX9VcVvVbzX9+/f//jDaJrXFcGwqjqEtlZYWleoJyMSm1p/6gKQYz9bBZOnCVLMkLpNCfbwH4+UHyQ7Hagx05pVOlUP/WkvDiqNEQdivPKD8YsKBGSsDYLJr+o1kP1Qh1SGJIAcswomTxWkWLNw58ELplm92zKD7L7OX38jyefjhDyOFU2Bo9GwBvS21hA5XOwgIHERz8MuBGnl73gBkv1/aw9ScFa+NL2chYTEnDbFlhXkVT7ZqtiP50nTtKo7jFfemX3ZIfYnw5AEkNhnfqeVgrQIQbwAyc59XKhvBCmEDy5cesHpJeFL+UC2DwodCJPq+n+ZtKoDRjPDGmD6k2GWfEVA4tKPxTEEOfaz+Q17AZI1QJbVD3T6+IBe2qcXcgvw/8U1yKvt7QP26qkdHJ80FlrVAXlgUnJ0i9HcsCoCkCGoX23VE5C4GosBaW5bPQDJ/dflpj0zkEK7hWxRi0/MoQGXBhkZGGw5Z5Xck5F69RfxEidHS8MaUJdjAUgyBB8gSGgzz+ggzTOuJYMc4P48PBdTkFf5v5BcUeua+WfkQBqrxK6lpfm346VNjtaGVdEwgiQD7kEHgIRJ8qEO0jyULKlDIDLQKRghPl9jClKc7WT6mvj5SrfHEiDbvehKIuWapA2/EZHeFXNZGFY3IM2XgrCPOd4prfHxll6T1hYh+2EOUvQ/nYtavK/LZK8dQbab9t+4Ffz3/KOczv6PjSwjrhhvWu+gaYWyZMbNiCxdwsUtQIoRoVNRyzr6dAAZ6a3xQNRkNDY0NKLqGJ0XdFaXAeSvFs+IXmuojRx/hSABW6ubObJkibbZCqSYrLMvhdjkg+xBnmSph0Hj+vct6Rw5kjYgjSjnzB9yH+NIWPgRxpXnxNIWXHmtJeoLg9mwBCku5rMrhQiJuXar9wwgPVhoxq/GOmpghuSJSZo/5UsACZa1AOtcM7Crx51WN3FkaTKZ6qxBit9rXQoRcPDI7UCWOB7PjdeKXvxUjiVZZ4PyrA3KT6aPCUlzzAfcqScgcd05k6KzWAbiFchJM5fXBmRAmL6sSAo4BFp2IE2WB1zubRnvHHRQreVi7LwKsqFk+7pgcul9BAnFjTABmaFJcx2kxf503oDsNI9c7EAKS+4sglgh6BRHvQ1IYWY9N+jBor7lhgYPUD4yufIwbLMDleV9oYz1touCtCotlw7SZsGyLciAEIKaOeZCYs7QR2kDkhuQ494sAytmGwwobdxXK5IzhgvvwzY7tNeDFJYxP0eqWKQeabVhZCkgv+h1WGdvDzLCGz9xKZcqPiNjTOdZgyzPWukjSpKl6Rql+KSRPn0HM1UPYHcWnA5/SVGQlu1XLMiBdml1d8vUEu1BinbT2KbGW1+TUok1SDbAKamNllNkmdOSqkdUNxipGG9YoRSDyXsIkljSSJDsl5QBw6o2XxGQY9YNkSUu4nF4bnuQYrJOLIXwiTmzFXnWINkpspybwzgpX5z61YiSDyb3tSY6FSQpRu6Rja+wYycC3ZBqF531TryedJpbyQmkGFvwtlOw+mb/zaxBsoGq58/lVnO/iiS5t0l/sua1qrZ1S2trDXYE4e2fKMgxmxXolQUpRvvsSULOwPTmficgA4GFZR4lG0zeY0C27X3AzSGxq/VvXSnaDWnzDRUGKUYJLVZvmPsrvxuQgcAsb1/1YHJxmAGp7ynYgb/Eg2t4ulotsqxElQYpDjyzknGNZTb2dwQykL/BotSDSbI80rjLJ7z9NkXX8Nhu7VFxkOKuDqQUIlkfqQTIyMoUoxlGs5zmFBW58uMjliQGk4cAMrZ3ry+kg8QfVFqkyyO7xmwDhcqDFPdZUYEIiTnLBZUVGZHL2Wx2IkuUs5MWVT5a0WEyJM9CMFnABcsquEPc1CNcz+4GAetc7XdoqQKQxp2PhADT+qOVMa0TZ6gMyQGz/MARooywQSUJJmEvCNgyaYtu1wqfeEtB2i9zrQ6Q4pLHHj7lY9NpVxmQMwxJOZSz8MkimyBQg8lD2J0F1p3j7iz4M6CLdFMPB8NaJSCt11HW2HcxV8jZWTpzxiXKFfjkJ5YkbM6igqTbCvLb7HRk6O4sTltfVQVI242M7P4nyoH0PGOVn7jgluQUfJTN2n0K4A5mMABx4ys0rN/pG185GNZqAWlTBba9KTmQ50rXJO83H09oyurKAcoG6uo08iiL5JNzDMnzfx8iIHG3pD1+K7oC3YpOYnvIKgFp2ZdhnyeVA+mJbDdfi+SPSV0ktzRbzOfzxbnZleVGxW9lUMKpvzJlkX+QEUn3L4PwA4tZv9DNIVudf/2jWkCabmbluEL9FEE69fqtaGNyiX2puFKno6w7gr8JU+A6/0+NJK5TbuO3a72ToSAdDWsVgTTbXs6xUfI0QTq0xEfUIZmbFV6d1VGicZ1hapXntREJ5+7BBsrIlW6gLLPvbhWBNNnw0bEJvYpA5rOK12MAqY5UJHkDXnmkkzz/r2+HhqlhJSk6NKyvOuhO2DI/q1RFIA1bsDovC5GrR54KyM9Z1YFdMr5RRJA58FzzTAdB3b/RsEbg1yLCWE3up3vTSxhW/oFlzncn5uLul3hILNRinV3rRklvJPYZFOfmilRzyyRJkF2ay0ciwgKPRzAocxBJrbDNIGhY7xGQ8FsRgUhHPYLskvp1LCYbJrVLsDsxBk5quLPWVep29AYu0av0HKT4AMXsBCsMKiEBu/SZsbI3IBRZhmO2rQcqk/sxAhL3MXtFQaYkf68Of2HlunedLYyQ5DXJdotuNPUtcnY+gua4V4z6r3qy7oPqsvEBjicuUBlTPQrMY3qXADIHLR5zLEniA5G9IGhfKy7GUkBKGdZTUORqJOJq04fugR5XP8Hk+gs8080LF+xQKixpjjUHuR44XmZAapXJe7CpBxjWAGzqof7Gmf+zg2VXccKSJKLEQbmS09J2OTCkEXZIKj7QItSV0bB+RUGmJH67xVepOrrAy4YkJGBzEExO5RiSedpoDtVkbDRXBmSH6Rf78lgTJhKmSrCuczmSTMdg8gbTy7x8CFvRoWGFnwHt8H/P9bRUnKOaVf7Nzs6sfF6amMgyKDHmWCYkMZgsMm3puX+TzSHRsG4FYU9BuszVV0U09/nMBEV5BmKOPAzJHASZn9gVBmS7VmzTqQ8jSN+wVlozOkqMOaaAJAaTTLGy7j8qSOx/JL0e2mIsmR+O9FVerWTpXAmvwMp1nDWncjpJxbjSLc23wgiy3zes1aAizfWA51qEIdmIh0zZ+eww/siAtqM5AVlfmRv3JWoJBmUW2sqPc9qYzH3WjmbYsnPuN/obkmEEmfENa7UISWJNBPp6NOOar2N1vg58oJdhBEn3pvdVed2EIQkxxxzsJpFbPlaiEW43CUioF8jv8KgggzbX9XXKyoPvmoVg8ihHBmUDTpcMSc0H2qNLP/p9w1pNmoIyJcYcWb5vkuu1C5AGZRiQvmGtLi2RBGwWgskZ3IRAw7g0M3ukuzyfAoU2w2IsX1Wi/ATk0uF46QwlmdP66mb0QVn8YFiM5atqdExITkAwmc/SxnTIwi7TqfJsjIL0DWv16SYpcE1AfHFMSebICyQJq4Js/C0mLMbyVUWaI+VnGkzepBUuWOsKSVi1FURd+6EuxvKLV9WoZVJ1nsBgMkvLznDCEu5R2PiPmLaGx58gq1PQETKBlcks1CohV6cnYesafgspIP3xWKWaIiQnaDCJtcosNH58QpKNjW1h38+pXi3BkKTBJBa4bsIJjZgiyP3HN6tVrDy228ExXfGMSdjZnNYIm1u22CjbV5Xo+MJNVRcwmDxzE3QGgpKjm0tHKz7F09H/AzmVU8CCKuRpAAAAAElFTkSuQmCC;" vertex="1" parent="dCbXYARRjmfmnTsoq2Sv-9">
          <mxGeometry x="54.29" y="165" width="100" height="24.12" as="geometry" />
        </mxCell>
        <mxCell id="dCbXYARRjmfmnTsoq2Sv-50" value="" style="shape=image;verticalLabelPosition=bottom;labelBackgroundColor=default;verticalAlign=top;aspect=fixed;imageAspect=0;image=data:image/png,iVBORw0KGgoAAAANSUhEUgAAAOAAAACTCAYAAACXmxWOAAAAAXNSR0IArs4c6QAAAARnQU1BAACxjwv8YQUAAAAJcEhZcwAADsMAAA7DAcdvqGQAACHHSURBVHhe7Z0JdBRV1sdv0klIwhYhxCUQhmVEURgQFzaRqAjO5yAooqPggo4i6IAsKjCi6KAOoIAiLiioIDMsCjLjHFBZFESGfVERDSAgCGENmAVCd773f1Wvu7rTe3d1dcf7O6dOd1ev1VX/d5f33n1JFQJiGMYSkvVbhmEsgAXIMBbCAmQYC2EBMoyFsAAZxkJYgAxjISxAhrEQFiDDWAgLkGEshAXIRJcKoilTptCCBQv0HYw/eCgaE1WWLFlCvXv3pho1alCzZs1o9OjR1LlzZ/1ZxhO2gEzUqV27NuXk5NCRI0ekGO+++2769ttv9WcZIyxAxjRsNhvl5ubS+vXrKT8/n0aOHElFRUX6swxgATKmU61aNSnEhQsXUosWLWSMiFiRYQEyMQRCrFu3Lk2aNInyGuZxokbAAmRiTs2aNaUQH3nkEbr22mtp48aN+jO/PViAjGWoRE23bt3owQcf/E26pSxAxlJUouaTTz6hKa+J2PA3BguQiQvQdbFr1y790W8HFiDDWAgLkGEshAXIMBbCAmQYC2EBMoyFsAAZxkJYgAxjISxAhrEQFiDDWAgLkGEshAXIMBbCAmQYC2EBMoyFsAAZxkJYgAxjISzAaMKFhpgQYQEyjIWwAKNJkn7LlpAJEhZg1HG4hMgwAbBEgCtWrKBnn322itaFrKANv3xLB0oP6Y+NCHEyccvPP/8sSyTGsnp3TAW4Z88euU7AzTffTO+//z499NBDVaAupEtUK45spssX3EntFvekvJn59Mhn43wIMTFBg9muXTu5zZw5U99bBRAhA6p1X3bZZbJEorN6dwyIiQDRomBdgJYtW9LmzZupcePGsjgrytEdPHhQrhuAupBogRIKGeslU0HpD3T3l6Po+o/upA3lB6i8+rlkz6pLr/20gHKn3EovbZhDhSWH5WsTETSQaChRSLe4uFhuo0aNkkKEN5PIYDWnpr9vKqt143rEpqp3t27d2vTjM/2KQEvZpk0buS4AhIc6kEZQrhz7V61aJVsgtDxxu4CHM7miWb0DZYfouW3T6KKF99HMogVkz6lDlObKwNhqiL83y07D1k6m9nMelhbSSQIkatAgomGEVUABXRTSxfnDhosUQsTqR3gNvJtEAo0KPLF+/fpRZmamNAhG8NhutztXdzLr+ExbHxAtx4gRI2jv3r3yxAXLqVOnKC0tjcaOHUs9e/bU98YJ+Kf0BMu8PUuo9//+TpQpdp7V9jk5o73IZneQ/Yx4Hpsg6ewpuqleV3qx00BqntNY7quMMU60yGKKn4siuYjTs7OzZSPpj9OnT0uBwkLivOO+Z0MbCHwGhP7yyy/re8wBjfuYMWNo1qxZdN555wX1O43HN2jQIFnDNFpEXYBoKZ566ilaunSpbCVDPRGKwsJCucDjhAkTpGW0FPxDuvCQYBm0aTJ9ZV8lrF02UbkQTIl40mD5IECIDxgFCCDCCqpFI5veT4M6dKeczHr6M8AoPkVsRYg4b/jw4XTmzBl5/kIBF2pKSkpY59x0AYpTgEYFrjPczECNijdgHE6ePEkvvfQS9e3bV98bGVETIFqWyZMnSxcymFYzGOACIEbs0aOHXGm1fv36+jOxB3Hes+veo5knvyBKTRZ6TJX7K0pPy1snuvUDTgsIDCIEUogpNWnaVY/SAy3vEHsgNOsECJcMlgFr+UXScIaLmQJEnPfkk09KAXm6mqGCa/Lo0aNRMw5RObsqzkNmE2Y9GuIDuAjQWhnjQ2mNTKOyAJA8QZz3+6X9ZJwHlPiCwZbmEqQRiA/0X/N3ajqjtx4f4nTgANUGvIkyeqDhHDJkiLz4d+/e7YzzqgJYlVfFeSBS8QH8N2pRmWgkDyMSoMqOoXVRgawZJw+ChhCRmWp+SXMT+w/1v0O/9hHntV16D43+aaK0epRRl5JStcalovx0ZevnAylCtXlgT6pNO8/up2vn9aHu84fSd4UI9vEfehdu1BDHiAatefPmtHjxYvn/VhXhqax7+/bt6ccffwwpBxEs+K9U8vCSSy4JO3kYlgB9ZcfMBgJHjIFgGC1b1PsPdeGtKy6gjv99kHpvfYz21v5VCo9s4km7eaKARfz38dV0yYd9pMU9UKq6LSJqI70Cl6xd+3ayQcO5i5bHEg/AG0M/3ty5c6VAzD42fD6+B/9l586dQzYOIZ1dKByZMSgeyrei1cT34aKBuwQXAO5T2C6A8vIkDioo0/rzrlzenb5K205JaeeTvVR/2iA+WD9TEBbSlpVEz60fL/sP392+WOy0a89FAaNLhi6EaLhk8QKyr+iXRByblZUV82PD9yE+VMYB/3UwBC1AKFvFebFoWQKhXAC4T1dddVVE8SHivLe3/kvGebNpJdlqZ8v9FbYzmuUzUEHlmjtqBmcqZNKmPFl8f46DHlg5RI6sibT/ULlkaLCqWpxnHF1VVlZmWhgUDEbjAPcX/3kgtzRgFhTWBQe4Y8cOS7JjwaIyXO+8805ImSnEeU9snay5mgac2UuFp/uJ7gfP/j/gkQVV+MqGVsJLnGg7fYJubXADTew8gi7IOFffGwTiq2bOmiljdPRdxbOrGWoWFBd2tLPu0QbXZGlpKb344os+uy0CChBJFnSmI8kS760mXAC0iPi9wXSWzt+2hG77uD/RFQ3IlqHv1LFMgAqDEJHESS47TOVHcujEkAVU22bsO/QOLlDEJEiZh9qfZwWhChAWb9OmTQlxbFh4FANL4J56EtCXWr58uaVmPRTwG9ESBhsTLtmymqi6uNCLghSFJyn6rck43dLiQ1RQWKjv9Q+SEWiBE+ECDRWc30WLFslYLxFo2LCh9My8EVCAtWrV0u9VPdIgPkHS0eOVLZ4nHrGgT4wjYrzhxcUMiiMiHhUUB5kAOnDggBzSVxWBp1OvXr2EMAqBMCmbEBi4HPgj44GKknRK3RfitCGViDHLCqJBMG6OAMJmooJZ16Svz425AOEWQXwdO3ak6tWryxglHig/cdbV5RBvnA3TakYZXEQYo7t///64aTyjBa5JXJu4JnGMsTq+mAkQB4hgFBnVr7/+mt566y15i0wW9uPgo0WNGjX0e8GRlFkmb217jkhXNKA7GksgvhLN/bQKXIwQXaNGjWj16tUyL4D7uFATHXVsMAjoS8Q1OX36dCopKYnqNekL0wVoPEB0TmJQtTFDiSlHyFpCmHgdhGoFSemZ5LCLv+PXCp/jN00BAlObeqxusVksPlyEiLWQ1Pn4449lQgEDMXAfFyrObywu1GhjbFTQlwyDoAb7d+3alQoKCmjw4MHSQzPzmjRVgPjh6KPxPEBPIEgIc926dXT55ZfLP8YqUo8L98NMC2j8bCU2BR6nxIf1xbnDecBFuGnjJnlReoJ9K1eulK+xsvEMFdWovPnmm7Ih0fqNKw96R7fBtm3b5GwceGkQbbj4ShiZJkCcDPTrLFu2LOiOcbSuGGkDMcYiNnSkCNcztVSOw1SzE86WpUkraOa4TydGsSlLpywfUPtinICBmHDuMNZW9l35+SvQeOI1eC28nHiJ6X0B8alGxTXhWxPWd4W7aPrqDw11fBzi+GrS888/L11vWMtwRIj/5MYbb9QfuWOaADFIG+M0wwEnFP1XkbQ4QVOeIefmYVPYCo/p9+IAp/g8RgqYBC5QTDhFh3go8y/xWng5jz/+eNy6pDAKGCLm2agUlhyjKStn0EMLR9GMb+bT3e8MF4/foSI7GhNNInC7X3nlFTk/NViUF4HiY8+PfV7f645pAkxPT49oQOw555yj34s9MhYsreySxBQLYz+MZwwXDNDHbPp4BdelEYyGunP6UJrzw3LKTE2Rm616hXz80JwX6bPdrnG4cCODcbNhOOCyIpxCWAWPzpcXYZoAEwVbdfcTopBWsMzg+sXCJYXo1MbEhGnrZ1FRaon+yEVmchLt//UAfbX5c31PcMDdhFARWyKcQljlj9+8AH0hrSBqvUB40RSftwyrElym9SNX4tl6mQkE543D5D5I3xdwu7FhzCfGqGIcbjD85gVoP3Ncv+eOTMocFTFoUUVIJSgioopYvkQaAletpn93O6tGA/2ed5S7ifKFGzZsCLlYE1tAQbLN4dyAFB8ykb8Kfx8iZKosmaLNq5PmI8ElXMnUX7030BAeBiKowQnIlAYzA8eT37wAU6v7SBQpayREmHysLHZWkIktSTYqKfc2r0wgRJaW5i4qlCVUXS0YiIBYDxnScGELKEhO9TgBbh3kGWQ/EMUO5mA7+Sv1/cXrQNXE5s3ew+m+S3tR2akKKtH/cwgS26B299ID+T3EHnhGDqpf/wKZWEFXy9YtW70OTgiVgAKM51nUkXIspYzKK7SSAW4ihPUzCkDcrzgYmQD8Dm/zTL6o7/YUYYqPlpoJChT0OnTIfdZLbVsd6te+B/3zLy/RdXVaSSFCkP+5/xXq1eJ6ysmso79SAzFeoMEJoRBQgJ79JlUZiLCirES/8BEXqNhA3Orz8YKeF+iB3+FtwSRffGTpog0muf7jH/8Iq+IcBjOPGzcuov5fM0H3AMoUosoDfqu+V2xJdEFGPXqm5zCa98BEIchbhTAxkVn95zh36vxp1jBasAtqwFGeItxPDADwEpQ7REN0ULdAYYowEcBFGmrRWVUYCZlAVFuLZ+DR4fjUojLa8UEGmhRcSwXERhoswGqFTjfUbkeJAx8ZMQArqMaJoiZMFQUiVEVnGzRoIEtReqvuhX147oorrpAl7ROluC9+I34rxin7Pj51fs31PKqcAMMakS9EKK0fuh38Adf0sD2yjKi3WDAOOuC9AWvRqlUrmXhAzU1j0Vncxz48h4s5EXMFcJXV8aHkpu+iujhnxvMWPdlUSQsYbCtcO11v5U7nkP1UpnZfJ9le4dzcOFlOFUWGmM0zL2KoihY2znjPEIN6JmRiCC5UJDAwqBjVyBBDIREB0cVrvBcKOAZU/cMx4di0+BfSUJvC83HkRPfTEhTb2bqUXI4W3Lv76RKhLoQioToILyZJST8ucQxRbhuKzqrlCKoSOD4cE44NU7EQ07ri3+gLT2GaAGMylShKwPo5bP4tl5sITwgLGw1LFypnY1QH0Q+4UIP1MBIR1dAgpo1k0ZVgMUWAEB9ak3CG5igwv+zsWXNNTN1U8fuOn6dlOAWV3E0P3J6P+RA1zRIeOXpE3oZTor6qgK6Sw4exeI15wL1Wi654xr/RJOoCxIhwFLTxVYg0WNTYOvNmWDvo/jZ9xRVdwyksf1YQz7k9j4RNURiZ0GBGwviJ9yavfF+/559rrrmGtm/fnhCeCH4jfmuwI0twXbz66qu0efNm049Pxb+IDyHEaK/IFTUBqtm/8J0xKjzSlUNhAVGhCtM7IMKwspt+SaamGRfS/idWUf9mXYgKj7tZuEAuqbRIqnM+Uvx0xDt/U/EhGtnhSdlRLK1fgJ+Hixm1eOBFxOsMdaAabGQiQxnaBUGgOpsqI2gmKj5EH2c0FuU0ErEAIQxMx0A9ELQOnlXPIgVDf4yFcaImRP26xmInr/V8hj4d8AHl12giL3QQyB2VyISMsIJRjwfhbmIrJUdZId2eexXtGryKxna5XxsalSS+M4ifhwsajVg8Fk3ybLDDWXMdc+5wfFj8BI00xGymRYQQVf+oig8jDQUCLs6Sl5fndX0BHCgOGtPun3766YgtXjBgxMVTTz0lW3Yshe0tGQCRovxhKPVMjKBEwYD/vkxHK7SJmLCEEKM3i6jtLyNb/XSy20RbhrL0oS7O4lmASVF6lJrktqG3//Q36pzdSt9pAB8Tgu7RYqPDec6cOXKWtlWJFFw3qKuCTONzzz0XcMZ4sCBREuvVkiB4TGDG97oKPIVGWAKE8BAIjx8/PiojwkMF4/hGjBghW1DP3xaZACGYCiqyH6O3Ny+jYf96lpLrZrmJz9MyQoCUlSYCk8oZyqAFaBSfHv/NuGks3XvxDeJedMN0eCnDhg2TdS9jvXALrhtkGF944YWgZ4yHimqkVQ1TsxsaNCjw0MINu0ISINwG9JPAzXxkYPRGhIcLisVi7buMjAxnh3CkFtBoWVCe7ukPp9LbW+ZLIXpDijNZiDBbiDDD/WQHFKBh2lMSnaSKo8U08KqHaXSH+7Qxib7ODN5m+J3hgKze8OHD5X2zO9NhKTCPDtXWwnE1w8HYSMNYmCVExJ/QCLwyUybkwrQrfz3YWpGxAifzu+++kwNrVYyDEx1RHKCOS1zgiA+n9RlD64fMpY6Zjchx9IT+pAewWp6WLRDGOYdHf6Hbfnc9/Th0CU3pMoxyMoIQX4TAZUKrbWZFcnXd4PxgFkKsxAdUfIgknhll5lViEC4vvifcvEdAC4gvWLt2LT3xxBMRzfw1G1g9TKOB/x/sIo+h4RDx4Wd019zJdKZsTyXXVE6YzRFxh8EKGi0gkFbQKNRfD9HlmZfR+FtVnCcajgo/LbXx69THGPeFSTCxdSigAcRnYthaPFw3Kj6EBY503CpEh8+DdUWDEmnCMaAAGXfkevLLF9KoFZPcRCgTMrUryJaVpCVkBL4EiCLAmHc4o9tUEed1058VBDoTSmx4XRSE54ly27BWB8KOcIQIy4D3Tpw40bQ4L1yQiMK67eE0NBAewq8+ffrIgtNhhzgesABDQgkq2RUfFsym5HRtXKQUY5adbDWSpQi9CvDYQerftDeNuW6oK84zisnzbPgQ2u4Th2j5d6vk/eZ1G1DbZm3EvcgslwKx9ZgxY+T9YOND5eIhI963j3A1TWggooVKRO3YsSNgQ2PM2pphzVmAYQNxJdOXezfSUwtfplUlu7W9qafJdkG1SgK0H91FbXI70YSrR3jvVgDGM+HjAlYWeNnulXQ6rVzfS9QkOZf+esPtdFneFfoe7feFS7Bum8oCPvbYY1J80ewDNhskopDPMCbxFDguWPNmzZrJpKNZ1pwFGAlO62UX8eHndNv7Q4iqnyHKzZbdEkqA9hMVNPePT9NtDQN02fgRYJH9MH34vy/pvfULyFFd22csJisLComL5qLMC+mxG+6h5jnoX8PzkXVj+IoP1QWKfmAMG4zn/IA/PPsPMezsxIkTco1JJHDC7d8LFhZgJDgFqKGs06Rv5tOJHM0iTm3zDD3Q8nZxT7k5EKV6o4c41JlwfqbLyk5d9YEslY61CxT24iTKPK8eHS865BQjhJhcTHRb63zq3aa7e3eG4beGiooPd+7cSampqXJoFkagWNEPbAaID6dOnSqTeb169YqZG80CNAU7zdvzOXXIaSW7MjS9udxRDS+Wyfk67bkNv3xL09fMo62HdziFZ7R0Y24dQCkVQqA7NwoL/KmbQFFWr9qZVOp/zV2yupd2NeELIogTxdtXfLFCJiTatm2bUO5mvMICjDouAbnwFB/w9hptHxI8H63/D83Z/rmbxYP4coWgH+94h4j1MOoCYkKfZ5Kwvkdp7oZFNG/TcnKk292EmFvjAhrQ8S7qlOcRewrxxqKVZ3zDAowLlPjs9NGmpTRx3QyhLZvTrUStytTkZOpz3Z1078Vd5D5fHCg9Qm8tnknL922WsSI+A65qucNB+Q1a0YPd+mpW2dkoeDYETCxhAcYFDlqzYz1N2jif9p/a5+ZuVornpMULzJd7t9D0T2fTTsd++XnSdRXg8+65vCfd1KqT/nneLDYTK1iAFoPEzaiPptD3JT/Ix0osEMqFdZrIOA9FY10iUZbL32lz+ZUYvfPGFx/Q6QztfdVKk2X3BeLDAR360C2tr5P7NXc2XDGyNQ0XFqBFQHj/2ezqVnBmMUXMhj69/lf3prbNrhR71MXtSaDT5hIhllqeuVqLD+HKKuCWXtqgKfVrexu1OR/dCMq6hpqoYQGGCwsw5mhx3tSvZkkBpNfUhadbvQFXdqFuV/xRL42OU+MSUmDUqTS+R+2zyeTO2MWv0zf7Cpx9icioJpfZDPFhttgpBOjjq78r3EVrCjbJ+22btqbmOb+T912wCEOBBWg6LuuAboXxy6e7dxfowut4cT4N7HiTLgAjoQgwEJo48Dte/WSGjA/himJNdPU7EB9isRLte93F9Pwn0+jCvDxq31TLpi7epA2Fw1oKmvWs/B7GPyxAU4H4tL93ysp3pQuoLB5AdhNxnjZypbG+1/UejWgK0AW6LVbt2CQtMWJCNAjIloLsOvXozdufFFbYNVb1v+uWUp1aNelMRgot27BMLt08qtvDtGrTZmrSqL5wYS8WL2TxhQr/YzFg496Nsk8P4sNFDuHVKsmgiT0G0bQ+ow3iix2oLXNL6+vp/fvH0+0XXy9jTyRqYA33C1d15KLX9FdqrP15k4xJC4sO06VNW1DjvItp79491Lt9F9qy+3vxCr6UwoH/NdOx0TsbPhE3rsTGo/l9ad7A1/WB094SHqFYvXBPIb43WfYJPnL1/TSn7yS5Pp4c3pacJONEzLhQlNfAqlEa3xRso22b1lHjBo3k4xK7j4nKTEBYgGZh8CKPlpXIixpxVo8/XEO9WmD8JESm4kPcqvtGNJF4P01iH0ayqPt+N+An0hBPQYhIwqgZFiXVyqj0jAgKZVvgoCbVs5yC7N7mGrrpqi70/ZF9sv+yZcPWcj8TOhwDmoUeO4E7/vk4HS/7RQrw9gvzhcW51/WkGxCLJkTEaLv27abUWtWp/GSxPt/P+B5NWMhsri7YLK3ST0cPUvHpk3I/sNXJoovSc6TLiMSJluBRn6GE6QJdI7fO+quMB4+dKaX3eo7T3WOte+Jvs1+lnvldqKm+LsSW/fto1bYNNPL/+olHvj+X8Q0L0CyMApw9lI6fLgxSgBrIVA6Z94Ic1wk+7POKPnJFA2Ixjv00uri+aFmnKT3ddaDb5xjxL0D83gqau/pzKji+Fy+niy5oaOjIZwGGA/9bcYzsoBdiKKsop+IzuosqhA2hDJwxypnYUV0aZWfLKm1wfdWGWRV4H6xm6GgtSu/2XYXF+4vckMRhIoMFGM/YNevnRpKDxix5jX5KOeYUHhInsG5PtP8LjbjyQef2cIs/U9OsJjLrCvD6g+klspRG6CgLp+JVFbNivzdrzgQDC9ASwr9gD5QeprWF3+iPiM5JP192JbzWc7RM7tzS+gbnhg5ylN1/+bYRdE41LW6DJfzh2E7p4joJGITg9+JSMW6e+NrP+IP/sQQDfW/pSalUJy1DxpS9Lr1OT65ARUbr5LJSbc6/iPrf0Ff29Sm0vjsj2mu9409wamPCgf+5KoFN6A+bOJ1qc55aTVids1vIYWdIriBps/fQbrnfv/AYs2EBJhi1zsmWg6cB3Mn53yyljXvXUZHjsPAURczoFpLh9Cr/Molm93uJ3ug+hib96W90Tz6qVLP4rIYFmGCg2tn52ZjRrg3kLkm102MLJ9Otrw+lO2Y/Ts8smEDTV39Ia3aslXEeZsgXlhwTr66Q3Q+YdoStURY+w2gpGSvgf99MAiY3wsEm67uoeK7k4GE5xw9jONHX+PWJLTTjm/k0/IuJNPjff6c/TxtKd04fSgMXPEdYek3rglCWjy2g1bAAEw0h6k55l0k38qJqTeQuDB+DNVSgu0Ft6CeEOLceK6DJa2dKQU5fjfXOvXRxMDGHBZho6PEdpv9gJgXiuvuvvkcOpD7ffq5ztgUspHPTxYmYEYKcsX0BjfrsXbGHT7/V8BlISGC9NFEhrsMCL8/0HEbvPjCBPn/kfbmO/Js9xtLkbkNoULt7pThRCwbiVLMdVm1fLme3M9bCAkwQ1NIMqJKNMvjYkGDRxOgey0GUGMOJ6U7onIc4YSk75raU7ijAMLfv9xfI+4x1sAATCjs9u2iSjOUmf/2uLN4rkX1/2l1fQJS9O9zi6oz3NsyNiTkswAQBJeiRAc2ue562w2ajhVu+0O5XKnvvCZ53UKm9VHuo40gJoFrGdFiACYKaDdGxfjN5C5D9RK0ZzB30L8JkWZrwjaVzndOW0Jnf/Nzfy/uMdbAAEwoH3XL5TbJ6GZIq6GbAfMC/LnxRdi2g8x2JFcxcVxv2oWP+obnjxWNt+BmyoigGZUUtGsYdFqCZhD/pwScoHfFcjyF0TlK6HNeJbgV0wKvO94cWjqK75w52bo+uGCefw4x8lYCpXlJHVtzWXFPGSliACYdddsQ/ecsgalKzobOvz9j5btzSU9Kl24nXoH8QnffTHxglhOx9VjwTW1iAscSZeQz3b8f7YFYdsiP+X3eOkyNiUFYwL7Wx7ONTglQbXFVM1r3v0l5yXiA677XVkfBZ+u+QlpovBSvgmjBmgX9Vd0GNNWE65eXT2C6oCYNkiKcL6BIBBlJjLCesGFzNube/pg+gNr4Hr8dj9T67PvDaBep/at+lY/hdbvcFmFUxaPHLzu901YRhzIKbvRiQXe9cKT6MQPly9+d079tP0Ge7N4tn8PerUyBuIYiQmkMlRtxiS5L9fcbNJXT9tQbBuXDIRA1mVagsKSb9ZteoKe8z5sECNAvDhT7gD71k5hLAuvxiO0TPLpsgpw6hwJJTfAaOlWlLiAGIwYUSrdqMeD4GEJ631wqSHPTRpk+p26uD5fhQjI5BISe4rnBZNQEbxMtEHXZBYwRcSrkwS+khaQkBYjaskIQFUbq17qjHZlqtz5EfjKedSQflayGIlQ/OEs8YXMmIsMsFPGd++bGsD4NMqnM2hYhTIb5+7XtqjyXehM1EAxZgTLHLMZxvr/iEijOPOYUokyXC2jXL1eKtHft3yXUa8DxisStzLpXFlaIBxI0lrJce3iDdTeNvaFmvmb5WoFpoRVk+FqBZsAAtAG7n5K8WyRkJsD4K47QhBboOkL3UFtAMB01EGC0zc/syWvTVv2VNGLjC6vtyMy+g4Z3v0YUHsN/1G1iA5sECtARNFBt+2U7T18yTBXNV8kNiGCiN6UTaWhIA7wtCDG760azu/G2fuq9LqFvd/tfcJT4fBXY93Vtj3McCNAsWoKXgIq8QQvyevi5YQ0eOHKf9xacot3pNyju3kR4XqgU7oajQhIChaBOWv+5V4J0aXe9nQVC2gLGCBRj3aFYPbqurT8+/JcRrpy55j5bv2+ysFyPdTSG8izIvpP7X9dZdWn9TkliAsYAFGK/oRghJE8z7w9SjRlmNqG+nm+VQNO8itNOcNbNo2vqlzlVv5d7iJDl29NE/9Rfv1ZaXdsfbJcACjAUswDgGy0Lfu2wc1cqpSU0ow9ltkd+gFQ3oeo/eT6eBjv131symnSd3yarZAFYPQ9EGdOhDHZu1Fq+vK/cHRle/ExagWbAA4xxML5r46XvO/jqABArm8w26+m5qeF6uTORgRVs8D5HC5UT2tOPF+TSoQ3dNqFJTxsRKKLAAzYIFGM84DZGD5m/7jN744gNpARHXAbWarXI1AYR3fj1DtwJm0uMzPI2aG0ZhsthiCQswgUBy5e3lC2nJzi+cIlRz/FS3wujug0Wc9wexR6lNF5RfATJWwQJMBDzEA7d07lcf0ar9W6VFzLFl0o2tu1K/9j3Es9EarsbEAhZgAgOLiFoxjbLQl8fCS0RYgImOOnvsXiYkHHEnOhAeiy9hYQEyjIWwABnGQliADGMhLECGsRAWIMNYBtH/A4Hg/hXt33alAAAAAElFTkSuQmCC;" vertex="1" parent="dCbXYARRjmfmnTsoq2Sv-9">
          <mxGeometry x="58.58" y="85" width="91.42" height="60" as="geometry" />
        </mxCell>
        <mxCell id="dCbXYARRjmfmnTsoq2Sv-61" value="" style="sketch=0;points=[[0,0,0],[0.25,0,0],[0.5,0,0],[0.75,0,0],[1,0,0],[0,1,0],[0.25,1,0],[0.5,1,0],[0.75,1,0],[1,1,0],[0,0.25,0],[0,0.5,0],[0,0.75,0],[1,0.25,0],[1,0.5,0],[1,0.75,0]];outlineConnect=0;fontColor=#232F3E;fillColor=#ED7100;strokeColor=#ffffff;dashed=0;verticalLabelPosition=bottom;verticalAlign=top;align=center;html=1;fontSize=12;fontStyle=0;aspect=fixed;shape=mxgraph.aws4.resourceIcon;resIcon=mxgraph.aws4.auto_scaling2;" vertex="1" parent="dCbXYARRjmfmnTsoq2Sv-9">
          <mxGeometry x="30" y="60" width="20" height="20" as="geometry" />
        </mxCell>
        <mxCell id="dCbXYARRjmfmnTsoq2Sv-148" value="" style="rounded=0;whiteSpace=wrap;html=1;fillColor=none;strokeColor=#004C99;strokeWidth=2;dashed=1;" vertex="1" parent="dCbXYARRjmfmnTsoq2Sv-9">
          <mxGeometry y="1" width="220" height="229" as="geometry" />
        </mxCell>
        <mxCell id="dCbXYARRjmfmnTsoq2Sv-64" value="&lt;span style=&quot;color: rgb(0, 0, 0); font-weight: 700;&quot;&gt;Public Subnet&lt;/span&gt;" style="points=[[0,0],[0.25,0],[0.5,0],[0.75,0],[1,0],[1,0.25],[1,0.5],[1,0.75],[1,1],[0.75,1],[0.5,1],[0.25,1],[0,1],[0,0.75],[0,0.5],[0,0.25]];outlineConnect=0;html=1;whiteSpace=wrap;fontSize=12;fontStyle=0;container=1;pointerEvents=0;collapsible=0;recursiveResize=0;shape=mxgraph.aws4.group;grIcon=mxgraph.aws4.group_security_group;grStroke=0;strokeColor=#005700;fillColor=none;verticalAlign=top;align=center;spacingLeft=30;fontColor=#ffffff;dashed=0;strokeWidth=3;perimeterSpacing=1;" vertex="1" parent="dCbXYARRjmfmnTsoq2Sv-1">
          <mxGeometry x="160" y="430" width="220" height="220" as="geometry" />
        </mxCell>
        <mxCell id="dCbXYARRjmfmnTsoq2Sv-80" value="&lt;font style=&quot;font-size: 14px;&quot;&gt;&lt;b&gt;Bastion Host&lt;/b&gt;&lt;/font&gt;" style="text;html=1;align=center;verticalAlign=middle;whiteSpace=wrap;rounded=0;" vertex="1" parent="dCbXYARRjmfmnTsoq2Sv-64">
          <mxGeometry x="60" y="185" width="92.11" height="20" as="geometry" />
        </mxCell>
        <mxCell id="dCbXYARRjmfmnTsoq2Sv-79" value="" style="points=[];aspect=fixed;html=1;align=right;shadow=0;dashed=0;fillColor=#FF6A00;strokeColor=none;shape=mxgraph.alibaba_cloud.bastionhost;verticalAlign=bottom;" vertex="1" parent="dCbXYARRjmfmnTsoq2Sv-1">
          <mxGeometry x="180" y="610" width="37.89" height="30" as="geometry" />
        </mxCell>
        <mxCell id="dCbXYARRjmfmnTsoq2Sv-81" value="&lt;font style=&quot;color: rgb(0, 0, 0);&quot;&gt;ALB&lt;/font&gt;" style="sketch=0;outlineConnect=0;fontColor=#8C8C8C;gradientColor=none;fillColor=#8C4FFF;strokeColor=none;dashed=0;verticalLabelPosition=bottom;verticalAlign=top;align=center;html=1;fontSize=16;fontStyle=1;aspect=fixed;pointerEvents=1;shape=mxgraph.aws4.application_load_balancer;" vertex="1" parent="dCbXYARRjmfmnTsoq2Sv-1">
          <mxGeometry x="370" y="300" width="88" height="88" as="geometry" />
        </mxCell>
        <mxCell id="dCbXYARRjmfmnTsoq2Sv-82" value="ALB" style="sketch=0;outlineConnect=0;fontColor=#8C8C8C;gradientColor=none;fillColor=#8C4FFF;strokeColor=none;dashed=0;verticalLabelPosition=bottom;verticalAlign=top;align=center;html=1;fontSize=16;fontStyle=1;aspect=fixed;pointerEvents=1;shape=mxgraph.aws4.application_load_balancer;" vertex="1" parent="dCbXYARRjmfmnTsoq2Sv-1">
          <mxGeometry x="40" y="306" width="88" height="88" as="geometry" />
        </mxCell>
        <mxCell id="dCbXYARRjmfmnTsoq2Sv-101" style="edgeStyle=orthogonalEdgeStyle;rounded=0;orthogonalLoop=1;jettySize=auto;html=1;exitX=0;exitY=0.5;exitDx=0;exitDy=0;strokeWidth=3;startArrow=block;startFill=1;" edge="1" parent="dCbXYARRjmfmnTsoq2Sv-1" source="dCbXYARRjmfmnTsoq2Sv-39" target="dCbXYARRjmfmnTsoq2Sv-81">
          <mxGeometry relative="1" as="geometry" />
        </mxCell>
        <mxCell id="dCbXYARRjmfmnTsoq2Sv-109" value="&lt;font style=&quot;font-size: 13px;&quot;&gt;&lt;b&gt;Data Replicator&lt;/b&gt;&lt;/font&gt;" style="text;html=1;align=center;verticalAlign=middle;whiteSpace=wrap;rounded=0;" vertex="1" parent="dCbXYARRjmfmnTsoq2Sv-1">
          <mxGeometry x="920" y="329" width="60" height="30" as="geometry" />
        </mxCell>
        <mxCell id="dCbXYARRjmfmnTsoq2Sv-117" value="&lt;b&gt;&lt;font style=&quot;font-size: 11px;&quot;&gt;Scale In/Out&lt;/font&gt;&lt;/b&gt;" style="text;html=1;align=center;verticalAlign=middle;whiteSpace=wrap;rounded=0;" vertex="1" parent="dCbXYARRjmfmnTsoq2Sv-1">
          <mxGeometry x="10" y="55" width="70" height="30" as="geometry" />
        </mxCell>
        <mxCell id="dCbXYARRjmfmnTsoq2Sv-120" value="&lt;b&gt;&lt;font style=&quot;font-size: 13px;&quot;&gt;Logs&lt;/font&gt;&lt;/b&gt;" style="text;html=1;align=center;verticalAlign=middle;whiteSpace=wrap;rounded=0;" vertex="1" parent="dCbXYARRjmfmnTsoq2Sv-1">
          <mxGeometry x="15" y="660" width="60" height="30" as="geometry" />
        </mxCell>
        <mxCell id="dCbXYARRjmfmnTsoq2Sv-124" value="" style="rounded=0;whiteSpace=wrap;html=1;fillColor=none;strokeColor=#006600;strokeWidth=2;dashed=1;" vertex="1" parent="dCbXYARRjmfmnTsoq2Sv-1">
          <mxGeometry x="160" y="60" width="210" height="220" as="geometry" />
        </mxCell>
        <mxCell id="dCbXYARRjmfmnTsoq2Sv-83" value="&lt;b&gt;Route53&lt;/b&gt;" style="sketch=0;points=[[0,0,0],[0.25,0,0],[0.5,0,0],[0.75,0,0],[1,0,0],[0,1,0],[0.25,1,0],[0.5,1,0],[0.75,1,0],[1,1,0],[0,0.25,0],[0,0.5,0],[0,0.75,0],[1,0.25,0],[1,0.5,0],[1,0.75,0]];outlineConnect=0;fontColor=#232F3E;fillColor=#8C4FFF;strokeColor=#ffffff;dashed=0;verticalLabelPosition=bottom;verticalAlign=top;align=center;html=1;fontSize=12;fontStyle=0;aspect=fixed;shape=mxgraph.aws4.resourceIcon;resIcon=mxgraph.aws4.route_53;" vertex="1" parent="dCbXYARRjmfmnTsoq2Sv-2">
          <mxGeometry x="20" y="512" width="78" height="78" as="geometry" />
        </mxCell>
        <mxCell id="dCbXYARRjmfmnTsoq2Sv-84" value="ACM" style="shape=image;verticalLabelPosition=bottom;labelBackgroundColor=default;verticalAlign=top;aspect=fixed;imageAspect=0;image=data:image/jpeg,/9j/4AAQSkZJRgABAQAAAQABAAD/2wCEAAkGBw0PDQ0PDQcQDQ0HDQ8ODQ0NEA8ODQ0NFREXFhURFRUaKCkgJBoqHRMVLT0jMTUrLy4uFx8zRD8sQystLisBCgoKDg0NGg8PGzcdFR4rKy8rListKys3LSstKzctLS0tKys3Ky4rKystKystKy0rLy0tLS8rKysrLS0tKy0rLf/AABEIAOEA4QMBEQACEQEDEQH/xAAbAAEAAwEBAQEAAAAAAAAAAAABAAIHBgUDBP/EAEoQAAEDAQIHCQ4EBAUFAAAAAAEAAgMEBREGEhdUVZLSFSExQVFxdJPRBxMWIjU2YWWBoaSxsuIUMkKUUmJykSUzU6PhZIKDwcL/xAAbAQEAAgMBAQAAAAAAAAAAAAAAAQQCBQYDB//EADkRAQABAgEIBwYGAgMBAAAAAAABAgMEERIUFVFSkdEFEyExYaHBMzVBcoHhFiJTY3GxovAykvEG/9oADAMBAAIRAxEAPwDxQtU+jFAgoFAqAhAoLBAoEIFAgoFAhAgqAoLIEFAoEIEFAoEFEFBZAoEIFBL0HgArJJCBQIKBQKgIQKCwQKBQKBBQKBQIKgKCyBBQKBCBBQKBBRBQWQKBCCIPAWSSCgQgUCCgUCoCECgsECgUCgQUCgUCCoCgsgQUCgQgQUCgQUQUFkCgiDnwskrIEFAhAoEFAoFQEIFBYIFAoFAgoFAoEFQFBZAgoFAhAgoFAgogoLIIg58FZMiEQsgQUH2gpZpATFSySBpuJjje8A8huCmIme5jVcoo/wCVUR/MxD7bm1WjajqZexM2rYw6+1vxxgizarRs/Uy9iZtWw6+1vxxg7m1WjZ+pl7Ezath19rfjjB3NqtGz9TL2Jm1bDr7W/HGCLNqtGz9TL2Jm1bDr7W/HGDudVaNn6mXsTMq2HX2t+OMEWdU6On6mXsTNq2HX2t+OMHc6p0dP1MvYmbVsOvtb8cYO51Vo6fqZexM2rYdfa344wdzqnR0/Uy9ijNq2HX2t+OMEWdU6On6mXsTNq2HX2t+OMHc6p0fP1MnYmbVsOvtb8cYW3OqdHT9TJ2Jm1bDr7W/HGCLPqdHz9TJ2Jm1bEdfa344wdz6nR83UydiZtWw6+1vxxg7n1Oj5uqk7Ezath19rfjjBFn1Oj5uqk7EzKth19rfjjB3PqdHzdVJ2Jm1bDr7W/HGFZaSZgxn0kjGj9T43tb/chRNMx3wypu26pyU1RM+Ew+QKh6FAgogoFBz6yZEFAhELINowIe2Kxqd+JvRxSyOxQLzc9xJ595X7XZbiXF9JRNeOqp2zEeUPPHdLoM0qd/8Aki2ljpNKzqHEbY4zyOUqgzWp1ItpNJpNRYjbHGeSZSqDNanUj2k0mk1FiN6OM8jlJoM1qdSPaTSaTUWI3o4zyTKRQZrU6ke0mk0mosRvRxnkmUigzWp1I9pNJpNRYjejjPI5R6DNanUj2k0mk1FiN6OM8kyj0Oa1GpHtJpNBqLEb0cZ5HKNQ5rUake0mk0mosRtjjPJMotDmtRqR7SaTSjUWI2xxnkmUWhzWo1I9pNJpNRYjbHGeRyiUOa1GpHtJpNJqLEbY4zyTKJQ5tUake0mk0mosRtjjPI5Q6HNqjUj2k0mk1FiNscZ5JlDoc2qNSPaTSaTUWI2xxnkcoVFm1RqR7SjSaDUWI2xxnkmUGizao1I9pNJoNRYjbHGeSZQaLNqjVj2lOk0mosRtjjPJ7FRVx1NmyytYe91VLK4NeBfdinhHsXpNUVW5nwUqLVVjF00TPbFUd38sfBWsdyQUCgQUQUS58FZJKBBQIRDZcF/IEfRJ/m9X7fsvo47G+8Z+aPRjjDvDmVB2UrBEFAgoFAqAhAoLBAoEIFAgoFAoEFQFBZBqti+Q29Dl+TlsKPY/Rx2K95T80ejKwte7FYIEFAoFEOfWTIgoFAgoNswKhEljUzCSBPDIwkcIBe4b391sLUZbcQ4npGrNx1dUfCY9HljuY0OfVO9/NFsrDRqdq3r6/ux58zkyoc+qdaLZTRqdpr6/ux580yZ0OfVOtFspo1O019f3Y8+ZyaUOfVOtFspo1O019f3Y8+aZNKLPqnWi2U0anaa+v7sefNMmtFn1TrRbKaNTtNfX92PPmcmtFntTrRbKaNTtNfX92PPmmTaiz2o1otlRo1O019f3Y8+Zyb0We1GtFspo1O019f3Y8+aZN6LPajWi2U0anaa+v7sefM5OKLPajWi2U0anaa+v7sefNMnNFntRrRbKaNTtNfX92PPmcnNFntRrRbKaNTtNfX92PPmmTqjzyo1otlNGp2mvr+7HnzOTqjzyo1otlNGp2mvr+7HnzTJ3R55Ua0WymjU7TX1/djz5pk8o88qNaLZTRadpr6/ux58zk8o88qNaPZTRadpr6/ux583tyUTaezpYWOc5tNSytaXXYxGI4793OvXNzbeSNjX03pvYum5V3zVH9sbaVrHdLIEIEFAoOfWaSoCCgUGz4KuIsCIhxBbSzkEbxBvfvhX7fsnGY6MvSExO9HoyVtr1lw/xap4M4m7VSz6trrZw9nL/AMI/6wvutWaWqevm7Uz6tqNGs7kf9YItes0rU9fN2pnVbTR7O5H/AFg7rVmlanr5u1M+raaNZ3I4Qd1qzStR183aoz6tpo1ncjhBFrVelajr5u1TnVbTRrO5HCDutWaVqOvl7VGfVtNGs7kcIO61XpWo6+XtTPq2mjWdyOEHdar0pUdfL2pn1bTRrO5HCDutV6UqOvl7Uz6tpo1ncjhB3Vq9KVHXy9qZ9W00azuRwg7q1elKjr5e1M+raaNZ3I4Qd1avSlR18vamfVtNGs7kcIO6tXpOo6+XtTPq2mjWdyOEEWrV6TqOul7Uz6tpo1ncjhB3Uq9J1HXS9qZ9W00azuRwg7qVWk6jrpe1M+rajRrO5HCCLUqtJz9dL2qM+raaNZ3I4Q06ypHOsQOfI57n0cpLnEucTiu4SVfonLa+jlMRTFPSOSmMkZ0ejKAtc7JYFAoEIFBz6zSUCoCCg2fBbzfj6JP83q/b9l9HG433jPzR6MZYd4cyoOynvWCIWQIKBCBQIKBCDq+5/YLaupc+aIPp6Bt7mu/LJKfysPo4SeYcq9rFvOqyz3Q1XS2MmxaimicldXlHxn04v3d0bB6OnMVTTUzY4pj3uVjBisbJwtcAOC8XjnA5VliLcU/mjuV+hsdVdy2rk5ao7Yy7PjwcSqzerBAoFAoEFAoFBrFi+Qm9Cl+Tlfo9j9HHYr3lPzR6MpC17sVkCCgUDeg58LNJQKBUDaMFvN+Pok/zer9v2X0cbjfeM/NHoxhvAOZUHZT3rAoEIhZAgoEIFBZoJIAaSXG4Ab5JPAAh3d7ZLLgjsmysaUDGp4zLNcfz1DrvEB58Vo5gr9MRat9rjL9dWPxmSnumckeER8fWTZtRHa9lESXB9TGYpsUb0dQ39QHPiuHOFNMxdt9qL1FWAxmWnuicseMf72SyGpgfFI+KRmLJTvcx45HA3H2LXzGSckuyorprpiununth81DJYIFAoFAgoFBrNieQm9Cl+lyv0ex+jjsV7yn5o9GUNK17sSgsgQUCg59ZpIKBQKDaMFvN+Pok/wA3q9b9k43G+8Z+aPRjDDvDmVB2c96yIIKBCIKD2qLBW05mtdFZEhZKAWueY4gWnj8cjeXpFque6FO50hhbczFVcZY/mf6yvYpu5zaTvzvgiB4caRznD2NBHvWcYeuVOvpzDR3ZZ+nOXRYPdz38PURTz17ZvwrsdsTYy1pfd4pLieI7/BwgL1ow+bOWZa/F9Ndbam3RTky/HL8Hm91K2ceSOiY/xaa6We7jkI8Rh5gb/wDuHIsMTX25sLPQeFzaZv1d89kfx8Z9OL8Xc1tjvFYYHvuitS5ov4Gzj8h9u+NVY4evJVk+EvfpnC9bY6yP+VH9fHh38XU4UYDisqDURVogfK1okaY8dr3DeDrwRv3XD2L2uWM6csTkarA9Lzh7XV1U50R3duRzVR3Oq9v+XPBKP6nsd/Yi73rxnDVfBtKOnMPP/KJjhPq8upwRtOO8usp7g3jjdHJePQGm/wBywmzXHwW6Ok8JX3V9vjlj++x4q8l4oFAoEFBrNieQm9Cm+lyv0ex+jjsV7yn5o9GUBUHYkFQFBZBEHgBZpKBBQKDacFfN+Pok/wA3q9b9l9HG433jPzR6MXZwDmCoOznvWBRBQIKCEXgjlCES23A/CmKvixTdHU07R32HiI4Mdn8vy/sTsLV2K48XE9IdH14WvL30T3T6T4/28rDa37VoZAY4YPwsxuZP3t7nB38D/GuB9m/7lheuV0T2dy30bg8JiaclUz1kd8ZY4x2f+OJqMMrVfffa72g8UbIo7uYtF/vVeb1c/FvKOi8JT3UcZmfV4skjnuc58he+QlznOJc5zjwkk8a8sq7TTFMZIjJEI1xBBBuLTeCN4g8qJe1T4W2pHdi2xIQP9QRy3+14JXpF6uPipV9G4Srvtx9Msf1kdbglhLa9bMGCOB0MRHf5nxuGIOQXEAuPIve1cuVTk+DUdIYDB4e3nZZiqe6Mvf5dzqcJcIIaCHHkONJLeIYQfGkd/wCmjjP/AAF7XLkURllqcFgq8VXm09lMd87Pv4MWnmMkkkjrsaoe57rt4YznEm70b610zlnK7iimKaYpjuiMnBUKGRQKBQa1YnkJvQpvpcr9Hsfo47Fe8p+aPRk4VB2JQIKgKBvQeACs0kIFAgoNqwV834+iT/N6vW/ZfRxuN94z80ejFmcA5lQdnPesiCCgUCCg+9HVSQyMlhmMcsDsZj28IPZ6OAqYmYnLDC5bpuUzRXGWmWvYMYR01q076ephZ3/Eungd+SVn+oz0e9p9hN63ci5GSe9yONwVzA3IuW5/L8J2eE/72+TgsMsFX0EmMwl9JUOuiefzMddf3t/p3jceO5VbtqaJy/BvujukKcVTknsuR3xt8Yc4F5NkUHs4MYPzV82Iw4kUNxnlO/iNPAAONxuN3MvS3bmuezuU8bjaMLbzqu2qe6Nv2aZalo0djUbI44hjEEQwA+PK/je88nK7/gK3VVTapyQ5ixYv9I35qqns+M7PCPSGUWnaM1VM+aeXHkl1Wt4mtHEByKjVVNU5ZddYsUWaIt24yRH+5Z8X5QsXqUFggUCg1uxPILehTfS5X6PY/Rx2K95T80ejJWlUHYrIEIEKAoOfWaVgUCECg2vBXzej6HP83q9b9l9HG433jPzR6MVZwDmCouznvWRBUBBQKBBQexghC6S06FrXlrvxDXXtJBxWAvcLxyta4e1elqMtcKePrinC3JntjJ/fZHnLuu65V3U9LCDv1EzpD/Sxt3zkCsYmeyIaPoC3lu117IycZ+zN6GklnkEUFO6WV/AxgvN3KeQek7yqRTMzkh0ly5Rbpz65yUvraVm1FK8R1NI6F7he0OuucOVrhvH2KaqZp7JY2b9u9TnW6s6HadyWqunq4b/8+JkrR/Q4g/WF74ae2YaXp+3lt0V7JmOP/jyu6PC5lqSlzyRURRSMvJOKzFxbh6MZjv7lYYiPzrnQ9UVYOnJ8JmPr3/1MOZXi2aygQIFBYIFBrdieQW9Cm+lyv0ex+jjsV7yn5o9GShUHYrAoFAoFBz4KyZFELBAhBteCnm9H0Of5vV637JxuN94z80ejFWHeHMFRdnPesiCgVAQUCg7XuUUmPXySkb1DTn2Pe4Ae4PVjDxlqytL07czcPFG9P9f7DqsKMFJrRr43STiGjo4QzGbc6aR5cS7FHAN7F3zycBXtctTXV29zV4LpGjCYeYpjOuVT9Ij4ZfPm/bNVWXYsGIA2NzxeImePUzkfqPGec3ALKZotQ8KbeK6QuZZ7Y290R/vh2q2Zbtm2tEYZI2l7xe6lnuEm9+ph4+cb49Cimui5GSU3sJicDX1lM9m9Hryl+GzMDX0Now1FLP3ymfjsljkN0sTHNN1x4HDGDfTzrGmzNFeWO5Yv9KU4nC1WrsZK+yYmO6cn9dmX7PM7rdJ41HOB+YSQuPNc5v8A9rDEx3StdAXOyu3/ABPpPoz4FVXQlBZQIECgsEGuWH5Bb0Kb6XLYUex+jjsV7yn5o9GSNWvdisgQUCgb0HPhZJIKJKIWCDbMFPN6Poc/zer1v2Tjcb7xn5o9GJs4BzBUXZz3rgogoFAqAgoNB7l1rUVPHVioro4JJXscDM5rA+JrTcGk8JvLt70hWsPVTETlc/01h792qjq6ZqpjL3dvb/uR98Je6OTjRWc24b4NVI3f/wDGw/M/240uYj4UscH0Jk/PiP8ArHrPLiz6ed8j3PkldJJKb3veS5zj6SVWmcvbLoKaaaaYppjJEKtcQQQ4gsIIcCQQRwEHlUJmMvZLusGu6HNFix1wM8XAJ2/57B/MP1D386s28RMdlXa0eM6For/NY/LVs+H02f1/D0e6JblBU0EbYK+OaV0zJGNjIL2i4gl44W7x4DcVlfrpqo7JV+iMJiLOIma6ZppyTE5fTb9Gbqo6QgoFAqAhAoNesPyC3oM30uV+j2P0cdiveU/NHoyNqoOxlYIFAgoFBz6yZEIggokoht2Cnm9F0Of5vV637JxuN94z80ejEozvDmCouznvXRBBQKBQKgIKBQIKBCIWQIKBCBQIKBQKgIQa9YfkBvQZvpcthR7L6OOxXvKfmj0ZG1a92SyIIQKCIPABWTIoEIggolt2Cfm7F0Of5vV637JxmN94z80ejEozvDmCouznvXBRBQd33OcG6GuhqXVcJe6nmaxhEskdzSwH9JHGrFm3TVE5Wk6Wx1/D10xanJExsifj4uvyfWNmjv3E+0vbqKGp1xjNv+McnI90TByhooqZ1JCWOqJXNeTJJJe0NvH5iV43rdNMRkbbonG38RXVF2csRGyI+Pg4ylYHSxtcN6SRjXcW8XAFV4725rmYpmY78kti8ALHzR37ibaV7qKHH64xm9/jHJPAGx80d+4m2k6i2a4xm9/jHI+AVj5o79xN2p1Fs1xjN7/GOSeAVj5o79xN2p1Fs1xjN7/GOR8ArHzR3XzdqdRbNcYze8o5J4B2Rmjuvm7U6i2a4xm95RyTwEsjNXdfN2p1Fs1xjN7yjk8HDbBez6WhdNTQFsrZI2gmWR+8XXHeJuXldtUU05YX+jekMRfxEUXJy05J+EQz4FVXREIFQNfsLyA3oM30uWwo9l9HHYr3lPzR6MiC17slgiCgQgUHPhZMiCgUCEQ2/BPzdi6HP83q9b9k43He8Z+aPRiLOAcwVF2c964KIIKCry39RHtuRMZfgmNHyt9yhl+Zdhb+kj2XKWM5fiuiFMaP+JvuUM8lRDmcrfciMlRxmcrfch+ZYOZyt9yGSogs5W+5EfmXxR/CERlkho/hCGWVgAOJDKsiCCgUGwWF5Ab0Gb6XK/R7L6OOxXvKfmj0ZC1a92RRCwQKCIOfWTJYIEFAoNwwT83Yuhz/ADer1v2TjMd7xn5o9GHxnxRzBUXaT3roxWBQd53N8ILPo4altbOGOnma5gMb5L2hgHEDxqxZrppic5o+lsJfv10zZjLER29sR8XY+HFh5439vNsr26621Oqsbu+cc3H90a36Cripm0c4e6CV7ngRvjuaW3DhA4143q6aojNbbonCX7FdU3oyRMdnbE/FxdK8Nlic78rJGOdx+KHAlV4726riZomI78ktl8N7Ezxv7ebZV7rrbj9V43d845p4bWJnjf282ynXWzVWN3fOOaeG1iZ439vNsp11vaaqxu75xzTw2sTPG/t5tlOutmq8bu+cc347bwusiWjq44qpplqKaZkY7xK297oyGi8t5SFjXdommYh7Ybo3GUX6Kqo/LExM9sd2X+WThUnWLIggoEIFAgoNgsLyA3oM30uV+j2X0cdiveU/NHoyEcC17siEQUFggiDnwVkyKCwQIKDcMEvN2LodR83q9b9k4zHe8Z+aPRh8f5RzBUXZz3rgoFELBAgoFAgoFAoFQEFAoEFAhELIEFAhAoNhsLzfb0Gb6XK/R7L6OOxXvKfmj0ZA1UHZFQghAoFBz6yZEFAoLBBu2AsPfLBpY8a78RTyx43DdjOeL7var9uMtuHE9I1ZuPqq2THo5lvcjuA/x/g/6f715aN4tnP/AND+35/Y5JPX/wAP96aN4o/EH7fn9jkl9ffD/cmjeJ+IP2/P7Jkl9ffD/cmjeJ+IP2/P7HJN6++H+5NG8T8Qft+f2OSf198P9yaN4n4g/b8/smSf178P9yaN4n4g/b8/sclHr34f7k0bxPxB+35/ZMlPr34f7k0bxPxB+35/Y5KfXvw/3Jo3ifiD9vz+yZKvXvw/3Jo3ifiD9vz+xyV+vPh/uTRvE/EH7fn9kyV+vP8AY+5NG8T8Qft+f2cbhLZH4GrfTfiO+96ax2Pi4l+M2/gvKr3KM2rI3GDxOk2Yu5MmXL4vLCwWlkHT4IYJ7oxzP/H95/Cvay7vffMa9t9/CF7WrWfHe1nSHSWiVU05udljbk5ugyX+u/8AY+5emjeLX/iD9vz+zqxZ/wCFsmSn793z8JRzNx7sXG8Rxvu3+Ve+bm28ng1XXdfjIuZMmWqP7Yi0rXO5KIKgIQKDnwsmRQIKBQetZmEloUsfe6a1JIo7y7vYxXNBPDcHA3exZRXVT2RKrewdi9VnXKImf92P2eG1sadl1YdlT1te15aswn6cefM+G1sacl1YdlOtr2p1ZhP048+ZGGtr6dl1YdlOtr2o1ZhP048+Z8NbX05Lqw7Knra9qdWYT9OPPmfDS19OS6sOynW17Uaswn6cefNBhpa+nJdWHZTra9qdWYT9OPPmRhna+nJdWHZTra9qNWYT9OPPmfDO19OS6sOynW17TVmE/Tjz5kYZ2tpyXVh2U62vanVuE/Tjz5nwytbTkurDsp1te01bhP048+aeGVracl1YdlOur2mrcJ+nHnzW8MrW03Jqw7KdbXtRqzCfpx580GGNrabk1YdlOur2mrMJ+nHnzeZX101RIZaioMsrwAXuDQSALhwXBedVUzOWVq1aotU5luMlL4AqHoQiHo2ZbdZStc2mrnQtmIc8NDDjEC6/fBWVNdVPdLwvYWzemJu05Zj+X7RhhaumZNWLsWXXV7XjqzCfpx583yq8JbRmjdHNasj45Rc9niNDhyHFAN3oUTcqmMkyzt4HDW6oqooiJj+fV5awWiCgUCoCg59ZMiECgQUFkQUSQUCgQiCCiSiFggQgUCCgUCgVAQUCgQUCEQsgQUCECgQUCgb0HPhSyKBCBQIKBQWCBBQKBCIIKJKIWCBCBQIKBQKBUBBQKBBQIRCyBBQIQKBBQKgc+s0kKElAhAoEFAoLBAgoFAhEEFElELBAgoFAgoFAoFQEFAoEFAhELIEFAhAoJeg8AFZJKBChJQIQKBBQKCwQIKBQIRBBRJRCwQN6BQIKBQKBUBBQKBBQIRCyBBQIQN6Dn1klZBAoSspQihKwQRBZAhAoEIEIFBYIghAoEIFAoFQFSFQLBBEFkQQiSiCgiD//2Q==;fontSize=15;fontStyle=1" vertex="1" parent="dCbXYARRjmfmnTsoq2Sv-2">
          <mxGeometry x="20" y="220" width="90" height="90" as="geometry" />
        </mxCell>
        <mxCell id="dCbXYARRjmfmnTsoq2Sv-85" value="&lt;font style=&quot;font-size: 15px;&quot;&gt;&lt;b&gt;CloudFront&lt;/b&gt;&lt;/font&gt;" style="sketch=0;points=[[0,0,0],[0.25,0,0],[0.5,0,0],[0.75,0,0],[1,0,0],[0,1,0],[0.25,1,0],[0.5,1,0],[0.75,1,0],[1,1,0],[0,0.25,0],[0,0.5,0],[0,0.75,0],[1,0.25,0],[1,0.5,0],[1,0.75,0]];outlineConnect=0;fontColor=#232F3E;fillColor=#8C4FFF;strokeColor=#ffffff;dashed=0;verticalLabelPosition=bottom;verticalAlign=top;align=center;html=1;fontSize=12;fontStyle=0;aspect=fixed;shape=mxgraph.aws4.resourceIcon;resIcon=mxgraph.aws4.cloudfront;" vertex="1" parent="dCbXYARRjmfmnTsoq2Sv-2">
          <mxGeometry x="32" y="360" width="78" height="78" as="geometry" />
        </mxCell>
        <mxCell id="dCbXYARRjmfmnTsoq2Sv-89" value="" style="endArrow=classic;startArrow=classic;html=1;rounded=0;fontSize=13;strokeWidth=3;" edge="1" parent="dCbXYARRjmfmnTsoq2Sv-2" source="dCbXYARRjmfmnTsoq2Sv-85" target="dCbXYARRjmfmnTsoq2Sv-82">
          <mxGeometry width="50" height="50" relative="1" as="geometry">
            <mxPoint x="-125" y="410" as="sourcePoint" />
            <mxPoint x="42" y="409" as="targetPoint" />
          </mxGeometry>
        </mxCell>
        <mxCell id="dCbXYARRjmfmnTsoq2Sv-113" style="edgeStyle=orthogonalEdgeStyle;rounded=0;orthogonalLoop=1;jettySize=auto;html=1;endArrow=none;startFill=0;strokeWidth=2;dashed=1;" edge="1" parent="dCbXYARRjmfmnTsoq2Sv-2" source="dCbXYARRjmfmnTsoq2Sv-111">
          <mxGeometry relative="1" as="geometry">
            <mxPoint x="210" y="129" as="targetPoint" />
          </mxGeometry>
        </mxCell>
        <mxCell id="dCbXYARRjmfmnTsoq2Sv-111" value="&lt;b&gt;CloudWatch&amp;nbsp;&lt;/b&gt;&lt;div&gt;&lt;b&gt;Alarm&lt;/b&gt;&lt;/div&gt;" style="sketch=0;outlineConnect=0;fontColor=#232F3E;gradientColor=none;fillColor=#E7157B;strokeColor=none;dashed=0;verticalLabelPosition=bottom;verticalAlign=top;align=center;html=1;fontSize=12;fontStyle=0;aspect=fixed;pointerEvents=1;shape=mxgraph.aws4.alarm;" vertex="1" parent="dCbXYARRjmfmnTsoq2Sv-2">
          <mxGeometry x="26" y="90" width="78" height="78" as="geometry" />
        </mxCell>
        <mxCell id="dCbXYARRjmfmnTsoq2Sv-118" value="&lt;b&gt;CloudWatch Logs&lt;/b&gt;" style="sketch=0;outlineConnect=0;fontColor=#232F3E;gradientColor=none;fillColor=#E7157B;strokeColor=none;dashed=0;verticalLabelPosition=bottom;verticalAlign=top;align=center;html=1;fontSize=12;fontStyle=0;aspect=fixed;pointerEvents=1;shape=mxgraph.aws4.cloudwatch_logs;" vertex="1" parent="dCbXYARRjmfmnTsoq2Sv-2">
          <mxGeometry x="20" y="690" width="78" height="58" as="geometry" />
        </mxCell>
        <mxCell id="dCbXYARRjmfmnTsoq2Sv-5" value="" style="points=[[0.35,0,0],[0.98,0.51,0],[1,0.71,0],[0.67,1,0],[0,0.795,0],[0,0.65,0]];verticalLabelPosition=bottom;sketch=0;html=1;verticalAlign=top;aspect=fixed;align=center;pointerEvents=1;shape=mxgraph.cisco19.user;fillColor=#000000;strokeColor=none;" vertex="1" parent="1">
          <mxGeometry x="-600" y="498" width="105" height="105" as="geometry" />
        </mxCell>
        <mxCell id="dCbXYARRjmfmnTsoq2Sv-8" value="&lt;font style=&quot;color: rgb(0, 0, 0);&quot;&gt;Public Subnet&lt;/font&gt;" style="points=[[0,0],[0.25,0],[0.5,0],[0.75,0],[1,0],[1,0.25],[1,0.5],[1,0.75],[1,1],[0.75,1],[0.5,1],[0.25,1],[0,1],[0,0.75],[0,0.5],[0,0.25]];outlineConnect=0;html=1;whiteSpace=wrap;fontSize=12;fontStyle=1;container=1;pointerEvents=0;collapsible=0;recursiveResize=0;shape=mxgraph.aws4.group;grIcon=mxgraph.aws4.group_security_group;grStroke=0;strokeColor=#005700;fillColor=none;verticalAlign=top;align=center;spacingLeft=30;fontColor=#ffffff;dashed=0;strokeWidth=3;perimeterSpacing=1;" vertex="1" parent="1">
          <mxGeometry x="-80" y="260" width="230" height="622.5" as="geometry" />
        </mxCell>
        <mxCell id="dCbXYARRjmfmnTsoq2Sv-54" value="Auto Scaling group" style="points=[[0,0],[0.25,0],[0.5,0],[0.75,0],[1,0],[1,0.25],[1,0.5],[1,0.75],[1,1],[0.75,1],[0.5,1],[0.25,1],[0,1],[0,0.75],[0,0.5],[0,0.25]];outlineConnect=0;gradientColor=none;html=1;whiteSpace=wrap;fontSize=12;fontStyle=0;container=1;pointerEvents=0;collapsible=0;recursiveResize=0;shape=mxgraph.aws4.groupCenter;grIcon=mxgraph.aws4.group_auto_scaling_group;grStroke=1;strokeColor=#D86613;fillColor=none;verticalAlign=top;align=center;fontColor=#D86613;dashed=1;spacingTop=25;strokeWidth=3;" vertex="1" parent="dCbXYARRjmfmnTsoq2Sv-8">
          <mxGeometry x="20" y="32.5" width="200" height="590" as="geometry" />
        </mxCell>
        <mxCell id="dCbXYARRjmfmnTsoq2Sv-69" value="Presentation Tier" style="rounded=0;whiteSpace=wrap;html=1;fillColor=none;verticalAlign=top;strokeColor=#FF8000;" vertex="1" parent="dCbXYARRjmfmnTsoq2Sv-54">
          <mxGeometry x="20" y="57.5" width="150" height="112.5" as="geometry" />
        </mxCell>
        <mxCell id="dCbXYARRjmfmnTsoq2Sv-70" value="Presentation Tier" style="rounded=0;whiteSpace=wrap;html=1;fillColor=none;verticalAlign=top;strokeColor=#FF8000;strokeWidth=2;" vertex="1" parent="dCbXYARRjmfmnTsoq2Sv-54">
          <mxGeometry x="20" y="367.5" width="150" height="112.5" as="geometry" />
        </mxCell>
        <mxCell id="dCbXYARRjmfmnTsoq2Sv-66" value="" style="shape=image;verticalLabelPosition=bottom;labelBackgroundColor=default;verticalAlign=top;aspect=fixed;imageAspect=0;editableCssRules=.*;image=data:image/svg+xml,PHN2ZyB4bWxucz0iaHR0cDovL3d3dy53My5vcmcvMjAwMC9zdmciIHZpZXdCb3g9Ii0wLjAwMDAyMjg4ODE4MzU5Mzc1IDMyLjAxMjQ4NTUwNDE1MDM5IDUxMS45OTk5Njk0ODI0MjE5IDQ0OC4wMjM4OTUyNjM2NzE5IiB3aWR0aD0iNTExLjk5OTk2OTQ4MjQyMTkiIGhlaWdodD0iNDQ4LjAyMzg5NTI2MzY3MTkiPjxwYXRoIGQ9Im00MTguMiAxNzcuMmMtNS40LTEuOC0xMC44LTMuNS0xNi4yLTUuMS45LTMuNyAxLjctNy40IDIuNS0xMS4xIDEyLjMtNTkuNiA0LjItMTA3LjUtMjMuMS0xMjMuMy0yNi4zLTE1LjEtNjkuMi42LTExMi42IDM4LjQtNC4zIDMuNy04LjUgNy42LTEyLjUgMTEuNS0yLjctMi42LTUuNS01LjItOC4zLTcuNy00NS41LTQwLjQtOTEuMS01Ny40LTExOC40LTQxLjUtMjYuMiAxNS4yLTM0IDYwLjMtMjMgMTE2LjcgMS4xIDUuNiAyLjMgMTEuMSAzLjcgMTYuNy02LjQgMS44LTEyLjcgMy44LTE4LjYgNS45LTUzLjQgMTguNS05MS43IDQ3LjctOTEuNyA3Ny45IDAgMzEuMiA0MC44IDYyLjUgOTYuMyA4MS41IDQuNSAxLjUgOSAzIDEzLjYgNC4zLTEuNSA2LTIuOCAxMS45LTQgMTgtMTAuNSA1NS41LTIuMyA5OS41IDIzLjkgMTE0LjYgMjcgMTUuNiA3Mi40LS40IDExNi42LTM5LjEgMy41LTMuMSA3LTYuMyAxMC41LTkuNyA0LjQgNC4zIDkgOC40IDEzLjYgMTIuNCA0Mi44IDM2LjggODUuMSA1MS43IDExMS4yIDM2LjYgMjctMTUuNiAzNS44LTYyLjkgMjQuNC0xMjAuNS0uOS00LjQtMS45LTguOS0zLTEzLjUgMy4yLS45IDYuMy0xLjkgOS40LTIuOSA1Ny43LTE5LjEgOTkuNS01MCA5OS41LTgxLjcgMC0zMC4zLTM5LjQtNTkuNy05My44LTc4LjR6bS0xMzUuMy04NC45YzM3LjItMzIuNCA3MS45LTQ1LjEgODcuNy0zNiAxNi45IDkuNyAyMy40IDQ4LjkgMTIuOCAxMDAuNC0uNyAzLjQtMS40IDYuNy0yLjMgMTAtMjIuMi01LTQ0LjctOC42LTY3LjMtMTAuNi0xMy0xOC42LTI3LjItMzYuNC00Mi42LTUzLjEgMy45LTMuNyA3LjctNy4yIDExLjctMTAuN3ptLTExNS43IDIxNS4yYzUuMSA4LjcgMTAuMyAxNy40IDE1LjggMjUuOS0xNS42LTEuNy0zMS4xLTQuMi00Ni40LTcuNSA0LjQtMTQuNCA5LjktMjkuMyAxNi4zLTQ0LjUgNC42IDguOCA5LjMgMTcuNSAxNC4zIDI2LjF6bS0zMC4zLTEyMC4zYzE0LjQtMy4yIDI5LjctNS44IDQ1LjYtNy44LTUuMyA4LjMtMTAuNSAxNi44LTE1LjQgMjUuNC00LjkgOC41LTkuNyAxNy4yLTE0LjIgMjYtNi4zLTE0LjktMTEuNi0yOS41LTE2LTQzLjZ6bTI3LjQgNjguOWM2LjYtMTMuOCAxMy44LTI3LjMgMjEuNC00MC42czE1LjgtMjYuMiAyNC40LTM4LjljMTUtMS4xIDMwLjMtMS43IDQ1LjktMS43czMxIC42IDQ1LjkgMS43YzguNSAxMi42IDE2LjYgMjUuNSAyNC4zIDM4LjdzMTQuOSAyNi43IDIxLjcgNDAuNGMtNi43IDEzLjgtMTMuOSAyNy40LTIxLjYgNDAuOC03LjYgMTMuMy0xNS43IDI2LjItMjQuMiAzOS0xNC45IDEuMS0zMC40IDEuNi00Ni4xIDEuNnMtMzAuOS0uNS00NS42LTEuNGMtOC43LTEyLjctMTYuOS0yNS43LTI0LjYtMzlzLTE0LjgtMjYuOC0yMS41LTQwLjZ6bTE4MC42IDUxLjJjNS4xLTguOCA5LjktMTcuNyAxNC42LTI2LjcgNi40IDE0LjUgMTIgMjkuMiAxNi45IDQ0LjMtMTUuNSAzLjUtMzEuMiA2LjItNDcgOCA1LjQtOC40IDEwLjUtMTcgMTUuNS0yNS42em0xNC40LTc2LjVjLTQuNy04LjgtOS41LTE3LjYtMTQuNS0yNi4yLTQuOS04LjUtMTAtMTYuOS0xNS4zLTI1LjIgMTYuMSAyIDMxLjUgNC43IDQ1LjkgOC00LjYgMTQuOC0xMCAyOS4yLTE2LjEgNDMuNHptLTEwMy4xLTExMi41YzEwLjUgMTEuNCAyMC40IDIzLjQgMjkuNiAzNS44LTE5LjgtLjktMzkuNy0uOS01OS41IDAgOS44LTEyLjkgMTkuOS0yNC45IDI5LjktMzUuOHptLTExNi02MS4zYzE2LjgtOS44IDU0LjEgNC4yIDkzLjQgMzkgMi41IDIuMiA1IDQuNiA3LjYgNy0xNS41IDE2LjctMjkuOCAzNC41LTQyLjkgNTMuMS0yMi42IDItNDUgNS41LTY3LjIgMTAuNC0xLjMtNS4xLTIuNC0xMC4zLTMuNS0xNS41LTkuNC00OC40LTMuMi04NC45IDEyLjYtOTR6bS0yNC41IDI2My42Yy00LjItMS4yLTguMy0yLjUtMTIuNC0zLjktMjEuMy02LjctNDUuNS0xNy4zLTYzLTMxLjItMTAuMS03LTE2LjktMTcuOC0xOC44LTI5LjkgMC0xOC4zIDMxLjYtNDEuNyA3Ny4yLTU3LjYgNS43LTIgMTEuNS0zLjggMTcuMy01LjUgNi44IDIxLjcgMTUgNDMgMjQuNSA2My42LTkuNiAyMC45LTE3LjkgNDIuNS0yNC44IDY0LjV6bTExNi42IDk4Yy0xNi41IDE1LjEtMzUuNiAyNy4xLTU2LjQgMzUuMy0xMS4xIDUuMy0yMy45IDUuOC0zNS4zIDEuMy0xNS45LTkuMi0yMi41LTQ0LjUtMTMuNS05MiAxLjEtNS42IDIuMy0xMS4yIDMuNy0xNi43IDIyLjQgNC44IDQ1IDguMSA2Ny45IDkuOCAxMy4yIDE4LjcgMjcuNyAzNi42IDQzLjIgNTMuNC0zLjIgMy4xLTYuNCA2LjEtOS42IDguOXptMjQuNS0yNC4zYy0xMC4yLTExLTIwLjQtMjMuMi0zMC4zLTM2LjMgOS42LjQgMTkuNS42IDI5LjUuNiAxMC4zIDAgMjAuNC0uMiAzMC40LS43LTkuMiAxMi43LTE5LjEgMjQuOC0yOS42IDM2LjR6bTEzMC43IDMwYy0uOSAxMi4yLTYuOSAyMy42LTE2LjUgMzEuMy0xNS45IDkuMi00OS44LTIuOC04Ni40LTM0LjItNC4yLTMuNi04LjQtNy41LTEyLjctMTEuNSAxNS4zLTE2LjkgMjkuNC0zNC44IDQyLjItNTMuNiAyMi45LTEuOSA0NS43LTUuNCA2OC4yLTEwLjUgMSA0LjEgMS45IDguMiAyLjcgMTIuMiA0LjkgMjEuNiA1LjcgNDQuMSAyLjUgNjYuM3ptMTguMi0xMDcuNWMtMi44LjktNS42IDEuOC04LjUgMi42LTctMjEuOC0xNS42LTQzLjEtMjUuNS02My44IDkuNi0yMC40IDE3LjctNDEuNCAyNC41LTYyLjkgNS4yIDEuNSAxMC4yIDMuMSAxNSA0LjcgNDYuNiAxNiA3OS4zIDM5LjggNzkuMyA1OCAwIDE5LjYtMzQuOSA0NC45LTg0LjggNjEuNHptLTE0OS43LTE1YzI1LjMgMCA0NS44LTIwLjUgNDUuOC00NS44cy0yMC41LTQ1LjgtNDUuOC00NS44LTQ1LjggMjAuNS00NS44IDQ1LjggMjAuNSA0NS44IDQ1LjggNDUuOHoiLz48L3N2Zz4=;" vertex="1" parent="dCbXYARRjmfmnTsoq2Sv-54">
          <mxGeometry x="72.14999999999998" y="83.5" width="45.71" height="40" as="geometry" />
        </mxCell>
        <mxCell id="dCbXYARRjmfmnTsoq2Sv-71" value="" style="shape=image;verticalLabelPosition=bottom;labelBackgroundColor=default;verticalAlign=top;aspect=fixed;imageAspect=0;editableCssRules=.*;image=data:image/svg+xml,PHN2ZyB4bWxucz0iaHR0cDovL3d3dy53My5vcmcvMjAwMC9zdmciIHZpZXdCb3g9Ii0wLjAwMDAyMjg4ODE4MzU5Mzc1IDMyLjAxMjQ4NTUwNDE1MDM5IDUxMS45OTk5Njk0ODI0MjE5IDQ0OC4wMjM4OTUyNjM2NzE5IiB3aWR0aD0iNTExLjk5OTk2OTQ4MjQyMTkiIGhlaWdodD0iNDQ4LjAyMzg5NTI2MzY3MTkiPjxwYXRoIGQ9Im00MTguMiAxNzcuMmMtNS40LTEuOC0xMC44LTMuNS0xNi4yLTUuMS45LTMuNyAxLjctNy40IDIuNS0xMS4xIDEyLjMtNTkuNiA0LjItMTA3LjUtMjMuMS0xMjMuMy0yNi4zLTE1LjEtNjkuMi42LTExMi42IDM4LjQtNC4zIDMuNy04LjUgNy42LTEyLjUgMTEuNS0yLjctMi42LTUuNS01LjItOC4zLTcuNy00NS41LTQwLjQtOTEuMS01Ny40LTExOC40LTQxLjUtMjYuMiAxNS4yLTM0IDYwLjMtMjMgMTE2LjcgMS4xIDUuNiAyLjMgMTEuMSAzLjcgMTYuNy02LjQgMS44LTEyLjcgMy44LTE4LjYgNS45LTUzLjQgMTguNS05MS43IDQ3LjctOTEuNyA3Ny45IDAgMzEuMiA0MC44IDYyLjUgOTYuMyA4MS41IDQuNSAxLjUgOSAzIDEzLjYgNC4zLTEuNSA2LTIuOCAxMS45LTQgMTgtMTAuNSA1NS41LTIuMyA5OS41IDIzLjkgMTE0LjYgMjcgMTUuNiA3Mi40LS40IDExNi42LTM5LjEgMy41LTMuMSA3LTYuMyAxMC41LTkuNyA0LjQgNC4zIDkgOC40IDEzLjYgMTIuNCA0Mi44IDM2LjggODUuMSA1MS43IDExMS4yIDM2LjYgMjctMTUuNiAzNS44LTYyLjkgMjQuNC0xMjAuNS0uOS00LjQtMS45LTguOS0zLTEzLjUgMy4yLS45IDYuMy0xLjkgOS40LTIuOSA1Ny43LTE5LjEgOTkuNS01MCA5OS41LTgxLjcgMC0zMC4zLTM5LjQtNTkuNy05My44LTc4LjR6bS0xMzUuMy04NC45YzM3LjItMzIuNCA3MS45LTQ1LjEgODcuNy0zNiAxNi45IDkuNyAyMy40IDQ4LjkgMTIuOCAxMDAuNC0uNyAzLjQtMS40IDYuNy0yLjMgMTAtMjIuMi01LTQ0LjctOC42LTY3LjMtMTAuNi0xMy0xOC42LTI3LjItMzYuNC00Mi42LTUzLjEgMy45LTMuNyA3LjctNy4yIDExLjctMTAuN3ptLTExNS43IDIxNS4yYzUuMSA4LjcgMTAuMyAxNy40IDE1LjggMjUuOS0xNS42LTEuNy0zMS4xLTQuMi00Ni40LTcuNSA0LjQtMTQuNCA5LjktMjkuMyAxNi4zLTQ0LjUgNC42IDguOCA5LjMgMTcuNSAxNC4zIDI2LjF6bS0zMC4zLTEyMC4zYzE0LjQtMy4yIDI5LjctNS44IDQ1LjYtNy44LTUuMyA4LjMtMTAuNSAxNi44LTE1LjQgMjUuNC00LjkgOC41LTkuNyAxNy4yLTE0LjIgMjYtNi4zLTE0LjktMTEuNi0yOS41LTE2LTQzLjZ6bTI3LjQgNjguOWM2LjYtMTMuOCAxMy44LTI3LjMgMjEuNC00MC42czE1LjgtMjYuMiAyNC40LTM4LjljMTUtMS4xIDMwLjMtMS43IDQ1LjktMS43czMxIC42IDQ1LjkgMS43YzguNSAxMi42IDE2LjYgMjUuNSAyNC4zIDM4LjdzMTQuOSAyNi43IDIxLjcgNDAuNGMtNi43IDEzLjgtMTMuOSAyNy40LTIxLjYgNDAuOC03LjYgMTMuMy0xNS43IDI2LjItMjQuMiAzOS0xNC45IDEuMS0zMC40IDEuNi00Ni4xIDEuNnMtMzAuOS0uNS00NS42LTEuNGMtOC43LTEyLjctMTYuOS0yNS43LTI0LjYtMzlzLTE0LjgtMjYuOC0yMS41LTQwLjZ6bTE4MC42IDUxLjJjNS4xLTguOCA5LjktMTcuNyAxNC42LTI2LjcgNi40IDE0LjUgMTIgMjkuMiAxNi45IDQ0LjMtMTUuNSAzLjUtMzEuMiA2LjItNDcgOCA1LjQtOC40IDEwLjUtMTcgMTUuNS0yNS42em0xNC40LTc2LjVjLTQuNy04LjgtOS41LTE3LjYtMTQuNS0yNi4yLTQuOS04LjUtMTAtMTYuOS0xNS4zLTI1LjIgMTYuMSAyIDMxLjUgNC43IDQ1LjkgOC00LjYgMTQuOC0xMCAyOS4yLTE2LjEgNDMuNHptLTEwMy4xLTExMi41YzEwLjUgMTEuNCAyMC40IDIzLjQgMjkuNiAzNS44LTE5LjgtLjktMzkuNy0uOS01OS41IDAgOS44LTEyLjkgMTkuOS0yNC45IDI5LjktMzUuOHptLTExNi02MS4zYzE2LjgtOS44IDU0LjEgNC4yIDkzLjQgMzkgMi41IDIuMiA1IDQuNiA3LjYgNy0xNS41IDE2LjctMjkuOCAzNC41LTQyLjkgNTMuMS0yMi42IDItNDUgNS41LTY3LjIgMTAuNC0xLjMtNS4xLTIuNC0xMC4zLTMuNS0xNS41LTkuNC00OC40LTMuMi04NC45IDEyLjYtOTR6bS0yNC41IDI2My42Yy00LjItMS4yLTguMy0yLjUtMTIuNC0zLjktMjEuMy02LjctNDUuNS0xNy4zLTYzLTMxLjItMTAuMS03LTE2LjktMTcuOC0xOC44LTI5LjkgMC0xOC4zIDMxLjYtNDEuNyA3Ny4yLTU3LjYgNS43LTIgMTEuNS0zLjggMTcuMy01LjUgNi44IDIxLjcgMTUgNDMgMjQuNSA2My42LTkuNiAyMC45LTE3LjkgNDIuNS0yNC44IDY0LjV6bTExNi42IDk4Yy0xNi41IDE1LjEtMzUuNiAyNy4xLTU2LjQgMzUuMy0xMS4xIDUuMy0yMy45IDUuOC0zNS4zIDEuMy0xNS45LTkuMi0yMi41LTQ0LjUtMTMuNS05MiAxLjEtNS42IDIuMy0xMS4yIDMuNy0xNi43IDIyLjQgNC44IDQ1IDguMSA2Ny45IDkuOCAxMy4yIDE4LjcgMjcuNyAzNi42IDQzLjIgNTMuNC0zLjIgMy4xLTYuNCA2LjEtOS42IDguOXptMjQuNS0yNC4zYy0xMC4yLTExLTIwLjQtMjMuMi0zMC4zLTM2LjMgOS42LjQgMTkuNS42IDI5LjUuNiAxMC4zIDAgMjAuNC0uMiAzMC40LS43LTkuMiAxMi43LTE5LjEgMjQuOC0yOS42IDM2LjR6bTEzMC43IDMwYy0uOSAxMi4yLTYuOSAyMy42LTE2LjUgMzEuMy0xNS45IDkuMi00OS44LTIuOC04Ni40LTM0LjItNC4yLTMuNi04LjQtNy41LTEyLjctMTEuNSAxNS4zLTE2LjkgMjkuNC0zNC44IDQyLjItNTMuNiAyMi45LTEuOSA0NS43LTUuNCA2OC4yLTEwLjUgMSA0LjEgMS45IDguMiAyLjcgMTIuMiA0LjkgMjEuNiA1LjcgNDQuMSAyLjUgNjYuM3ptMTguMi0xMDcuNWMtMi44LjktNS42IDEuOC04LjUgMi42LTctMjEuOC0xNS42LTQzLjEtMjUuNS02My44IDkuNi0yMC40IDE3LjctNDEuNCAyNC41LTYyLjkgNS4yIDEuNSAxMC4yIDMuMSAxNSA0LjcgNDYuNiAxNiA3OS4zIDM5LjggNzkuMyA1OCAwIDE5LjYtMzQuOSA0NC45LTg0LjggNjEuNHptLTE0OS43LTE1YzI1LjMgMCA0NS44LTIwLjUgNDUuOC00NS44cy0yMC41LTQ1LjgtNDUuOC00NS44LTQ1LjggMjAuNS00NS44IDQ1LjggMjAuNSA0NS44IDQ1LjggNDUuOHoiLz48L3N2Zz4=;" vertex="1" parent="dCbXYARRjmfmnTsoq2Sv-54">
          <mxGeometry x="72.14999999999999" y="392.5" width="45.71" height="40" as="geometry" />
        </mxCell>
        <mxCell id="dCbXYARRjmfmnTsoq2Sv-73" value="" style="shape=image;verticalLabelPosition=bottom;labelBackgroundColor=default;verticalAlign=top;aspect=fixed;imageAspect=0;image=data:image/png,iVBORw0KGgoAAAANSUhEUgAAAOEAAAA+CAYAAADd23yAAAAAAXNSR0IArs4c6QAAAARnQU1BAACxjwv8YQUAAAAJcEhZcwAADsMAAA7DAcdvqGQAABEfSURBVHhe7Z0LbBVVGsePrIhYiuJ6EXBXKy5UHkEKFQoKWMjiKkUDyopSYnzwEBP1YkrAUBSBSNRQJUSLoKKUh1YguxQMRizQjVQFMVWQbiOUxS1CkdZtSwtYut//3DOl93Jn5py587jA/JJJ50zncV7/8533vayJYD4+Pp7RSvz18fHxCF+EPj4e44vQx8djfBH6+HiML0IfH4/xRejj4zG+CH18PMYXoY+Px/gi9PHxGF0RHqk9wo94oaqhKq78E08gbg79dog1nG0QV+TBM1aec5JY/ITn6n6vEy7vkfHPedPW3vj6DRb8LkhPiwtXMjaz20z2Svor4oK7fFH+BRtfOJ5V1lRydyAxwNamr2XDk4Zzt11sO7RNnDnL2aazrFO7TqzndT3FFet8VfEVyyrKYkVHi0IXrmBsbu+5bM6dc0JuA1Cgzdg2g+VV5JGnGOt2VTeWMyiHjeo2StzhPsh7b/74JiuvL+fmYUxgDJs/ZL5UXKEQmvb5NLb5yGYeHuSTt9LeYg/2eFDc4S4Q3vNbn2dLDy5l7DRdIB3Nu3Uemz10duiGFoSJcOhHQ1lRJSUoJWYYv9NxOWO1j9eyhMsTQtdcAMJI/0c6D0AYVEAU3FNgW4bZVLaJZXya4V7lnDLJicknWIcrO4gL6vDCspgKS6RVS39TWgXaBljpw6W674flvHb5tTxNw56leF01fBV7pPcj4oJ79FvVj+2p2hOe9yiekIEL7y9kd910V+haFPYd38d6re51flxQeKYkT2G5d+eKC+7A4/dDil+hm2bInXJ1Cvt2wrfiQohmEc4qnMUW/rgw/KGWoHRpE2AHJx50TYgd3+/IKs+ELOB5kH+aptoz9/yydy4TZy5Bfh/SYQjb8dAOcUGN5kIjsnDSoPenXZPGdo7fKS6EM7FgIsv7mSxgtEKHMm7tNPcKW1TXBq8ZzPbUkAANCsGmyfppbZhPSMRTurknRAgweU0yqzxF/okWHhJiMDnIFo1YJC6I2xARC783ECCgO/Him1fe7EqdG9ULrQoaFQrM7iO7hcM6sCi8xHITiktUIVGdtEJwJ1lAPQECen/xseKo8YO0zvuPjgAB5YFPyz4VDmeBX/rk9TEVIISk11xAc6WyziCfkHVcWraUTd0yVVxwDs0C6goQUPzmlOaEaYjfeuDEAeNI0KB78IHeq3o7LsSD1QeN/UT/K/21VDisgXZRcBdlaKPCxykoc7y882XhkAcZt6yhTLgMoDCVVJQIxzmqTlaZFjqHqw6LM+dA/oEAy05SWMzyHv2/oqZCOMIpOUZhNHteCPGpLU+JC/bTXAVFFdrMPxT/x+uOC4f57edDT6Dh7IYQnQYdExZiwB7ou+hEQHvGTU43klnxKswC5BvkHykBCk6eOSnOwmnXup04M4GEmFuW64hFVBIgoHvat2kvHFaTg56CEN2qmjoBMn/eAYNqmRuQtVq8e7FwXBogvyDfaD2gscI752SbEw5UTZUFSPeld0wP6zSzHg30pFY1RRXpQuOJz5/gieIpFIdLS5fyhLwUQDghQMM2kyKd23VmOWk5oWEAGWwUIsKDThhpAQLy5/t3vy8cIWKLCnoaJdqNH9x4QQnxkx8/YcXHi+VCj1I2lsMMNNS/pkx0kaNZDDsFqPHcgOfYzF4zXRWipfCQ/4ofLGY3XX2TuBCCD1HwcZa1YpzFClQSYLC3JLOEXdnKqNtOHj5GuDFd30+UwVcNtTamJTskkZKQwl6/43VW31AvrqiTsU1i/JHCUjtZblgAhV3b5W2FywB653sD32OP9X9MXAiBXueklUmG8bqo7yIWHBwUF2JHy7BKFqMl5Kdlg5axJ1OeFBeiM6NwBntt72vy+ZhEYWX4QrOASgIkG6U33mlPmURvQSO7x8oecW8R5++YzxPVFEqgt9Pf5jNzRt06yvKR04+snMT31ny/RpxdXHABrohBgAq8mv4qy+qV5ahFjMUC6k04sC9a6E2omqLbOV6FiAjMLsk2H5IQjeeBXQaKC9aZmkoJbBbL5J9JX00SjosHDAFxCwgcFqAGhGilaiozfKFZQNU2YOHoQsO8ZG/U0NtgEeNViM98/oy5AAFF3JLhS4QjNlA9XzZwmbk1pP+jrXqxgGpvl7wurljASDDPWVWIZsMXliwgSaB4rL4F1LA/euJUiJg9klcuMSRBmWbMn8fYMsFag7dlzL5LGeGFb14Qjgsb3u5cQ+1OhNn+HCaFFSHqWURNgMoWkNqAMrUpZ6KI3gohYk5gvAhx0hdU3ZOxgmSRcobb31uZPyzfNEOU/a/MtdUcThEmQI+xwyJaEqCkBdRQjyp4RgZ6M+YExoNFRDWPz9A3Cy2FDb1lkV3IdoAlNYGEQChDoGoa7SCm/2t66MSIaM9GORpbNdKJe6CXPWmVBQHK5ikLxGIRnbaAGmpDFOQZrFd7seRFOasC6JmUxBT25cNfKg1f2DlEIb1KgsqKiscr+ACwEyCe9/+yX7ii09DYwO7vdb/hcMX6H9aLM33wnr6d+rKe14dXq50aouB56GPKQ7L5QoMybbBHkOWUUe1DL6OTn2SGKIzgq4T2LjTP4xpawaBSoFD+MVt2FQ01EVKE7R2/l9WfqWep61KVAqQ6jmiXCDEkkf2DRI8ovS+7dzZ7eaj6pOoLCSdEKJ1/IqFMi/WL6UnprMuKLoZ+ilWEQFmIKpA2UAW10qOuWnFgNadrWP/O/fkHEYlS0FfQRkz/mETlIqhOSA1JACooggPsG6C+VECHF7eAFgWIQrSqzp1pe6iaKo0jygILaDIMYYSyCDXwwV3jdskHiL5UXF3MV1C7hfSQBJW0OQNyYlrpbhW0l82OSKLdE+1wGggwNZ9qRKpV0BYCdBvlAX0zYAENBuJlUK6ORppcLExNW58mXxKSxZFZVR5rdZRnENkqM/mpfnK9VFUZ1blvKr5h1Q3V3F1TX8P/AqwQqGusY9Wnq1ntmVpWd6aOnTp7itX8XsPONJ1hpxpP8ftqG2tZdWO1/mpwDRQOqTl8bqQGxBUP09YstwGjCHDfUXpXvkH+Iz/ZUR1tiS1VU9IDLGAsAgSWLaEGt4gPqFnEol+L2KC1g8QFZ1AZksBgupkAIbBR60axpA+S2LjCcWzSzkn8mP7d9OYje182W1i6kOUezOXbR2w4uoFtrtzMiqqKeC1gT90efmBRrqkAARUOk/rF30waXgVFoW1BgPl/zffEAkai3GsaCYVFZRjCiJhFCNBGVBIiJV7xiWK+sZQTYA8WqSEJQH6RKWGxBAeC4ttKIPNFO/A9o0MFEiCqTW5urCWDUg2jJUKAXu1+Fo1mIVJcK0EFN6qgVtuAkahmDV2sCBEWcfjH9m5dCMqqJFdsU2TmD8kXDn3Qw1pZrzBdyQ7Ib0/3e1o44gM0PawKELvjxZMAATru1h1ep56udP+K71cIR+zYmq2sCLHweKHtQmzZhjKEQr96/2rh0GfxT4tDls4tqGS+t/O9jkwasAra6GmfKLT9NYQAvdzPNBraQDx67ZWhfGPnVhm2ihDEixDRkDf1A4V+w+ENvIqlB9qCfNKum5AVzErNEg7vae4kk59rESKOBai8GiISKoxiXRisYbsIAYSIQX1kJikcECLaeUmJScJlAEVmcId+TyDaZEltJd5jI/C3HQ1+O8CWgnwDZgsWcOt9W+PWAiqthtDDJiE6IkKAVQh7/05CVLSI6IEEbVtLdMOb8O6wd3lmMIRiALuOo7TX49kez8qHI1boOwv6LhAOb0EH14h/jrBkASFAu3+qIFZssYCR2CBEx0QIuBBhERWEuPnoZjZ63WhWd7ouZt8hE6R3olLcrPeLInLy9snCcT5oY6Z0SJG37LFAfnnkNm+78BPbJnILaLjLtx4kQMyfjEcBKltA2V5TIUTsbG4FR0UIrAixoLKA/wgMzmOFL86VEA+WERktqsUE9MwbM0OWFWHBO7UDidXysAq9a9nt1Jb1EorzD//9IRux2ZoFtDKB2WksWUC6N/NPlN4SeYdDQsR6VSsW0XERAmUhkq+kBrMlwLcxS99UHBSJ44rGCcf5YDB/ZcZKvspia8ZWPlsHM1IwuyS7ZzabcvMUNub6MSwjkMHS2qexQOtA6EHZRAQU7szbKOE9pui3IvUCkNI21ulbTmDJAlJhUnxfMU/vmT3Ul0GpWkRXRAiahaiSKW0i+45sue9SZK/+wXjIAsucUNXCrA9MCcP0Lqy8wI5d68esZxsf2Mh/iOXYY8f4j5g0TWviu7aZQv7DplAqy73iBmRaiysInEQToJIFpDzQcj2glfWIqhbRNRECLkSVzhqbwMRsTNA2FSJF4IQvJ9g6+RlzLPnsHTMoo/BNoS40KC3tnD1iF5YEKAqTSGtudWGwrEV0VYTAK4vIB/Blqljkr9xd9v2MFt/m3uy79M15feZdeFaQMi3GhC8WC2hUmDhpEV0XIWi2iC4LsSC9wDwSSTDBr4O2/MYG3oESUSaWnx4QX1PUTKF4xFI2jAnHE5Y6YSSr01YtopkQPREh4EJ8wF0hYuA47bq0UAIZQbEyv2i+cFiHb+hrFsPkl6weWZ6sZbQMZULUZuJRgMqdMBQWleq0E0L0TIQA+5+UTyh3VYhLhi0xj0Cyhlhrhs1rY2FByQLzqij5JXj7BbSiXwgQhWg8YdUCWlkRDyHaudO3pyIEmKTsphBRemd2zTS3hiQe/H7hpv2bLB3L9yxn5XUULiPID1OTpzq2sZTtUBrtHRd/AkS136oFtDqkYueW+zGvrLcLvuIb2+WZWQ4NyhBWfxAGFs5wYyENCNVMrEZIWMHyieVKqyUcX1mvBwRIzYfI3dvsINaV9ViXioXTKgK0Y0U8UF6hT99GT33LlT6eW0INNy0iLM/cvnPNv4XYgZCsHkaQuDOTMuNquZIuDgowVrACpuioggB1hiGsYqWNGPw2vPkRNyIEzUKMxfpIMufOOeLMIyjRZqXNEo44Jo4FCIoOK8zugQVU3JhXBmUh0n0t+xu4CBNaJ8hlfLon8YpE4XAGLsSH3REiqrPSEWcnFLaMGzIsta1UxhLbtGkjzs5xxR+oKJaNW7oPhWI8CPCqVleJM4vYbAEjURJihOnjTmT8QKKY62gEpb8bjXIpIdL/kv+YLBzWQHuyW/tuwuUiZF1eGvyScKgTvIWqM2ZVafr/PX+5RzjOwTuBZHQMAVIauFFd7hroaprWtwRuEY5wRnYdaR4XJAw3ZvXIChE/h9CyM65Zkxvv3shLC13of1tHbhUO5wkTYrQEIp/bMU71zrB3jMNtNxQWjFXG4vd5w+aFUk4v41J4lg1Zpjv2yFdq6IVZxLdbAgSw7rzHOpqYyC/ItHoCglGYkjxFP+NTOJ3qTIyGqRDJP2vT1wpHiGYRwpNYiMkTAS8QiaGdY5sCt9eIIRNUZFbwLfSb/YSEovPCUYW4JWZQPUnrKDGAbxfk/9n9ZwuHNbDaH/GSkpgSEhPipEXcYFczox3k8L9gL7KmeBbPaQc9i10E8G63BKiR+7dclpSQdC6dtfDQ322jjX+pCpPn0ckVFhd4D4FZPW4JUANCxDTEaGmDPVcjdcSHKMQ5B13gBaUFbPcvoX1X+nfqzzKSMzyf14hV3tt/3s66JHRhD/V8yNaxNb6BMTYxai6SHORyxpqmhkV5TGBHgC0HtvBNhlOvT+VVUNnZN3j2o/0fsdLfSln3q7uzkTeMZGN7jxX/9QaMr27/73a+cfLQG4ayR/s8Kh0e9JRu+mkT33i5b6AvG9tzrKf5FkMvnx36jFXUVbDu13TnM7ai5dvzRHipYrS9hZ10TOgYd4PdPt7ii9DHx2PcqID5+PgY4IvQx8djfBH6+HgKY/8HhpizZR//ingAAAAASUVORK5CYII=;" vertex="1" parent="dCbXYARRjmfmnTsoq2Sv-54">
          <mxGeometry x="60.010000000000005" y="137.5" width="70" height="19.29" as="geometry" />
        </mxCell>
        <mxCell id="dCbXYARRjmfmnTsoq2Sv-75" value="" style="shape=image;verticalLabelPosition=bottom;labelBackgroundColor=default;verticalAlign=top;aspect=fixed;imageAspect=0;image=data:image/png,iVBORw0KGgoAAAANSUhEUgAAAOEAAAA+CAYAAADd23yAAAAAAXNSR0IArs4c6QAAAARnQU1BAACxjwv8YQUAAAAJcEhZcwAADsMAAA7DAcdvqGQAABEfSURBVHhe7Z0LbBVVGsePrIhYiuJ6EXBXKy5UHkEKFQoKWMjiKkUDyopSYnzwEBP1YkrAUBSBSNRQJUSLoKKUh1YguxQMRizQjVQFMVWQbiOUxS1CkdZtSwtYut//3DOl93Jn5py587jA/JJJ50zncV7/8533vayJYD4+Pp7RSvz18fHxCF+EPj4e44vQx8djfBH6+HiML0IfH4/xRejj4zG+CH18PMYXoY+Px/gi9PHxGF0RHqk9wo94oaqhKq78E08gbg79dog1nG0QV+TBM1aec5JY/ITn6n6vEy7vkfHPedPW3vj6DRb8LkhPiwtXMjaz20z2Svor4oK7fFH+BRtfOJ5V1lRydyAxwNamr2XDk4Zzt11sO7RNnDnL2aazrFO7TqzndT3FFet8VfEVyyrKYkVHi0IXrmBsbu+5bM6dc0JuA1Cgzdg2g+VV5JGnGOt2VTeWMyiHjeo2StzhPsh7b/74JiuvL+fmYUxgDJs/ZL5UXKEQmvb5NLb5yGYeHuSTt9LeYg/2eFDc4S4Q3vNbn2dLDy5l7DRdIB3Nu3Uemz10duiGFoSJcOhHQ1lRJSUoJWYYv9NxOWO1j9eyhMsTQtdcAMJI/0c6D0AYVEAU3FNgW4bZVLaJZXya4V7lnDLJicknWIcrO4gL6vDCspgKS6RVS39TWgXaBljpw6W674flvHb5tTxNw56leF01fBV7pPcj4oJ79FvVj+2p2hOe9yiekIEL7y9kd910V+haFPYd38d6re51flxQeKYkT2G5d+eKC+7A4/dDil+hm2bInXJ1Cvt2wrfiQohmEc4qnMUW/rgw/KGWoHRpE2AHJx50TYgd3+/IKs+ELOB5kH+aptoz9/yydy4TZy5Bfh/SYQjb8dAOcUGN5kIjsnDSoPenXZPGdo7fKS6EM7FgIsv7mSxgtEKHMm7tNPcKW1TXBq8ZzPbUkAANCsGmyfppbZhPSMRTurknRAgweU0yqzxF/okWHhJiMDnIFo1YJC6I2xARC783ECCgO/Him1fe7EqdG9ULrQoaFQrM7iO7hcM6sCi8xHITiktUIVGdtEJwJ1lAPQECen/xseKo8YO0zvuPjgAB5YFPyz4VDmeBX/rk9TEVIISk11xAc6WyziCfkHVcWraUTd0yVVxwDs0C6goQUPzmlOaEaYjfeuDEAeNI0KB78IHeq3o7LsSD1QeN/UT/K/21VDisgXZRcBdlaKPCxykoc7y882XhkAcZt6yhTLgMoDCVVJQIxzmqTlaZFjqHqw6LM+dA/oEAy05SWMzyHv2/oqZCOMIpOUZhNHteCPGpLU+JC/bTXAVFFdrMPxT/x+uOC4f57edDT6Dh7IYQnQYdExZiwB7ou+hEQHvGTU43klnxKswC5BvkHykBCk6eOSnOwmnXup04M4GEmFuW64hFVBIgoHvat2kvHFaTg56CEN2qmjoBMn/eAYNqmRuQtVq8e7FwXBogvyDfaD2gscI752SbEw5UTZUFSPeld0wP6zSzHg30pFY1RRXpQuOJz5/gieIpFIdLS5fyhLwUQDghQMM2kyKd23VmOWk5oWEAGWwUIsKDThhpAQLy5/t3vy8cIWKLCnoaJdqNH9x4QQnxkx8/YcXHi+VCj1I2lsMMNNS/pkx0kaNZDDsFqPHcgOfYzF4zXRWipfCQ/4ofLGY3XX2TuBCCD1HwcZa1YpzFClQSYLC3JLOEXdnKqNtOHj5GuDFd30+UwVcNtTamJTskkZKQwl6/43VW31AvrqiTsU1i/JHCUjtZblgAhV3b5W2FywB653sD32OP9X9MXAiBXueklUmG8bqo7yIWHBwUF2JHy7BKFqMl5Kdlg5axJ1OeFBeiM6NwBntt72vy+ZhEYWX4QrOASgIkG6U33mlPmURvQSO7x8oecW8R5++YzxPVFEqgt9Pf5jNzRt06yvKR04+snMT31ny/RpxdXHABrohBgAq8mv4qy+qV5ahFjMUC6k04sC9a6E2omqLbOV6FiAjMLsk2H5IQjeeBXQaKC9aZmkoJbBbL5J9JX00SjosHDAFxCwgcFqAGhGilaiozfKFZQNU2YOHoQsO8ZG/U0NtgEeNViM98/oy5AAFF3JLhS4QjNlA9XzZwmbk1pP+jrXqxgGpvl7wurljASDDPWVWIZsMXliwgSaB4rL4F1LA/euJUiJg9klcuMSRBmWbMn8fYMsFag7dlzL5LGeGFb14Qjgsb3u5cQ+1OhNn+HCaFFSHqWURNgMoWkNqAMrUpZ6KI3gohYk5gvAhx0hdU3ZOxgmSRcobb31uZPyzfNEOU/a/MtdUcThEmQI+xwyJaEqCkBdRQjyp4RgZ6M+YExoNFRDWPz9A3Cy2FDb1lkV3IdoAlNYGEQChDoGoa7SCm/2t66MSIaM9GORpbNdKJe6CXPWmVBQHK5ikLxGIRnbaAGmpDFOQZrFd7seRFOasC6JmUxBT25cNfKg1f2DlEIb1KgsqKiscr+ACwEyCe9/+yX7ii09DYwO7vdb/hcMX6H9aLM33wnr6d+rKe14dXq50aouB56GPKQ7L5QoMybbBHkOWUUe1DL6OTn2SGKIzgq4T2LjTP4xpawaBSoFD+MVt2FQ01EVKE7R2/l9WfqWep61KVAqQ6jmiXCDEkkf2DRI8ovS+7dzZ7eaj6pOoLCSdEKJ1/IqFMi/WL6UnprMuKLoZ+ilWEQFmIKpA2UAW10qOuWnFgNadrWP/O/fkHEYlS0FfQRkz/mETlIqhOSA1JACooggPsG6C+VECHF7eAFgWIQrSqzp1pe6iaKo0jygILaDIMYYSyCDXwwV3jdskHiL5UXF3MV1C7hfSQBJW0OQNyYlrpbhW0l82OSKLdE+1wGggwNZ9qRKpV0BYCdBvlAX0zYAENBuJlUK6ORppcLExNW58mXxKSxZFZVR5rdZRnENkqM/mpfnK9VFUZ1blvKr5h1Q3V3F1TX8P/AqwQqGusY9Wnq1ntmVpWd6aOnTp7itX8XsPONJ1hpxpP8ftqG2tZdWO1/mpwDRQOqTl8bqQGxBUP09YstwGjCHDfUXpXvkH+Iz/ZUR1tiS1VU9IDLGAsAgSWLaEGt4gPqFnEol+L2KC1g8QFZ1AZksBgupkAIbBR60axpA+S2LjCcWzSzkn8mP7d9OYje182W1i6kOUezOXbR2w4uoFtrtzMiqqKeC1gT90efmBRrqkAARUOk/rF30waXgVFoW1BgPl/zffEAkai3GsaCYVFZRjCiJhFCNBGVBIiJV7xiWK+sZQTYA8WqSEJQH6RKWGxBAeC4ttKIPNFO/A9o0MFEiCqTW5urCWDUg2jJUKAXu1+Fo1mIVJcK0EFN6qgVtuAkahmDV2sCBEWcfjH9m5dCMqqJFdsU2TmD8kXDn3Qw1pZrzBdyQ7Ib0/3e1o44gM0PawKELvjxZMAATru1h1ep56udP+K71cIR+zYmq2sCLHweKHtQmzZhjKEQr96/2rh0GfxT4tDls4tqGS+t/O9jkwasAra6GmfKLT9NYQAvdzPNBraQDx67ZWhfGPnVhm2ihDEixDRkDf1A4V+w+ENvIqlB9qCfNKum5AVzErNEg7vae4kk59rESKOBai8GiISKoxiXRisYbsIAYSIQX1kJikcECLaeUmJScJlAEVmcId+TyDaZEltJd5jI/C3HQ1+O8CWgnwDZgsWcOt9W+PWAiqthtDDJiE6IkKAVQh7/05CVLSI6IEEbVtLdMOb8O6wd3lmMIRiALuOo7TX49kez8qHI1boOwv6LhAOb0EH14h/jrBkASFAu3+qIFZssYCR2CBEx0QIuBBhERWEuPnoZjZ63WhWd7ouZt8hE6R3olLcrPeLInLy9snCcT5oY6Z0SJG37LFAfnnkNm+78BPbJnILaLjLtx4kQMyfjEcBKltA2V5TIUTsbG4FR0UIrAixoLKA/wgMzmOFL86VEA+WERktqsUE9MwbM0OWFWHBO7UDidXysAq9a9nt1Jb1EorzD//9IRux2ZoFtDKB2WksWUC6N/NPlN4SeYdDQsR6VSsW0XERAmUhkq+kBrMlwLcxS99UHBSJ44rGCcf5YDB/ZcZKvspia8ZWPlsHM1IwuyS7ZzabcvMUNub6MSwjkMHS2qexQOtA6EHZRAQU7szbKOE9pui3IvUCkNI21ulbTmDJAlJhUnxfMU/vmT3Ul0GpWkRXRAiahaiSKW0i+45sue9SZK/+wXjIAsucUNXCrA9MCcP0Lqy8wI5d68esZxsf2Mh/iOXYY8f4j5g0TWviu7aZQv7DplAqy73iBmRaiysInEQToJIFpDzQcj2glfWIqhbRNRECLkSVzhqbwMRsTNA2FSJF4IQvJ9g6+RlzLPnsHTMoo/BNoS40KC3tnD1iF5YEKAqTSGtudWGwrEV0VYTAK4vIB/Blqljkr9xd9v2MFt/m3uy79M15feZdeFaQMi3GhC8WC2hUmDhpEV0XIWi2iC4LsSC9wDwSSTDBr4O2/MYG3oESUSaWnx4QX1PUTKF4xFI2jAnHE5Y6YSSr01YtopkQPREh4EJ8wF0hYuA47bq0UAIZQbEyv2i+cFiHb+hrFsPkl6weWZ6sZbQMZULUZuJRgMqdMBQWleq0E0L0TIQA+5+UTyh3VYhLhi0xj0Cyhlhrhs1rY2FByQLzqij5JXj7BbSiXwgQhWg8YdUCWlkRDyHaudO3pyIEmKTsphBRemd2zTS3hiQe/H7hpv2bLB3L9yxn5XUULiPID1OTpzq2sZTtUBrtHRd/AkS136oFtDqkYueW+zGvrLcLvuIb2+WZWQ4NyhBWfxAGFs5wYyENCNVMrEZIWMHyieVKqyUcX1mvBwRIzYfI3dvsINaV9ViXioXTKgK0Y0U8UF6hT99GT33LlT6eW0INNy0iLM/cvnPNv4XYgZCsHkaQuDOTMuNquZIuDgowVrACpuioggB1hiGsYqWNGPw2vPkRNyIEzUKMxfpIMufOOeLMIyjRZqXNEo44Jo4FCIoOK8zugQVU3JhXBmUh0n0t+xu4CBNaJ8hlfLon8YpE4XAGLsSH3REiqrPSEWcnFLaMGzIsta1UxhLbtGkjzs5xxR+oKJaNW7oPhWI8CPCqVleJM4vYbAEjURJihOnjTmT8QKKY62gEpb8bjXIpIdL/kv+YLBzWQHuyW/tuwuUiZF1eGvyScKgTvIWqM2ZVafr/PX+5RzjOwTuBZHQMAVIauFFd7hroaprWtwRuEY5wRnYdaR4XJAw3ZvXIChE/h9CyM65Zkxvv3shLC13of1tHbhUO5wkTYrQEIp/bMU71zrB3jMNtNxQWjFXG4vd5w+aFUk4v41J4lg1Zpjv2yFdq6IVZxLdbAgSw7rzHOpqYyC/ItHoCglGYkjxFP+NTOJ3qTIyGqRDJP2vT1wpHiGYRwpNYiMkTAS8QiaGdY5sCt9eIIRNUZFbwLfSb/YSEovPCUYW4JWZQPUnrKDGAbxfk/9n9ZwuHNbDaH/GSkpgSEhPipEXcYFczox3k8L9gL7KmeBbPaQc9i10E8G63BKiR+7dclpSQdC6dtfDQ322jjX+pCpPn0ckVFhd4D4FZPW4JUANCxDTEaGmDPVcjdcSHKMQ5B13gBaUFbPcvoX1X+nfqzzKSMzyf14hV3tt/3s66JHRhD/V8yNaxNb6BMTYxai6SHORyxpqmhkV5TGBHgC0HtvBNhlOvT+VVUNnZN3j2o/0fsdLfSln3q7uzkTeMZGN7jxX/9QaMr27/73a+cfLQG4ayR/s8Kh0e9JRu+mkT33i5b6AvG9tzrKf5FkMvnx36jFXUVbDu13TnM7ai5dvzRHipYrS9hZ10TOgYd4PdPt7ii9DHx2PcqID5+PgY4IvQx8djfBH6+HgKY/8HhpizZR//ingAAAAASUVORK5CYII=;" vertex="1" parent="dCbXYARRjmfmnTsoq2Sv-54">
          <mxGeometry x="59.99999999999999" y="447.5" width="70" height="19.29" as="geometry" />
        </mxCell>
        <mxCell id="dCbXYARRjmfmnTsoq2Sv-76" value="" style="sketch=0;points=[[0,0,0],[0.25,0,0],[0.5,0,0],[0.75,0,0],[1,0,0],[0,1,0],[0.25,1,0],[0.5,1,0],[0.75,1,0],[1,1,0],[0,0.25,0],[0,0.5,0],[0,0.75,0],[1,0.25,0],[1,0.5,0],[1,0.75,0]];outlineConnect=0;fontColor=#232F3E;fillColor=#ED7100;strokeColor=#ffffff;dashed=0;verticalLabelPosition=bottom;verticalAlign=top;align=center;html=1;fontSize=12;fontStyle=0;aspect=fixed;shape=mxgraph.aws4.resourceIcon;resIcon=mxgraph.aws4.auto_scaling2;" vertex="1" parent="dCbXYARRjmfmnTsoq2Sv-54">
          <mxGeometry x="20" y="367.5" width="20" height="20" as="geometry" />
        </mxCell>
        <mxCell id="dCbXYARRjmfmnTsoq2Sv-77" value="" style="sketch=0;points=[[0,0,0],[0.25,0,0],[0.5,0,0],[0.75,0,0],[1,0,0],[0,1,0],[0.25,1,0],[0.5,1,0],[0.75,1,0],[1,1,0],[0,0.25,0],[0,0.5,0],[0,0.75,0],[1,0.25,0],[1,0.5,0],[1,0.75,0]];outlineConnect=0;fontColor=#232F3E;fillColor=#ED7100;strokeColor=#ffffff;dashed=0;verticalLabelPosition=bottom;verticalAlign=top;align=center;html=1;fontSize=12;fontStyle=0;aspect=fixed;shape=mxgraph.aws4.resourceIcon;resIcon=mxgraph.aws4.auto_scaling2;" vertex="1" parent="dCbXYARRjmfmnTsoq2Sv-54">
          <mxGeometry x="20" y="57.5" width="20" height="20" as="geometry" />
        </mxCell>
        <mxCell id="dCbXYARRjmfmnTsoq2Sv-146" value="" style="rounded=0;whiteSpace=wrap;html=1;fillColor=none;strokeColor=#006600;dashed=1;strokeWidth=2;" vertex="1" parent="dCbXYARRjmfmnTsoq2Sv-54">
          <mxGeometry x="-20" y="338" width="220" height="252" as="geometry" />
        </mxCell>
        <mxCell id="dCbXYARRjmfmnTsoq2Sv-153" value="React JS" style="text;html=1;align=center;verticalAlign=middle;whiteSpace=wrap;rounded=0;" vertex="1" parent="dCbXYARRjmfmnTsoq2Sv-54">
          <mxGeometry x="63" y="125.5" width="60" height="12" as="geometry" />
        </mxCell>
        <mxCell id="dCbXYARRjmfmnTsoq2Sv-154" value="React JS" style="text;html=1;align=center;verticalAlign=middle;whiteSpace=wrap;rounded=0;" vertex="1" parent="dCbXYARRjmfmnTsoq2Sv-54">
          <mxGeometry x="65.01" y="435.5" width="60" height="12" as="geometry" />
        </mxCell>
        <mxCell id="dCbXYARRjmfmnTsoq2Sv-11" value="&lt;i style=&quot;color: rgb(0, 0, 0);&quot;&gt;&lt;b&gt;Private subnet&lt;/b&gt;&lt;/i&gt;" style="points=[[0,0],[0.25,0],[0.5,0],[0.75,0],[1,0],[1,0.25],[1,0.5],[1,0.75],[1,1],[0.75,1],[0.5,1],[0.25,1],[0,1],[0,0.75],[0,0.5],[0,0.25]];outlineConnect=0;html=1;whiteSpace=wrap;fontSize=12;fontStyle=0;container=1;pointerEvents=0;collapsible=0;recursiveResize=0;shape=mxgraph.aws4.group;grIcon=mxgraph.aws4.group_security_group;grStroke=0;strokeColor=#006EAF;fillColor=none;verticalAlign=top;align=center;spacingLeft=30;fontColor=#ffffff;dashed=0;" vertex="1" parent="1">
          <mxGeometry x="500" y="260" width="210" height="220" as="geometry" />
        </mxCell>
        <mxCell id="dCbXYARRjmfmnTsoq2Sv-17" value="&lt;i&gt;&lt;font style=&quot;color: light-dark(rgb(0, 0, 0), rgb(0, 0, 0));&quot;&gt;Data Tier&lt;/font&gt;&lt;/i&gt;" style="whiteSpace=wrap;html=1;aspect=fixed;fillColor=none;strokeColor=light-dark(#000000,#FF0080);strokeWidth=2;dashed=1;verticalAlign=top;" vertex="1" parent="dCbXYARRjmfmnTsoq2Sv-11">
          <mxGeometry x="25" y="30" width="170" height="170" as="geometry" />
        </mxCell>
        <mxCell id="dCbXYARRjmfmnTsoq2Sv-19" value="&lt;i&gt;&lt;font style=&quot;color: light-dark(rgb(0, 0, 0), rgb(0, 0, 0)); font-size: 13px;&quot;&gt;RDS MySQL&amp;nbsp;&lt;/font&gt;&lt;/i&gt;&lt;div&gt;&lt;i&gt;&lt;font style=&quot;color: light-dark(rgb(0, 0, 0), rgb(0, 0, 0)); font-size: 13px;&quot;&gt;Primary Instance&lt;/font&gt;&lt;/i&gt;&lt;/div&gt;" style="sketch=0;outlineConnect=0;fontColor=#232F3E;gradientColor=none;fillColor=light-dark(#C925D1,#660033);strokeColor=none;dashed=0;verticalLabelPosition=bottom;verticalAlign=top;align=center;html=1;fontSize=12;fontStyle=0;aspect=fixed;pointerEvents=1;shape=mxgraph.aws4.rds_mysql_instance;" vertex="1" parent="dCbXYARRjmfmnTsoq2Sv-11">
          <mxGeometry x="57.5" y="55" width="102.5" height="102.5" as="geometry" />
        </mxCell>
        <mxCell id="dCbXYARRjmfmnTsoq2Sv-150" value="" style="rounded=0;whiteSpace=wrap;html=1;fillColor=none;strokeColor=#0066CC;strokeWidth=2;dashed=1;" vertex="1" parent="dCbXYARRjmfmnTsoq2Sv-11">
          <mxGeometry width="210" height="220" as="geometry" />
        </mxCell>
        <mxCell id="dCbXYARRjmfmnTsoq2Sv-100" style="edgeStyle=orthogonalEdgeStyle;rounded=0;orthogonalLoop=1;jettySize=auto;html=1;exitX=0;exitY=0.5;exitDx=0;exitDy=0;startArrow=block;startFill=1;strokeWidth=3;" edge="1" parent="1" source="dCbXYARRjmfmnTsoq2Sv-40" target="dCbXYARRjmfmnTsoq2Sv-81">
          <mxGeometry relative="1" as="geometry" />
        </mxCell>
        <mxCell id="dCbXYARRjmfmnTsoq2Sv-104" style="edgeStyle=orthogonalEdgeStyle;rounded=0;orthogonalLoop=1;jettySize=auto;html=1;exitX=1;exitY=0.5;exitDx=0;exitDy=0;strokeWidth=3;startArrow=blockThin;startFill=1;" edge="1" parent="1" source="dCbXYARRjmfmnTsoq2Sv-40" target="dCbXYARRjmfmnTsoq2Sv-19">
          <mxGeometry relative="1" as="geometry">
            <Array as="points">
              <mxPoint x="470" y="740" />
              <mxPoint x="470" y="410" />
              <mxPoint x="600" y="410" />
            </Array>
          </mxGeometry>
        </mxCell>
        <mxCell id="dCbXYARRjmfmnTsoq2Sv-40" value="&lt;font style=&quot;color: light-dark(rgb(0, 0, 0), rgb(0, 0, 0));&quot;&gt;&lt;i&gt;Application Tier&lt;/i&gt;&lt;/font&gt;" style="whiteSpace=wrap;html=1;aspect=fixed;fillColor=none;strokeColor=#FF8000;verticalAlign=top;strokeWidth=2;" vertex="1" parent="1">
          <mxGeometry x="230" y="670" width="140" height="140" as="geometry" />
        </mxCell>
        <mxCell id="dCbXYARRjmfmnTsoq2Sv-41" value="" style="sketch=0;points=[[0,0,0],[0.25,0,0],[0.5,0,0],[0.75,0,0],[1,0,0],[0,1,0],[0.25,1,0],[0.5,1,0],[0.75,1,0],[1,1,0],[0,0.25,0],[0,0.5,0],[0,0.75,0],[1,0.25,0],[1,0.5,0],[1,0.75,0]];outlineConnect=0;fontColor=#232F3E;fillColor=#ED7100;strokeColor=#ffffff;dashed=0;verticalLabelPosition=bottom;verticalAlign=top;align=center;html=1;fontSize=12;fontStyle=0;aspect=fixed;shape=mxgraph.aws4.resourceIcon;resIcon=mxgraph.aws4.auto_scaling2;" vertex="1" parent="1">
          <mxGeometry x="230" y="670" width="20" height="20" as="geometry" />
        </mxCell>
        <mxCell id="dCbXYARRjmfmnTsoq2Sv-48" value="" style="shape=image;verticalLabelPosition=bottom;labelBackgroundColor=default;verticalAlign=top;aspect=fixed;imageAspect=0;image=data:image/png,iVBORw0KGgoAAAANSUhEUgAAAcgAAABuCAMAAACUTXOfAAABs1BMVEX///8AAABDkO66urrPIaHgJKdEje7aI6XVIqO9HZpgYGBAnuyaFuHHH51Cle36+vqIEed+DuuBgYFJc/FAoeyOE+VBm+3d3d1Ei++ZmZlIdvF7DeyVFePt7e3AwMBqamo+p+tFh+9He/DR0dFiBfRGg++kpKQ9sOo+qutrCPG0G5fqJ6twCu9Kb/KJiYmrHNuvHdqiGd5KSkpWAvjgAKHiAKPx8fFycnI3NzdAQEDxstrTAJ6qANj59P0cHBwpKSnGH6zOOqfwvN3wxuL61+zkO66jYO3Ur/K5e+zz6vyvx/ethPR5wfDz9f6kevTb5vvI1fqDs/NtkfPfUrLkb73VTa3wpNT74fG7St7MlezhyfafQeeuZ+rCk/CfLOPk0/mFfu3FcuSCKOiWwfS4XeSjUOjAgOrQqvJpYuru3/mGc+5grO66k/OgyvR0pfLJ4fmRRe2+WeCzPN7TkunPuPhTTe2q0/WSsPXJrfY3u+mvwveSa/Vvs+/nzPW9ofeHTfOJXveQpvU0YPFtmvLIb7TmgcTW3PvaicPyo9WhvuavMqKCfcioTq5wj9TujMqeYLyIcMhT5thYAAAUH0lEQVR4nO2d+1sTSdbHQ0BAg0mAhFvCLSRcXgFXDTIS4qyAImrEESSKIO+CyLCM4vqy6IyOc2Vlb+78yW931znVVdW3atIhmWf7+/hLJ51ONx/r1LlVJRAoSY//oOjixeldcvjkkqamJ+RwNd70dG19NVLad/gqv+anVYwXpwHcQpMCUdEzeDsZj8ejitY2KnaHvmSUn1YxKoLj7SaNYxK4rceJotHm/y1U7CZ9OetP0xrGS6vk8KBJU/I2OVyIAsZodDMU3qrcbfpy0AZwfA7HhGNTHObE7ShyjAZDbeGQP1VWqzS7qsyKeXL4AjjukMODKGKMfh1ra2sLh33zWp3amSYcwdPZTWp2NRmHt6OIMbrZF9JAhit2q75slL+kYrx0CT2dp0mNI4J8EUU1B2MEZPCrit2sL2s9nyYxI7io80kNYzIZ1VyfXZ3jn2OhkDYgw/X7lbxhX6b6HmL/NXKYT4IUg7qTjxxQjM2bgT0EGayv7D37MtFFAAmezm3ESOLGZsoxsRsotAHIcL0fhFSbMBkHLupGnGKkPo6KsTnxjfLuyzYAGexfrOhd+xKlJuNUjpiMe6ZzZDE2Jza1t3FEBoO+51pdeqNhpMm4nTjBGI1yGDXDqmoxjCD771Twrn2JekGy45iMy6NNvbXzcZPj+DV84EMYQNb3+2mB6tEOVDmSkHVbA47ahHmrmWJMNA9/IGdEKMiOV5W6a1+i5kmRoyk5T45XITu+rR3lE83IMREcjkHoeIgg6zN/q9Bt+xL0BJLjyafwAkyPzQvkMIEYE18P9fXF4CTCUQHZ0V+Jm/YlKr/dhFUOaAtYJ9nx5nVyuJEAjImEwrEvBqHjng7Sz9RVgXA4NiXjTNlR82/gjNcJwDgaHFZBhkjoyIzIlB9MVli76xSjEm7QsiNxU7G6PJoAjn8e0kBqJAt7DMh+P1NXOeV3519camI5Uk+HcLwFJyaQYyJwr08DGWuLxdBpJSAzfjB5Gtr9k6K/KHr8+I0irebIScvibMPZEP8nIOd6lwzI0dGRjUAAQIagHElB9qf8YPIU9Ia0xmkipSqSjmMwJuNJOHmdpMebP5LD3VGCcXTkvnK0H7MAmfmlUg/3X6T/m/4DaVYlDTkCRyhyJGEALgDHTfjw61ENoyLt8AMHMqiDTD2ozMP9F2l32gYjDMco2tXA62ZSq4Kcq+LpEIwj5IVCTAcZfLX1qgNBZjKStxPpqXWvnp6B9m7J6w/U9rS7+fu41NX2dhdNZwNST3ZV6lpvnDEmD/DkuyQdl7gPx6Ogkb/C3R/GEGRQjTn2OxBk6q3U3XTWlKDLLYMD9pfvPkfOHC9Ph9/ApHb164Nyp7dLP9n1c+O1Dv/9FMN6cVqTgBGLxvHbq/Tkd80kq5qAv8Nd5DgyNASn4IgMv9QOH/TjiOySCSYHSuEINDutn7hHP60MozJymV79C6kPuH20yR7ra+1Ov3nz+PFfnj9XPdfbL17cxtEYX5s/WF1d3cgzJx9gUvUdfHgEQQaHhg7Ja4shAAk51186AGRKJlM3XjrIGnVEmA84bgQ4jF33inB/c4kPyA9IXS5MybrW5YhRI/cOZMcTuqcD4/Gv3w4NDcFXbIUISMjUFTIAMtP1nfOXt5QEkFGL2QNf5k7xekxe564uMa+dzPx0St/QU9WuPjO8nN9GjqPo6YwAR8WwKroHJ4ZgjoTQ8bt+AJlqdQ4mPQNZU2MyTwlnSLpHkrrGX9zGCqJOOo/I/g98oXo4a+KrHxNY5BjFnM4IYBwJqgNyqA+M6X6IeK1Yh6xHkCnnYNJDkDWXxYtHxDPkvEE5nROuXev8ke6TPpmkL0XacbiXFr5J6LWqUZg2748QjOn3Gseh4WE4+wOEHwB2MYMgWx2DSS9B1lwXzKsBZI13vuukeGkJkIIxdqFxmVtaj2ttVU+h2BjYPbi7yWBMjIKns5HWMI6k04FDAEkcVdINyawYeJsBkKkupy/3FKToOxpBXpf5g8jI6KTJgDzxkBTGZP777xW/dPVgfn5+Z2fnyZP1dcVrbSIc49Fo/Nnr15vNjAjHH+HTmyNEaSU6+ZaA7INJ8LCNgMQ6ZCaDIH9yeDQWZK2b1MBgZ0vvF4bn5R0DI0jJMMFRg8Yry4BUHFenZxzsnLxsvLgwT74xZuLicWO3KotRrXEQfUwDx/fKQYGAHMZgkizGCndA6PggBSBTYw7BJAvyBDNY+6DgcnDvmoA0TqQnUa3JheVAyunqwPiXwuW/ZN7eMc3jmDUdU4yJUZwg82mwq2ltnnlJQPZhMBkmuVY0rq8QZFfK/pZZkCdzKtu5ccn5jmYga86d6Fs4mXqfXoJU1S3kvPQwGFqOXWEc2cT8wA+A8Qpk7wjI4RgGk7CIB+qQhRSCHLMPJksHyUeLnG01BSkVutvKPK73GmRAmIhb6MuPzdKq9qNx5CN+WDWsaVU/wgv7wxrIPgwmSYNysANmzTspANk1ZhtMegGS/cNy7p05SOZPciJZeCxlAMmZ8Gv44k6TKUYTgpiGe/2OXnEVOV6hDvw9AhK7IfehQwCDyYcIsvWh3a16AZKN+2VAusiVmMjqouUAySUd4KUF3ZrCOEwmnz17+vTp9vb2rVtra2v379+/e/fuN6o+fvz47oDdcGUjTTBSw6qoMKyBpN2Q0LPTD6HjYheA7BqzCya9AMn+aaVAygbYphK9kLKC7NWvj5HTgqK8opOExAdp0JUfmVcPASQGk0FoNIe336YAZOuYzaUrA7KEv/o17y9pIwakB4HT3TQFyZZGAkMEZAgmwZdBAhKDSR2kTTB5aiCF4EwiM2oqPjHHOszlBnnN+Wx7rY7qHA+4dwp9GsjYHhy3wYoBDCa7AGTrz9bB5KmBnBR8lJMVtfjEXC8bh5QbZIkB8MFmOm1qWFW97NNAhiCYLNRrIDvQuD5EkGPWmbpTA9krRn8nKWrxibnLbN267CB7T36V3YP3aUZXeMOqioCMtYFx3YLeKwgdC60AsvVny2DyFEGK+Rj3X8cn5r4MlB8kMyFwQVNEdXcUr2d3d3dDkZZ4VfTu3TvFUVX9VcVvVbzX9+/f//jDaJrXFcGwqjqEtlZYWleoJyMSm1p/6gKQYz9bBZOnCVLMkLpNCfbwH4+UHyQ7Hagx05pVOlUP/WkvDiqNEQdivPKD8YsKBGSsDYLJr+o1kP1Qh1SGJIAcswomTxWkWLNw58ELplm92zKD7L7OX38jyefjhDyOFU2Bo9GwBvS21hA5XOwgIHERz8MuBGnl73gBkv1/aw9ScFa+NL2chYTEnDbFlhXkVT7ZqtiP50nTtKo7jFfemX3ZIfYnw5AEkNhnfqeVgrQIQbwAyc59XKhvBCmEDy5cesHpJeFL+UC2DwodCJPq+n+ZtKoDRjPDGmD6k2GWfEVA4tKPxTEEOfaz+Q17AZI1QJbVD3T6+IBe2qcXcgvw/8U1yKvt7QP26qkdHJ80FlrVAXlgUnJ0i9HcsCoCkCGoX23VE5C4GosBaW5bPQDJ/dflpj0zkEK7hWxRi0/MoQGXBhkZGGw5Z5Xck5F69RfxEidHS8MaUJdjAUgyBB8gSGgzz+ggzTOuJYMc4P48PBdTkFf5v5BcUeua+WfkQBqrxK6lpfm346VNjtaGVdEwgiQD7kEHgIRJ8qEO0jyULKlDIDLQKRghPl9jClKc7WT6mvj5SrfHEiDbvehKIuWapA2/EZHeFXNZGFY3IM2XgrCPOd4prfHxll6T1hYh+2EOUvQ/nYtavK/LZK8dQbab9t+4Ffz3/KOczv6PjSwjrhhvWu+gaYWyZMbNiCxdwsUtQIoRoVNRyzr6dAAZ6a3xQNRkNDY0NKLqGJ0XdFaXAeSvFs+IXmuojRx/hSABW6ubObJkibbZCqSYrLMvhdjkg+xBnmSph0Hj+vct6Rw5kjYgjSjnzB9yH+NIWPgRxpXnxNIWXHmtJeoLg9mwBCku5rMrhQiJuXar9wwgPVhoxq/GOmpghuSJSZo/5UsACZa1AOtcM7Crx51WN3FkaTKZ6qxBit9rXQoRcPDI7UCWOB7PjdeKXvxUjiVZZ4PyrA3KT6aPCUlzzAfcqScgcd05k6KzWAbiFchJM5fXBmRAmL6sSAo4BFp2IE2WB1zubRnvHHRQreVi7LwKsqFk+7pgcul9BAnFjTABmaFJcx2kxf503oDsNI9c7EAKS+4sglgh6BRHvQ1IYWY9N+jBor7lhgYPUD4yufIwbLMDleV9oYz1touCtCotlw7SZsGyLciAEIKaOeZCYs7QR2kDkhuQ494sAytmGwwobdxXK5IzhgvvwzY7tNeDFJYxP0eqWKQeabVhZCkgv+h1WGdvDzLCGz9xKZcqPiNjTOdZgyzPWukjSpKl6Rql+KSRPn0HM1UPYHcWnA5/SVGQlu1XLMiBdml1d8vUEu1BinbT2KbGW1+TUok1SDbAKamNllNkmdOSqkdUNxipGG9YoRSDyXsIkljSSJDsl5QBw6o2XxGQY9YNkSUu4nF4bnuQYrJOLIXwiTmzFXnWINkpspybwzgpX5z61YiSDyb3tSY6FSQpRu6Rja+wYycC3ZBqF531TryedJpbyQmkGFvwtlOw+mb/zaxBsoGq58/lVnO/iiS5t0l/sua1qrZ1S2trDXYE4e2fKMgxmxXolQUpRvvsSULOwPTmficgA4GFZR4lG0zeY0C27X3AzSGxq/VvXSnaDWnzDRUGKUYJLVZvmPsrvxuQgcAsb1/1YHJxmAGp7ynYgb/Eg2t4ulotsqxElQYpDjyzknGNZTb2dwQykL/BotSDSbI80rjLJ7z9NkXX8Nhu7VFxkOKuDqQUIlkfqQTIyMoUoxlGs5zmFBW58uMjliQGk4cAMrZ3ry+kg8QfVFqkyyO7xmwDhcqDFPdZUYEIiTnLBZUVGZHL2Wx2IkuUs5MWVT5a0WEyJM9CMFnABcsquEPc1CNcz+4GAetc7XdoqQKQxp2PhADT+qOVMa0TZ6gMyQGz/MARooywQSUJJmEvCNgyaYtu1wqfeEtB2i9zrQ6Q4pLHHj7lY9NpVxmQMwxJOZSz8MkimyBQg8lD2J0F1p3j7iz4M6CLdFMPB8NaJSCt11HW2HcxV8jZWTpzxiXKFfjkJ5YkbM6igqTbCvLb7HRk6O4sTltfVQVI242M7P4nyoH0PGOVn7jgluQUfJTN2n0K4A5mMABx4ys0rN/pG185GNZqAWlTBba9KTmQ50rXJO83H09oyurKAcoG6uo08iiL5JNzDMnzfx8iIHG3pD1+K7oC3YpOYnvIKgFp2ZdhnyeVA+mJbDdfi+SPSV0ktzRbzOfzxbnZleVGxW9lUMKpvzJlkX+QEUn3L4PwA4tZv9DNIVudf/2jWkCabmbluEL9FEE69fqtaGNyiX2puFKno6w7gr8JU+A6/0+NJK5TbuO3a72ToSAdDWsVgTTbXs6xUfI0QTq0xEfUIZmbFV6d1VGicZ1hapXntREJ5+7BBsrIlW6gLLPvbhWBNNnw0bEJvYpA5rOK12MAqY5UJHkDXnmkkzz/r2+HhqlhJSk6NKyvOuhO2DI/q1RFIA1bsDovC5GrR54KyM9Z1YFdMr5RRJA58FzzTAdB3b/RsEbg1yLCWE3up3vTSxhW/oFlzncn5uLul3hILNRinV3rRklvJPYZFOfmilRzyyRJkF2ay0ciwgKPRzAocxBJrbDNIGhY7xGQ8FsRgUhHPYLskvp1LCYbJrVLsDsxBk5quLPWVep29AYu0av0HKT4AMXsBCsMKiEBu/SZsbI3IBRZhmO2rQcqk/sxAhL3MXtFQaYkf68Of2HlunedLYyQ5DXJdotuNPUtcnY+gua4V4z6r3qy7oPqsvEBjicuUBlTPQrMY3qXADIHLR5zLEniA5G9IGhfKy7GUkBKGdZTUORqJOJq04fugR5XP8Hk+gs8080LF+xQKixpjjUHuR44XmZAapXJe7CpBxjWAGzqof7Gmf+zg2VXccKSJKLEQbmS09J2OTCkEXZIKj7QItSV0bB+RUGmJH67xVepOrrAy4YkJGBzEExO5RiSedpoDtVkbDRXBmSH6Rf78lgTJhKmSrCuczmSTMdg8gbTy7x8CFvRoWGFnwHt8H/P9bRUnKOaVf7Nzs6sfF6amMgyKDHmWCYkMZgsMm3puX+TzSHRsG4FYU9BuszVV0U09/nMBEV5BmKOPAzJHASZn9gVBmS7VmzTqQ8jSN+wVlozOkqMOaaAJAaTTLGy7j8qSOx/JL0e2mIsmR+O9FVerWTpXAmvwMp1nDWncjpJxbjSLc23wgiy3zes1aAizfWA51qEIdmIh0zZ+eww/siAtqM5AVlfmRv3JWoJBmUW2sqPc9qYzH3WjmbYsnPuN/obkmEEmfENa7UISWJNBPp6NOOar2N1vg58oJdhBEn3pvdVed2EIQkxxxzsJpFbPlaiEW43CUioF8jv8KgggzbX9XXKyoPvmoVg8ihHBmUDTpcMSc0H2qNLP/p9w1pNmoIyJcYcWb5vkuu1C5AGZRiQvmGtLi2RBGwWgskZ3IRAw7g0M3ukuzyfAoU2w2IsX1Wi/ATk0uF46QwlmdP66mb0QVn8YFiM5atqdExITkAwmc/SxnTIwi7TqfJsjIL0DWv16SYpcE1AfHFMSebICyQJq4Js/C0mLMbyVUWaI+VnGkzepBUuWOsKSVi1FURd+6EuxvKLV9WoZVJ1nsBgMkvLznDCEu5R2PiPmLaGx58gq1PQETKBlcks1CohV6cnYesafgspIP3xWKWaIiQnaDCJtcosNH58QpKNjW1h38+pXi3BkKTBJBa4bsIJjZgiyP3HN6tVrDy228ExXfGMSdjZnNYIm1u22CjbV5Xo+MJNVRcwmDxzE3QGgpKjm0tHKz7F09H/AzmVU8CCKuRpAAAAAElFTkSuQmCC;" vertex="1" parent="1">
          <mxGeometry x="250" y="770" width="103.12" height="24.87" as="geometry" />
        </mxCell>
        <mxCell id="dCbXYARRjmfmnTsoq2Sv-51" value="" style="shape=image;verticalLabelPosition=bottom;labelBackgroundColor=default;verticalAlign=top;aspect=fixed;imageAspect=0;image=data:image/png,iVBORw0KGgoAAAANSUhEUgAAAOAAAACTCAYAAACXmxWOAAAAAXNSR0IArs4c6QAAAARnQU1BAACxjwv8YQUAAAAJcEhZcwAADsMAAA7DAcdvqGQAACHHSURBVHhe7Z0JdBRV1sdv0klIwhYhxCUQhmVEURgQFzaRqAjO5yAooqPggo4i6IAsKjCi6KAOoIAiLiioIDMsCjLjHFBZFESGfVERDSAgCGENmAVCd773f1Wvu7rTe3d1dcf7O6dOd1ev1VX/d5f33n1JFQJiGMYSkvVbhmEsgAXIMBbCAmQYC2EBMoyFsAAZxkJYgAxjISxAhrEQFiDDWAgLkGEshAXIRJcKoilTptCCBQv0HYw/eCgaE1WWLFlCvXv3pho1alCzZs1o9OjR1LlzZ/1ZxhO2gEzUqV27NuXk5NCRI0ekGO+++2769ttv9WcZIyxAxjRsNhvl5ubS+vXrKT8/n0aOHElFRUX6swxgATKmU61aNSnEhQsXUosWLWSMiFiRYQEyMQRCrFu3Lk2aNInyGuZxokbAAmRiTs2aNaUQH3nkEbr22mtp48aN+jO/PViAjGWoRE23bt3owQcf/E26pSxAxlJUouaTTz6hKa+J2PA3BguQiQvQdbFr1y790W8HFiDDWAgLkGEshAXIMBbCAmQYC2EBMoyFsAAZxkJYgAxjISxAhrEQFiDDWAgLkGEshAXIMBbCAmQYC2EBMoyFsAAZxkJYgAxjISzAaMKFhpgQYQEyjIWwAKNJkn7LlpAJEhZg1HG4hMgwAbBEgCtWrKBnn322itaFrKANv3xLB0oP6Y+NCHEyccvPP/8sSyTGsnp3TAW4Z88euU7AzTffTO+//z499NBDVaAupEtUK45spssX3EntFvekvJn59Mhn43wIMTFBg9muXTu5zZw5U99bBRAhA6p1X3bZZbJEorN6dwyIiQDRomBdgJYtW9LmzZupcePGsjgrytEdPHhQrhuAupBogRIKGeslU0HpD3T3l6Po+o/upA3lB6i8+rlkz6pLr/20gHKn3EovbZhDhSWH5WsTETSQaChRSLe4uFhuo0aNkkKEN5PIYDWnpr9vKqt143rEpqp3t27d2vTjM/2KQEvZpk0buS4AhIc6kEZQrhz7V61aJVsgtDxxu4CHM7miWb0DZYfouW3T6KKF99HMogVkz6lDlObKwNhqiL83y07D1k6m9nMelhbSSQIkatAgomGEVUABXRTSxfnDhosUQsTqR3gNvJtEAo0KPLF+/fpRZmamNAhG8NhutztXdzLr+ExbHxAtx4gRI2jv3r3yxAXLqVOnKC0tjcaOHUs9e/bU98YJ+Kf0BMu8PUuo9//+TpQpdp7V9jk5o73IZneQ/Yx4Hpsg6ewpuqleV3qx00BqntNY7quMMU60yGKKn4siuYjTs7OzZSPpj9OnT0uBwkLivOO+Z0MbCHwGhP7yyy/re8wBjfuYMWNo1qxZdN555wX1O43HN2jQIFnDNFpEXYBoKZ566ilaunSpbCVDPRGKwsJCucDjhAkTpGW0FPxDuvCQYBm0aTJ9ZV8lrF02UbkQTIl40mD5IECIDxgFCCDCCqpFI5veT4M6dKeczHr6M8AoPkVsRYg4b/jw4XTmzBl5/kIBF2pKSkpY59x0AYpTgEYFrjPczECNijdgHE6ePEkvvfQS9e3bV98bGVETIFqWyZMnSxcymFYzGOACIEbs0aOHXGm1fv36+jOxB3Hes+veo5knvyBKTRZ6TJX7K0pPy1snuvUDTgsIDCIEUogpNWnaVY/SAy3vEHsgNOsECJcMlgFr+UXScIaLmQJEnPfkk09KAXm6mqGCa/Lo0aNRMw5RObsqzkNmE2Y9GuIDuAjQWhnjQ2mNTKOyAJA8QZz3+6X9ZJwHlPiCwZbmEqQRiA/0X/N3ajqjtx4f4nTgANUGvIkyeqDhHDJkiLz4d+/e7YzzqgJYlVfFeSBS8QH8N2pRmWgkDyMSoMqOoXVRgawZJw+ChhCRmWp+SXMT+w/1v0O/9hHntV16D43+aaK0epRRl5JStcalovx0ZevnAylCtXlgT6pNO8/up2vn9aHu84fSd4UI9vEfehdu1BDHiAatefPmtHjxYvn/VhXhqax7+/bt6ccffwwpBxEs+K9U8vCSSy4JO3kYlgB9ZcfMBgJHjIFgGC1b1PsPdeGtKy6gjv99kHpvfYz21v5VCo9s4km7eaKARfz38dV0yYd9pMU9UKq6LSJqI70Cl6xd+3ayQcO5i5bHEg/AG0M/3ty5c6VAzD42fD6+B/9l586dQzYOIZ1dKByZMSgeyrei1cT34aKBuwQXAO5T2C6A8vIkDioo0/rzrlzenb5K205JaeeTvVR/2iA+WD9TEBbSlpVEz60fL/sP392+WOy0a89FAaNLhi6EaLhk8QKyr+iXRByblZUV82PD9yE+VMYB/3UwBC1AKFvFebFoWQKhXAC4T1dddVVE8SHivLe3/kvGebNpJdlqZ8v9FbYzmuUzUEHlmjtqBmcqZNKmPFl8f46DHlg5RI6sibT/ULlkaLCqWpxnHF1VVlZmWhgUDEbjAPcX/3kgtzRgFhTWBQe4Y8cOS7JjwaIyXO+8805ImSnEeU9snay5mgac2UuFp/uJ7gfP/j/gkQVV+MqGVsJLnGg7fYJubXADTew8gi7IOFffGwTiq2bOmiljdPRdxbOrGWoWFBd2tLPu0QbXZGlpKb344os+uy0CChBJFnSmI8kS760mXAC0iPi9wXSWzt+2hG77uD/RFQ3IlqHv1LFMgAqDEJHESS47TOVHcujEkAVU22bsO/QOLlDEJEiZh9qfZwWhChAWb9OmTQlxbFh4FANL4J56EtCXWr58uaVmPRTwG9ESBhsTLtmymqi6uNCLghSFJyn6rck43dLiQ1RQWKjv9Q+SEWiBE+ECDRWc30WLFslYLxFo2LCh9My8EVCAtWrV0u9VPdIgPkHS0eOVLZ4nHrGgT4wjYrzhxcUMiiMiHhUUB5kAOnDggBzSVxWBp1OvXr2EMAqBMCmbEBi4HPgj44GKknRK3RfitCGViDHLCqJBMG6OAMJmooJZ16Svz425AOEWQXwdO3ak6tWryxglHig/cdbV5RBvnA3TakYZXEQYo7t///64aTyjBa5JXJu4JnGMsTq+mAkQB4hgFBnVr7/+mt566y15i0wW9uPgo0WNGjX0e8GRlFkmb217jkhXNKA7GksgvhLN/bQKXIwQXaNGjWj16tUyL4D7uFATHXVsMAjoS8Q1OX36dCopKYnqNekL0wVoPEB0TmJQtTFDiSlHyFpCmHgdhGoFSemZ5LCLv+PXCp/jN00BAlObeqxusVksPlyEiLWQ1Pn4449lQgEDMXAfFyrObywu1GhjbFTQlwyDoAb7d+3alQoKCmjw4MHSQzPzmjRVgPjh6KPxPEBPIEgIc926dXT55ZfLP8YqUo8L98NMC2j8bCU2BR6nxIf1xbnDecBFuGnjJnlReoJ9K1eulK+xsvEMFdWovPnmm7Ih0fqNKw96R7fBtm3b5GwceGkQbbj4ShiZJkCcDPTrLFu2LOiOcbSuGGkDMcYiNnSkCNcztVSOw1SzE86WpUkraOa4TydGsSlLpywfUPtinICBmHDuMNZW9l35+SvQeOI1eC28nHiJ6X0B8alGxTXhWxPWd4W7aPrqDw11fBzi+GrS888/L11vWMtwRIj/5MYbb9QfuWOaADFIG+M0wwEnFP1XkbQ4QVOeIefmYVPYCo/p9+IAp/g8RgqYBC5QTDhFh3go8y/xWng5jz/+eNy6pDAKGCLm2agUlhyjKStn0EMLR9GMb+bT3e8MF4/foSI7GhNNInC7X3nlFTk/NViUF4HiY8+PfV7f645pAkxPT49oQOw555yj34s9MhYsreySxBQLYz+MZwwXDNDHbPp4BdelEYyGunP6UJrzw3LKTE2Rm616hXz80JwX6bPdrnG4cCODcbNhOOCyIpxCWAWPzpcXYZoAEwVbdfcTopBWsMzg+sXCJYXo1MbEhGnrZ1FRaon+yEVmchLt//UAfbX5c31PcMDdhFARWyKcQljlj9+8AH0hrSBqvUB40RSftwyrElym9SNX4tl6mQkE543D5D5I3xdwu7FhzCfGqGIcbjD85gVoP3Ncv+eOTMocFTFoUUVIJSgioopYvkQaAletpn93O6tGA/2ed5S7ifKFGzZsCLlYE1tAQbLN4dyAFB8ykb8Kfx8iZKosmaLNq5PmI8ElXMnUX7030BAeBiKowQnIlAYzA8eT37wAU6v7SBQpayREmHysLHZWkIktSTYqKfc2r0wgRJaW5i4qlCVUXS0YiIBYDxnScGELKEhO9TgBbh3kGWQ/EMUO5mA7+Sv1/cXrQNXE5s3ew+m+S3tR2akKKtH/cwgS26B299ID+T3EHnhGDqpf/wKZWEFXy9YtW70OTgiVgAKM51nUkXIspYzKK7SSAW4ihPUzCkDcrzgYmQD8Dm/zTL6o7/YUYYqPlpoJChT0OnTIfdZLbVsd6te+B/3zLy/RdXVaSSFCkP+5/xXq1eJ6ysmso79SAzFeoMEJoRBQgJ79JlUZiLCirES/8BEXqNhA3Orz8YKeF+iB3+FtwSRffGTpog0muf7jH/8Iq+IcBjOPGzcuov5fM0H3AMoUosoDfqu+V2xJdEFGPXqm5zCa98BEIchbhTAxkVn95zh36vxp1jBasAtqwFGeItxPDADwEpQ7REN0ULdAYYowEcBFGmrRWVUYCZlAVFuLZ+DR4fjUojLa8UEGmhRcSwXERhoswGqFTjfUbkeJAx8ZMQArqMaJoiZMFQUiVEVnGzRoIEtReqvuhX147oorrpAl7ROluC9+I34rxin7Pj51fs31PKqcAMMakS9EKK0fuh38Adf0sD2yjKi3WDAOOuC9AWvRqlUrmXhAzU1j0Vncxz48h4s5EXMFcJXV8aHkpu+iujhnxvMWPdlUSQsYbCtcO11v5U7nkP1UpnZfJ9le4dzcOFlOFUWGmM0zL2KoihY2znjPEIN6JmRiCC5UJDAwqBjVyBBDIREB0cVrvBcKOAZU/cMx4di0+BfSUJvC83HkRPfTEhTb2bqUXI4W3Lv76RKhLoQioToILyZJST8ucQxRbhuKzqrlCKoSOD4cE44NU7EQ07ri3+gLT2GaAGMylShKwPo5bP4tl5sITwgLGw1LFypnY1QH0Q+4UIP1MBIR1dAgpo1k0ZVgMUWAEB9ak3CG5igwv+zsWXNNTN1U8fuOn6dlOAWV3E0P3J6P+RA1zRIeOXpE3oZTor6qgK6Sw4exeI15wL1Wi654xr/RJOoCxIhwFLTxVYg0WNTYOvNmWDvo/jZ9xRVdwyksf1YQz7k9j4RNURiZ0GBGwviJ9yavfF+/559rrrmGtm/fnhCeCH4jfmuwI0twXbz66qu0efNm049Pxb+IDyHEaK/IFTUBqtm/8J0xKjzSlUNhAVGhCtM7IMKwspt+SaamGRfS/idWUf9mXYgKj7tZuEAuqbRIqnM+Uvx0xDt/U/EhGtnhSdlRLK1fgJ+Hixm1eOBFxOsMdaAabGQiQxnaBUGgOpsqI2gmKj5EH2c0FuU0ErEAIQxMx0A9ELQOnlXPIgVDf4yFcaImRP26xmInr/V8hj4d8AHl12giL3QQyB2VyISMsIJRjwfhbmIrJUdZId2eexXtGryKxna5XxsalSS+M4ifhwsajVg8Fk3ybLDDWXMdc+5wfFj8BI00xGymRYQQVf+oig8jDQUCLs6Sl5fndX0BHCgOGtPun3766YgtXjBgxMVTTz0lW3Yshe0tGQCRovxhKPVMjKBEwYD/vkxHK7SJmLCEEKM3i6jtLyNb/XSy20RbhrL0oS7O4lmASVF6lJrktqG3//Q36pzdSt9pAB8Tgu7RYqPDec6cOXKWtlWJFFw3qKuCTONzzz0XcMZ4sCBREuvVkiB4TGDG97oKPIVGWAKE8BAIjx8/PiojwkMF4/hGjBghW1DP3xaZACGYCiqyH6O3Ny+jYf96lpLrZrmJz9MyQoCUlSYCk8oZyqAFaBSfHv/NuGks3XvxDeJedMN0eCnDhg2TdS9jvXALrhtkGF944YWgZ4yHimqkVQ1TsxsaNCjw0MINu0ISINwG9JPAzXxkYPRGhIcLisVi7buMjAxnh3CkFtBoWVCe7ukPp9LbW+ZLIXpDijNZiDBbiDDD/WQHFKBh2lMSnaSKo8U08KqHaXSH+7Qxib7ODN5m+J3hgKze8OHD5X2zO9NhKTCPDtXWwnE1w8HYSMNYmCVExJ/QCLwyUybkwrQrfz3YWpGxAifzu+++kwNrVYyDEx1RHKCOS1zgiA+n9RlD64fMpY6Zjchx9IT+pAewWp6WLRDGOYdHf6Hbfnc9/Th0CU3pMoxyMoIQX4TAZUKrbWZFcnXd4PxgFkKsxAdUfIgknhll5lViEC4vvifcvEdAC4gvWLt2LT3xxBMRzfw1G1g9TKOB/x/sIo+h4RDx4Wd019zJdKZsTyXXVE6YzRFxh8EKGi0gkFbQKNRfD9HlmZfR+FtVnCcajgo/LbXx69THGPeFSTCxdSigAcRnYthaPFw3Kj6EBY503CpEh8+DdUWDEmnCMaAAGXfkevLLF9KoFZPcRCgTMrUryJaVpCVkBL4EiCLAmHc4o9tUEed1058VBDoTSmx4XRSE54ly27BWB8KOcIQIy4D3Tpw40bQ4L1yQiMK67eE0NBAewq8+ffrIgtNhhzgesABDQgkq2RUfFsym5HRtXKQUY5adbDWSpQi9CvDYQerftDeNuW6oK84zisnzbPgQ2u4Th2j5d6vk/eZ1G1DbZm3EvcgslwKx9ZgxY+T9YOND5eIhI963j3A1TWggooVKRO3YsSNgQ2PM2pphzVmAYQNxJdOXezfSUwtfplUlu7W9qafJdkG1SgK0H91FbXI70YSrR3jvVgDGM+HjAlYWeNnulXQ6rVzfS9QkOZf+esPtdFneFfoe7feFS7Bum8oCPvbYY1J80ewDNhskopDPMCbxFDguWPNmzZrJpKNZ1pwFGAlO62UX8eHndNv7Q4iqnyHKzZbdEkqA9hMVNPePT9NtDQN02fgRYJH9MH34vy/pvfULyFFd22csJisLComL5qLMC+mxG+6h5jnoX8PzkXVj+IoP1QWKfmAMG4zn/IA/PPsPMezsxIkTco1JJHDC7d8LFhZgJDgFqKGs06Rv5tOJHM0iTm3zDD3Q8nZxT7k5EKV6o4c41JlwfqbLyk5d9YEslY61CxT24iTKPK8eHS865BQjhJhcTHRb63zq3aa7e3eG4beGiooPd+7cSampqXJoFkagWNEPbAaID6dOnSqTeb169YqZG80CNAU7zdvzOXXIaSW7MjS9udxRDS+Wyfk67bkNv3xL09fMo62HdziFZ7R0Y24dQCkVQqA7NwoL/KmbQFFWr9qZVOp/zV2yupd2NeELIogTxdtXfLFCJiTatm2bUO5mvMICjDouAbnwFB/w9hptHxI8H63/D83Z/rmbxYP4coWgH+94h4j1MOoCYkKfZ5Kwvkdp7oZFNG/TcnKk292EmFvjAhrQ8S7qlOcRewrxxqKVZ3zDAowLlPjs9NGmpTRx3QyhLZvTrUStytTkZOpz3Z1078Vd5D5fHCg9Qm8tnknL922WsSI+A65qucNB+Q1a0YPd+mpW2dkoeDYETCxhAcYFDlqzYz1N2jif9p/a5+ZuVornpMULzJd7t9D0T2fTTsd++XnSdRXg8+65vCfd1KqT/nneLDYTK1iAFoPEzaiPptD3JT/Ix0osEMqFdZrIOA9FY10iUZbL32lz+ZUYvfPGFx/Q6QztfdVKk2X3BeLDAR360C2tr5P7NXc2XDGyNQ0XFqBFQHj/2ezqVnBmMUXMhj69/lf3prbNrhR71MXtSaDT5hIhllqeuVqLD+HKKuCWXtqgKfVrexu1OR/dCMq6hpqoYQGGCwsw5mhx3tSvZkkBpNfUhadbvQFXdqFuV/xRL42OU+MSUmDUqTS+R+2zyeTO2MWv0zf7Cpx9icioJpfZDPFhttgpBOjjq78r3EVrCjbJ+22btqbmOb+T912wCEOBBWg6LuuAboXxy6e7dxfowut4cT4N7HiTLgAjoQgwEJo48Dte/WSGjA/himJNdPU7EB9isRLte93F9Pwn0+jCvDxq31TLpi7epA2Fw1oKmvWs/B7GPyxAU4H4tL93ysp3pQuoLB5AdhNxnjZypbG+1/UejWgK0AW6LVbt2CQtMWJCNAjIloLsOvXozdufFFbYNVb1v+uWUp1aNelMRgot27BMLt08qtvDtGrTZmrSqL5wYS8WL2TxhQr/YzFg496Nsk8P4sNFDuHVKsmgiT0G0bQ+ow3iix2oLXNL6+vp/fvH0+0XXy9jTyRqYA33C1d15KLX9FdqrP15k4xJC4sO06VNW1DjvItp79491Lt9F9qy+3vxCr6UwoH/NdOx0TsbPhE3rsTGo/l9ad7A1/WB094SHqFYvXBPIb43WfYJPnL1/TSn7yS5Pp4c3pacJONEzLhQlNfAqlEa3xRso22b1lHjBo3k4xK7j4nKTEBYgGZh8CKPlpXIixpxVo8/XEO9WmD8JESm4kPcqvtGNJF4P01iH0ayqPt+N+An0hBPQYhIwqgZFiXVyqj0jAgKZVvgoCbVs5yC7N7mGrrpqi70/ZF9sv+yZcPWcj8TOhwDmoUeO4E7/vk4HS/7RQrw9gvzhcW51/WkGxCLJkTEaLv27abUWtWp/GSxPt/P+B5NWMhsri7YLK3ST0cPUvHpk3I/sNXJoovSc6TLiMSJluBRn6GE6QJdI7fO+quMB4+dKaX3eo7T3WOte+Jvs1+lnvldqKm+LsSW/fto1bYNNPL/+olHvj+X8Q0L0CyMApw9lI6fLgxSgBrIVA6Z94Ic1wk+7POKPnJFA2Ixjv00uri+aFmnKT3ddaDb5xjxL0D83gqau/pzKji+Fy+niy5oaOjIZwGGA/9bcYzsoBdiKKsop+IzuosqhA2hDJwxypnYUV0aZWfLKm1wfdWGWRV4H6xm6GgtSu/2XYXF+4vckMRhIoMFGM/YNevnRpKDxix5jX5KOeYUHhInsG5PtP8LjbjyQef2cIs/U9OsJjLrCvD6g+klspRG6CgLp+JVFbNivzdrzgQDC9ASwr9gD5QeprWF3+iPiM5JP192JbzWc7RM7tzS+gbnhg5ylN1/+bYRdE41LW6DJfzh2E7p4joJGITg9+JSMW6e+NrP+IP/sQQDfW/pSalUJy1DxpS9Lr1OT65ARUbr5LJSbc6/iPrf0Ff29Sm0vjsj2mu9409wamPCgf+5KoFN6A+bOJ1qc55aTVids1vIYWdIriBps/fQbrnfv/AYs2EBJhi1zsmWg6cB3Mn53yyljXvXUZHjsPAURczoFpLh9Cr/Molm93uJ3ug+hib96W90Tz6qVLP4rIYFmGCg2tn52ZjRrg3kLkm102MLJ9Otrw+lO2Y/Ts8smEDTV39Ia3aslXEeZsgXlhwTr66Q3Q+YdoStURY+w2gpGSvgf99MAiY3wsEm67uoeK7k4GE5xw9jONHX+PWJLTTjm/k0/IuJNPjff6c/TxtKd04fSgMXPEdYek3rglCWjy2g1bAAEw0h6k55l0k38qJqTeQuDB+DNVSgu0Ft6CeEOLceK6DJa2dKQU5fjfXOvXRxMDGHBZho6PEdpv9gJgXiuvuvvkcOpD7ffq5ztgUspHPTxYmYEYKcsX0BjfrsXbGHT7/V8BlISGC9NFEhrsMCL8/0HEbvPjCBPn/kfbmO/Js9xtLkbkNoULt7pThRCwbiVLMdVm1fLme3M9bCAkwQ1NIMqJKNMvjYkGDRxOgey0GUGMOJ6U7onIc4YSk75raU7ijAMLfv9xfI+4x1sAATCjs9u2iSjOUmf/2uLN4rkX1/2l1fQJS9O9zi6oz3NsyNiTkswAQBJeiRAc2ue562w2ajhVu+0O5XKnvvCZ53UKm9VHuo40gJoFrGdFiACYKaDdGxfjN5C5D9RK0ZzB30L8JkWZrwjaVzndOW0Jnf/Nzfy/uMdbAAEwoH3XL5TbJ6GZIq6GbAfMC/LnxRdi2g8x2JFcxcVxv2oWP+obnjxWNt+BmyoigGZUUtGsYdFqCZhD/pwScoHfFcjyF0TlK6HNeJbgV0wKvO94cWjqK75w52bo+uGCefw4x8lYCpXlJHVtzWXFPGSliACYdddsQ/ecsgalKzobOvz9j5btzSU9Kl24nXoH8QnffTHxglhOx9VjwTW1iAscSZeQz3b8f7YFYdsiP+X3eOkyNiUFYwL7Wx7ONTglQbXFVM1r3v0l5yXiA677XVkfBZ+u+QlpovBSvgmjBmgX9Vd0GNNWE65eXT2C6oCYNkiKcL6BIBBlJjLCesGFzNube/pg+gNr4Hr8dj9T67PvDaBep/at+lY/hdbvcFmFUxaPHLzu901YRhzIKbvRiQXe9cKT6MQPly9+d079tP0Ge7N4tn8PerUyBuIYiQmkMlRtxiS5L9fcbNJXT9tQbBuXDIRA1mVagsKSb9ZteoKe8z5sECNAvDhT7gD71k5hLAuvxiO0TPLpsgpw6hwJJTfAaOlWlLiAGIwYUSrdqMeD4GEJ631wqSHPTRpk+p26uD5fhQjI5BISe4rnBZNQEbxMtEHXZBYwRcSrkwS+khaQkBYjaskIQFUbq17qjHZlqtz5EfjKedSQflayGIlQ/OEs8YXMmIsMsFPGd++bGsD4NMqnM2hYhTIb5+7XtqjyXehM1EAxZgTLHLMZxvr/iEijOPOYUokyXC2jXL1eKtHft3yXUa8DxisStzLpXFlaIBxI0lrJce3iDdTeNvaFmvmb5WoFpoRVk+FqBZsAAtAG7n5K8WyRkJsD4K47QhBboOkL3UFtAMB01EGC0zc/syWvTVv2VNGLjC6vtyMy+g4Z3v0YUHsN/1G1iA5sECtARNFBt+2U7T18yTBXNV8kNiGCiN6UTaWhIA7wtCDG760azu/G2fuq9LqFvd/tfcJT4fBXY93Vtj3McCNAsWoKXgIq8QQvyevi5YQ0eOHKf9xacot3pNyju3kR4XqgU7oajQhIChaBOWv+5V4J0aXe9nQVC2gLGCBRj3aFYPbqurT8+/JcRrpy55j5bv2+ysFyPdTSG8izIvpP7X9dZdWn9TkliAsYAFGK/oRghJE8z7w9SjRlmNqG+nm+VQNO8itNOcNbNo2vqlzlVv5d7iJDl29NE/9Rfv1ZaXdsfbJcACjAUswDgGy0Lfu2wc1cqpSU0ow9ltkd+gFQ3oeo/eT6eBjv131symnSd3yarZAFYPQ9EGdOhDHZu1Fq+vK/cHRle/ExagWbAA4xxML5r46XvO/jqABArm8w26+m5qeF6uTORgRVs8D5HC5UT2tOPF+TSoQ3dNqFJTxsRKKLAAzYIFGM84DZGD5m/7jN744gNpARHXAbWarXI1AYR3fj1DtwJm0uMzPI2aG0ZhsthiCQswgUBy5e3lC2nJzi+cIlRz/FS3wujug0Wc9wexR6lNF5RfATJWwQJMBDzEA7d07lcf0ar9W6VFzLFl0o2tu1K/9j3Es9EarsbEAhZgAgOLiFoxjbLQl8fCS0RYgImOOnvsXiYkHHEnOhAeiy9hYQEyjIWwABnGQliADGMhLECGsRAWIMNYBtH/A4Hg/hXt33alAAAAAElFTkSuQmCC;" vertex="1" parent="1">
          <mxGeometry x="253.12" y="700" width="100" height="65.63" as="geometry" />
        </mxCell>
        <mxCell id="dCbXYARRjmfmnTsoq2Sv-63" value="Auto Scaling group" style="points=[[0,0],[0.25,0],[0.5,0],[0.75,0],[1,0],[1,0.25],[1,0.5],[1,0.75],[1,1],[0.75,1],[0.5,1],[0.25,1],[0,1],[0,0.75],[0,0.5],[0,0.25]];outlineConnect=0;gradientColor=none;html=1;whiteSpace=wrap;fontSize=6;fontStyle=3;container=1;pointerEvents=0;collapsible=0;recursiveResize=0;shape=mxgraph.aws4.groupCenter;grIcon=mxgraph.aws4.group_auto_scaling_group;grStroke=1;strokeColor=#D86613;fillColor=none;verticalAlign=bottom;align=center;fontColor=#D86613;dashed=1;spacingTop=25;strokeWidth=3;" vertex="1" parent="1">
          <mxGeometry x="220" y="280" width="170" height="540" as="geometry" />
        </mxCell>
        <mxCell id="dCbXYARRjmfmnTsoq2Sv-86" value="" style="endArrow=classic;startArrow=classic;html=1;rounded=0;fontSize=13;strokeWidth=3;" edge="1" parent="1" source="dCbXYARRjmfmnTsoq2Sv-5" target="dCbXYARRjmfmnTsoq2Sv-85">
          <mxGeometry width="50" height="50" relative="1" as="geometry">
            <mxPoint x="-425" y="507.5" as="sourcePoint" />
            <mxPoint x="-375" y="457.5" as="targetPoint" />
          </mxGeometry>
        </mxCell>
        <mxCell id="dCbXYARRjmfmnTsoq2Sv-87" value="" style="endArrow=classic;html=1;rounded=0;exitX=0.866;exitY=1.03;exitDx=0;exitDy=0;exitPerimeter=0;entryX=0;entryY=0;entryDx=0;entryDy=0;entryPerimeter=0;strokeWidth=3;" edge="1" parent="1" source="dCbXYARRjmfmnTsoq2Sv-5" target="dCbXYARRjmfmnTsoq2Sv-83">
          <mxGeometry width="50" height="50" relative="1" as="geometry">
            <mxPoint x="-450" y="640" as="sourcePoint" />
            <mxPoint x="-400" y="590" as="targetPoint" />
          </mxGeometry>
        </mxCell>
        <mxCell id="dCbXYARRjmfmnTsoq2Sv-88" value="" style="shape=image;verticalLabelPosition=bottom;labelBackgroundColor=default;verticalAlign=top;aspect=fixed;imageAspect=0;image=data:image/png,iVBORw0KGgoAAAANSUhEUgAAAgAAAAIACAYAAAD0eNT6AAAABHNCSVQICAgIfAhkiAAAAAlwSFlzAAAOxAAADsQBlSsOGwAAABl0RVh0U29mdHdhcmUAd3d3Lmlua3NjYXBlLm9yZ5vuPBoAACAASURBVHic7N13dBzV2cfx7+5q1XuxJRfcC8bduBswhF5CNaGGl9BD75AQCAECoQUILRB6DR1C72AwtnHBNu69SbJsWb1rte8fY4gDttHO3N3Z1f4+5+jIx+jeebB2Zp65985zPYhIrEkEioACIB/I+8lX/rb/lrXt59MBP+ABsrfrI23bn+uA5m1/rtj2vQWo3fbnSmAzUL6Dry3b/lvJdn2ISAzwuB2AiOxQDtB7J189AJ97oe1UBbBqJ1/rgFb3QhORn1ICIOKuHGAPYBQwaLs/J7sZVBi0AsuAhcAiYPa2P69yMyiReKYEQCRy+gATsG7wQ4BhWEP28WwLMH/b1xzga5QUiESEEgCR8EgABgATgUnA3lhD9/LLSoFZwFdYCcG3QJOrEYl0QEoARMxIAMYDBwJ7AaOBVFcj6jjqgZnAVOBD4Bsg4GpEIh2AEgAR+zoB+wBHAIdjzedL+NUCnwP/Ad4FNrgajUiMUgIg0n4+rOH8g4FDgKHoHHJbEPgOeB94D5iGRgdERMQAL9ZN/16sd92D+orqry3A01ijMgk7+H2KiIjs0iism/5G3L+p6cve14Ztv8NJaKRGRER2YShwF1bRGrdvXvoy+7UWuAMYjIiICFbBnSnAR7h/k9JXZL5mAWdjlUgWEZE488MQ/1bcvyHpy52vKuCfWJ8FERHpwNKB87Aqzrl989FXdH3NAs7hvxskiYhIB9AZ+DPW7nVu32j0Fd1fVVgjQ90Q6eC0MlY6siHAZcBJWNvfdhhev4fUQj9J2T4Ss3wkZvpIyrL+nJT5w9958fo9JKR48SR48AD+dO+P7X3J1p8DjW20tQQBaKlts+6ErUFaG6y/b65uo7kqQFN1wPpeFaD5hz9XBqgvbfmxfQfSBDwH3I21aZFIh6MEQDqi/YErsMryxuxnPLWzn7SuflIL/aQV+kktTLD+XOQnOTchev7PgtC4tZW6khbqS1qo37Ttz6Ut1BW3UL+pxe0InQhiFRi6C/jU5VhEjIqWS4iIUx6s4i83AsNdjiUkCaleMnsmktUniczeSWT1tr7707xuh2ZES20bVauaqF7V9OP36tXNtDa0uR1aqGZjTSW97XIcIkYoAZCO4GDgL1gb8EQ1j89Ddt8kcgenkDc4mez+yaQV+uPvTAxCXUkLlcsaKf++gfLvG6la2UQwEBNTCdOB67FeHRWJWfF22ZGOZRJwEzDZ5Th2KiHFS1afJPKGpJA3OIW8ISk/zsPL/wo0tlG5vGlbQtDA1u8baa6J6rL+04A/oakBiVFKACQWjcd64t/f7UB+yuOBrH7JdBqVSsHIVPKHpeBN0GlmRzAIVcsbKZtdT+k3dWxd2EAwOgcIvgb+CHzhdiAiodCVSWJJX+BO4Ei3A9leUraPTnum0XlMKp32TCMp2+d2SB1SU2WATd/WUTazjk2z6mmuirrRgdeAK4FVbgci0h5KACQWZALXARcTJa/zpRQk0HWfDLpOziBn92Q8OpMiKhiEikUNbPi8luIvamjY0up2SD9oAv4O/BWocTkWkV3SZUuimRc4BfgbUOhyLCRm+Sgck0b3AzMpGJmqm36UCAZh6/cNbPyiho1f1NJYHhXJQAnWGwOPAVE3VCECSgAkeu0N3AOMcDMIf4aPbvtm0G1yOnnDdNOPdsE22DK/no2f1bDhsxpaal1/1XAWcAnWOgGRqKLLmUSbzlhDqCe6GUTekBR6Hp5F170z8CXpNIlFgaYgG7+oYc07VZQvaHAzlCBWVcHLgM1uBiKyPV3ZJJpMAR4E8t04uD/dS9fJGfQ5KpvM3kluhCBhUru+mbXvV7P2vSqaKl0bka8ArgEecSsAke0pAZBo0AtrW9YD3Dh43uAUeh+VTZe90vH6dUp0ZG0tQYqn1rLy9Uq2LnRtVOB94FxgrVsBiIASAHGXFzgTq856eiQP7PFA53FpDDgpl9w9UiJ5aIkSlcsaWflqJes/rXGjAmE9Vi2LO9EiQXGJEgBxyxCsFdIRLd/rS/bS85BM+hyXQ1qRP5KHlihVV9zCilcqWPteFYGmiCcC07GSYO04KBGnBEAizQNcivWedMQm2pOyffQ9LoeeR2SRmKFCPfJzzdUBVr9VxcrXKiK9TqARa23AfVgLBkUiQgmARFJn4HHg0EgdMDHDR+9jsuk3JYeEVNXgl18WaGxjzTtVLH1ua6QTgY+B04DiSB5U4pcSAImUo4BHidAK/4RUL72PzKb/ibnafEdsaW1oY9UblSx7YWsk6wlsBs4C3ozUASV+KQGQcEsBbgMuisTBfMle+hydTf8TcvBrqF8MaK4JsPK1Sla8XEFrfcQSgWeA84C6SB1Q4o8SAAmnkcALQP9wH8jj89DriCwG/jZPm/FIWDRVBlj8ZDlr3q4kGJk8YAlWQazvInI0iTtKACRcTgUeBlLDfaCCEakMOb+ALBXvkQioWdfMggc3s2lmRB7OG4ELsN6YETFKCYCYlgTcTgSG/NO6+tnjzHy67pMR7kOJ/EzpN3XMf6CMuuKWSBzuEeBCoDkSB5P4oARATOoKvAKMC+dBfMle+v0mhwEn5apyn7iqrTXI6jcrWfxkOS11YZ8XmAUcC6wL94EkPujqKaZMBv4NdArnQbruk8HQCwtIzk0I52FEQtJY3sq8f5RR/GVtuA9VChwPTA33gaTj02opMeEy4GkgbGPxKfkJ7HltIQNPzSMhRa/1SXRJSPXSbXIGWX2SKJ/fQGtD2EYD0oFTgGpgRrgOIvFBIwDiRALwD6yNTcLDA7vtn8mQCwpUwU9iQktdG4uf2MKq1ysJhreu3+NY515EFiFIx6MEQOxKxxryD1tVv7QufkZc3pmCEWF/kUDEuPIFDcy9axM168K6bu8jrG20q8J5EOmYlACIHd2Bd7A29DHPA32Py2HQGfn4EvURldgVaAqy6F9bWPFaRTir/M8DDgc2hO0I0iHp6iqhGgq8jZUEGJeU42PkVYUUjk0LR/ciriibXc+cv5XSsKU1XIcowUoC5oTrANLxaFJVQnEg8B5hWunfZVI6E2/vRlYfFfSRjiWti5/dDsykdkMLtevDMiWQAZwMLACWheMA0vFoBEDa6yzgIcKQNPqSvQw9v4Ceh2WZ7jouBdusrW2bqwI/fm8LBAm2Qeu2d9UDLUECjdaffclefNvqKSSkefF4wevzkJjlIzHT9+N3j16+MGL1f6pY8GAZgaawzAm0AmcDT4Sjc+lYlABIe1wC3E0YPi/Z/ZMZfV0h6d0STXfdIQUDQRo2t1Jf2kJdqfW9vqSFutIWmioCNFUFaKkJzxa2iRlWMpCU4yOt0E9qkd/6XphAaqGflIIEPD5dUtqjZl0zs24poXJ5Uzi6DwIXY72hI7JTOlvll1yNtZufcbsdkMnwyzrjS9LHcEdaagJUr2mmclkjlcuaqF7bTM2aJgLN4X23zC6Pz0NqpwQyeiaS3T+ZnP7JZPRMJK3QryvNDgSag8z/Rxlr3gnbAv4/AzeGq3OJfTotZVduBa4x3anX72HYhZ3oebiG/H/Q2tBGxZJGyhc0sHVhIxVLGmkO05N8pCVm+MjZPZncPZLJG5JC7sBkfMmaT/jB6rcqmX//Ztpaw5LY3QJcF46OJfYpAZAd8QD3Ym0+YlRKQQJjb+xCzsBk013HlNb6Nspm17NlXj3l3zdStbKJYCA6n+xN8/g8ZPdNIndwCgXDUigYmUpCanwnBFsXNTLzz8XhekvgXuBSwvkiosQkJQDyUz7gn8AZpjvOH5rC6OuL4raOf11JC6XTaimdXseWeQ3heuKLOR4vZPVNpnB8GkXj08julxyXV6bmqgAzbyph85z6cHT/LHA61iJBESAuTzPZBS9WedHTTHfc59gchpybH1eLxIJtsOW7ejZ8XsOm6XXhfAe8Q0kpSKBwXBpd980gf2hqXL19EAwEWfDgZla+XhmO7p/ESuzDvm2hxIb4uRrLL/EADwDnGe3UC0PO70Sfo7NNdhu1gkHY+n0DG7+oYePntTRu1U3ficRMH4Vj0+g6OYPOY1LjJoFc83YV391bFo5poQeBC9B0gKAEQP7rTuBykx36kr2M+VMRheM7flW/mrXNrHmnig2f1dBYrpt+OKTkJ9Btvwx6HJpFxm4d/7XRkq9r+fbmknDUC7gDuMp0pxJ7lAAIWK8KXW+yw+TcBMbd0oWcAR13sV9bS5CSabWsebuKsjn1eqaKoOz+yfQ6PIvu+2d06DcKqlY28c21G8MxfXQD8BfTnUpsUQIgVwK3m+wws2ci42/tSmpnv8luo0bN2mZWvVnJ+o+raanVdKqb/Bk+dts/g16/ziajR8ccFagvbWHatRupWWu8hPDlWAW+JE4pAYhvvwfux+DnIH94KuNu6oI/reM9lW2eW8+KlyoonVmnp/1o44HCcWn0m5JD/vCOt310S20b06/byJb5DSa7DWKt+fmnyU4ldigBiF8nAs9h8DPQeUwaY2/s0qEq+7W1Btn4RS0rXtoarrKtYlh2/2T6HZ9D133SO9SiwUBTkBnXF7Pp2zqT3bYBJwAvm+xUYkPHOTskFHsBHwHGtt3rslc6o/9UhDehY3yk2lqDrH23imXPb6W+TIv6YlFqZz/9T8qlxyGZHedz2RJk5k0llHxVa7LbRuBXwDSTnUr06xhnhYSiD/ANUGCqw277ZbDntYUd4mkrGITiL2tY+OgW6opb3A5HDEjtlMCAU/LocUhmx/iMtsGcO0pZ90G1yW7LgQloK+G4Evtng4SiAOvm38dUhz0Pz2L4pZ3xxPgnKdgGGz6pZvHT5dRt7BA3/jpgy3Zf1VjDvT/sPNME/FByLpX/jgZlYRWEysT6vOQDeUDMv8uZ3i2Rgafl0W2/jNj/vAbhu7s3md5IaBlWElBuslOJXjF+GkgIUoBPgPGmOux7bA5Dfl8Q85+istn1LHhwM9WrY2aOPwisAVZu+74GWL3t+1qsC3ij4WMmYyUCPYBeQM9tX72A3tu+x4Ss3kkMOb+AghExvlgwCPMf3MzKVytM9voVcADmPz8ShWL80i3t5AVeBKaY6rD3kdkMu6hTTH+C6ja2sOChzZRMMzqfalodMBdYAMzb9v17rCf6aJIJDNn2NWzb9+FE8chBl0npDD63gLQuMfy6ahC+u7eM1W8ZLR38InASetelw4vhy7eE4DbgalOd7XZwJqOuLIzZT09LXRtLny1n5auV0bghTzHWU9g04GvgO2J3A5cEYATWsPKkbd+7uBrRT3j9Hvoel8OAk3NjdkfCYBDm3G58TYC2EY4DMXoJlxBMAf6Nod9118kZjL6uKGY3aNnwaQ3zHyijqSLgdig/qAM+Bd4DPgBWuRtO2PUBDgIOAfbDWn/guuS8BIZeUEDXfTLcDsWWYBt8e1MJG7+oMdYlcCzwuqkOJfooAejY9gCmA+kmOiscb73nH4uvVDWUtfLdvZso/cboO9R2rca6sL4HTMVakBePkoG9gYOBo7HWFLiqaEI6wy7pREp+7G1Z3dZq1QkonW7sM14NjAGWmupQokvsXcmlvTKAGcDuJjorGJnK+L92xZcYYx+ZIKx5p4oFD2+mtd7Vsr0bgNewCq58jeZXd2QPrBGrU7EWFroiIdXLoNPz6H1MTsy9LdDWGmT6dcVsmmksCViKlQRE25oTMSDGPt7STh6sJ8wjTXSWMzCZve7uFnObrtRuaGbOHZsoX2C0fGooqoDnsSouTkM3/fbyYq0XOAWrYmWmG0HkDUlh1NWFMbdIsLWhja8u20DFUmML+V8Bjkef3w7H53YAEhbXYdX4diy10M9ed3XHnxFbH5V1H1Yz/bpit97pn421w+LpWInYejeCiGFBYB3wNnAPMB/IIcKjAg1lrax5p4qEFC+5g1IieWhHvH4PRZPSKZ5aS0uNkVGvQVhrVVQpsIPRCEDHcxDwDgaSO3+Gj33u6x5Tu6w11wSYe9cmir+M+Kt9dcBTwENYr+mJeUOwEtvTiPDiwa6TMxhxaaeYSoRr1jbzxYXrTO1Y2Yp1bfnURGcSHZQAdCxdsN4Vz3fakTfBw4Tbu1IQQzurbZ5bz+xbS8Oxd/qulGLtqPgwqqAWKXlYO1meD3SO1EFTOiWw57VF5A+LndGAzXPrmXb1RlOvu5YBQ4FNJjoT98VOOiu/xIs1VzfEcU8eGHl1IV0mGnl5IOyCQVjyZDlz79xES+QW+i0GrgV+B3wGuLbQIA41AF9iJV7rgP4YSHp/SWtdG+s/tNbC5Q1LjYkFgmlFflI7+U0Vu0rDWqj5vInOxH1KADqOyzA077/7aXn0OSbHRFdh11rfxrc3lbDmbaM10XdlDVZRpbOw5vqjpqBAHGoF5gAPAguxKg/mhfugW+Y1ULm0kcKxafiSon9hbFbfJAhacRvQD2uka6aJzsRdSgA6hmHAC1iV1xzpOjkjZkr8Vq1o4qvLNrB1UUTKlq8FrgDOAL5FK6KjSRBYhDUNsx7rfMgK5wFrN7awcWot+cNTSc6J/poBBcNSqVnbTM3aZhPd7Qu8iTUlIDFMCUDsS8GqIFfktKPMnomMv6UrXn/03/3XfVTNjOuLaaoM+wP4VuAarIVns7B21JPo1IY1IvAQ1lPqWKzzIyxaatpY90E1qUWJZPVO+uUGbvJA5zFplHxdS3OV43MmAdgLeILYLVMtKAHoCO4BDnPaSUKql4m3d4v+CmhBWPx0OQvu30wwvPf+VuBfwDFYc/wa6o8dAawKmI9iJQCjsNbIGBcMsO11uwCdRqdF9boAr99Dpz1TWf9hNW0tjgewOmNVGP3AeWTiFiUAse1grATA2WXHA6OvKyJ/aHSvbm5rCTLr1lJWvWF057Md+RTrxv8YUB/ug0nYNADvY1Vf7IM1fx0WFYsbqVnbTOH49KgulZ2Y6SOjZyIbPjOyZ8BYrFGx5SY6k8hTAhC7soEPsUr+OjLglFx6H5XtPKIwaq4K8PXVG02WON2RTVhz/FejV506ki1Y1RiXYQ1dh2WL4pq1zWyZ30DRxPSoXhyY0T2RtuYg5d87XhToAfbBSpTjdT+LmKYEIHb9A+vkc6TTqFRGXlkY1UOXdcUtfHXFBqpWhPUa8zLWVMq34TyIuOp7rGmdXGAkYVjq2lDWSvGXtXQenUZiVvReXgtGplKxpNFEpcxMrIeRd5xHJZEWxZd92YV9gU9w+PtLzkvgV4/1IDEzei9Ulcub+PqqDSYWLu3MKuAc4ONwHUCi0oFYbw30CkfnSdk+Jt7Rjaw+0bs4sKkywKdnraWx3PE6viAwGas2g8SQ6L3yy86kAO/i9H1nD4y5viiqVy9XLG1k2pUbaa4O283/GeAIYEm4DiBRayXwCNYU2ljTnQcag2z4rIb8YamkFETnwtqEZC9ZvZNY/7Hjjf48wESs0RW9FRBDlADEnluwblqO9Ds+h95HRu+8/5b5DUy7eiMtdWF5664Sa6OemwAjL0ZLTGrFWiS4ANgfw/sLtDUH2fBpDbm7J5NWFJ07CqZ18dNS20bFYse1NPKwEgHtFRBDlADElmHA4zj8vWX2SmL0n4rw+qJzBmjTzDqm/3Ejgcaw1Nr5BGv495twdC4xaTHwNDAY6Guy42CrNRKQ1SeJjO7RualWwYhUSr+po6nC8UjbBKwdHEudRyWRoAQgdiRgnVzdnHTiS/Iw6Y5uJOdF57Bk6Td1zLi+2MR7yj8VAP4EnA04HvOUDqcWq5pmAGtxrbHsONgGxV/Wkt03mfQoTAI8Pg95Q1JY936109oaXqzFlY+jSpkxQQlA7LgQa9jakaHnd6JwXFjegnKsbHY90/9UbGrnsu2VY73X/6TpjqVDCWItZPsWOBSDVQSDbVDyVS25g1KicjogKSeBhDSfiddsu2K9Qqu3aWKAEoDYkA+8isMLUufRaQy9IDrr/JcvaOCbazfS1mz85j8Ha353tumOpcNagfVa6D5AoalOgwHY+GUtBcNTSOkUfUlA7sBkti5qoK7Y8auB47CqMEZkkw6xTwlAbLgD2NtJBwkpXibc1hV/evT9yiuWNvL1VWGZ838G68l/i+mOpcOrwPr89MLEFtvbBFuDFH9ZS6fRadE3DeeB/MEprHm3mqCzUbhUrIeV980EJuESfXcD+anBWNm0o9Jig88toPPo6Bv6r17VxNdXGF/tHwRuBC4FHD/OSNxqAV7HOvccF936QVtLkOKptRSNTycpO7ouwf4MH74kD2XfOq6APRJ4BSXfUS26Pn2yI8/gsIZ5zu7JjLisc9RV+2ssb2Xq5RtMrD7eXjPwO+A+k51KXPsMWIO1LsDINTPQFKTk61q6Ts7AnxZdZYNzdk+hbFYdDZsdvdLvAwZgXb8kSkXXJ09+6iisV9Zs8yZ4rFK/Ufabbq1vY9q1G2koM1o3pAJrgyRddMS0p4BDsGpIGNGwpZXp122ktSG6dpj2eGDEZZ1NbGq0PwZ2KpXw0QhA9EoC3sCqW27bgFPz6DbZ8X5BRgUDQWbcUEL5AsebkWyvBKtE8kyTnYpsZzVWFc6jsbbCdaxxa4DqVU102zczqkboknISaGsJUj7f8Tk6CqviorbTjkJR9lwo2zkfh0VJMnokMuAkR/lDWMy7r8z0rn7rsOZoF5rsVGQHFmB91tab6rB0eh3z/1FmqjtjBpySZ6JuwQDgXAPhSBgoAYhO6cA1TjsZdmEnvP4oeqwAlr9Uwer/VJnscgXWGxLak1wiZRnWZ26lqQ5XvVnJilcrTHVnhC/Rw9DzC0x09QfCtAWzOKMEIDpdBDg684ompVMw0mhpc8c2z6ln4SObTXa5COtCvNZkpyLtsAbrs7fIVIffP7yFLd85Xn1vVOcxaSYKh3XGGtGUKKMEIPpkAZc76cCb4GHw2fmGwjGjoayVb28uIWhuvdNyrEVGJcZ6FAlNMda6k8UmOgsGgsz8S4nT1ffGDT3fyEjiVUCmgXDEICUA0ecyHC786zslh/Ru0VNzvK0lyIwbimmqNLYOaB1wALr5i/vKsN7UWW2is6bKADP+HJa9MGxL6+qn91GOdw7NwxrZlCiiBCC65AGXOOkgKcdH/yhb+DfvvjIqlhqrCroR66lLw/4SLTZgJaTFJjqrWNzI/Puja1Hg7qflkZzruHLhFUCOgXDEECUA0eUKHA6T7XFmflQVFln7fjVr3jG26K8Ma9h/lakORQxZiZUEGFnksvo/Vaz7KHo2rUxI9TLwtDyn3WRhjXBKlIieO4V0wtrxz7asvknsdnCWoXCcq93QbPL1pnrgcGCJqQ5FDFsE/BowUuBi3r1l1JVETyXrnodlkdk7yWk3F2ONdEoUUAIQPS7G4asyg36XHzXFRIKBILNvKzVV5awNOAVtMSrRbzrwGwwUvmmtb+Pbv5SEY3tsWzxeGPR/ju/dGTh80BFzlABEh1TgHCcd5AxIpnBs9Lxqu/ipcrYuMjbvfxnWpiwiseA/GKjjAdZOmUuf22qiKyOKJqWTMzDZaTcXoLoAUUEJQHQ4A4fDYoPOzIcoefovX9DAsueNXbT+CdxrqjORCLkTuN9ER0ufLmfLPKNlsx0xsBYgDzjVQCjikBIA9/mwhv9tyx+aQqdR0VH0p7W+jVl/LTX1vv9HqICIxK5LgU+ddhIMwuzbjU2nOVY4No3cPVKcdnMpuv+4Tr8A9x0N9HHSwe7O5+WMWfivLdRvMrJwaR1wEtpERGJXKzAFAzUC6ktaWPR4ufOIDBl0uuNrTn+sBZPiIiUA7nP0WkynUankD4+Op/+tixpZ/aaR3VIbgWOBLSY6E3HRVqzPsuMx/FWvVbB1YXRMBRSMTKXA+XXHUcVTcU4JgLsmAuOddGBgPs6ItpYgc+4oJWhmwfLvgVlGehJx31wcTvOBNRUw9+6yqHkrwMC1ZxIwzkAoYpMSAHc5evrPHZRM3mDHc3FGLH12KzVrm0109S/gCRMdiUSRR4EnnXZSvbrJ5AJbR/KHpZh4I0CFgVykBMA9RTicA+v3m+go+Vu9ppllLxi5KC3DYSlkkSh2Idb21Y4sfW4rNeuMJNuO9TvecWXfo4BCA6GIDUoA3PM7wHZx7bQiP0UT0w2GY9+CB40MS7YCvwXqnEckEpVqgRMBR6tk21qCJitsOtJl7wzSuviddOEHTjMUjoRICYA7PMDpTjroe3wOnij47RV/VUvZLCN7mF8PzDDRkUgUmwXc5LSTstn1lE53P1f2eKHPMY5HAc4maqqYxJcouIXEpf1x8OpfYqaPHge5v7V2W0uQ7x82svfJl8DtJjoSiQF/Bb5y2smChzZHxYLAHodk4s/wOemiN9YOnxJhSgDccZaTxr2PzMaX7P6vbsUrFdQVO37nvwGrEqLe95d4EcCaAnT0Tl/t+mZWvW7ktVtHElK89DrC8SZkZ5qIRULj/l0k/nQCjrTb2JvgodeR7u/411QRMFWj/M8YWBglEmOWA39x2smSZ8ppqnQ/d+5zdDbeBEej+MegXQIjTglA5J0GJNptXDQxneRc22sHjVnydDmt9Y5Lk84B7jYQjkgsuhP4zkkHLbVtLH3W/QqByXkJFI5ztL9PEtofIOKUAETeGU4a9zzM/af/+k0trHmnymk3rVjDfq3OIxKJSUbOgTVvV9Gw2f3TqOfhjq9Njq6NEjolAJE1Ehhgt3FqoZ+CKNj0Z+mzW00sProHq0KaSDybDfzDSQeB5mBUjAJ02jON1E6ORicHA0MMhSPtoAQgsn7jpHHPQ7PwuPyyTF1xC+s+qHbaTRlws4FwRDqCG4BSJx2sfa+auhIjm3DZ5vFCj0McjwIcbyIWaR8lAJF1rN2GHp+H3Q52/9W/JU+Vm3j6vxZwPIcg0kHUYCUBtrW1Bln6rPslgnscmuW0PsmJhkKRdlACEDljcPDuf+HYNFLy3V38V7u+mfWfOH76n4OBmugiHcxjOFwQuO7Dauo2ujsKkFKQQOcxjhYD9gFGGApHfoESgMhxNLQVDYv/lr9UQdDZ4sjUKwAAIABJREFUwv8gVq1/x68PiHQwARzugxEMBFn+kvujAD0PdXytcjRVKu2nBCAyPMAUu40TM310Gu3u4r+migDrP3L89P8GMNVAOCId0RfAW046WPdhtet1ATqPTcOf7ujWcjwqDRwRSgAiYwKwm93GXfZKd1pkw7FVb1QSaHY0998G3GgoHJGO6jocjJAFmoKsftPd6oBev4eiSY42KusFjDYUjuyCEoDIsP30D9B1coapOGwJNAVZ9Zbji8pLwDwD4Yh0ZAuAV510sOrNSgJN7u4R0M35NUtvA0SAEoDIOMxuw6RsHwXDU0zGErK171fRXOVoWDGAnv5F2us6HOyN0VQZYN2HjqfrHOk0KpWkbEcbBNm+Zkr7KQEIv35AX7uNu+yVjsfn4vB/EFa+5vjp/1lgiYFoROLBMuAFJx2sfK3CWnLrEo/PQ9FER9MAA7GmAiSMlACE38FOGnfd193h/y3z6qld3+ykizas7U9FpP1uwcFagJq1zZR/72izQccMTF06unbKL1MCEH6H2G2YnJtA/lB3V/8bqPn/JtYTjYi03xLgbScdrHnb3VpbBSNSScpxNA2gBCDMlACEVwow2W7jwglpTqtqOdJcHaB4aq3TbrTbn4g9dzlpvPHLGlpq3Hsl0OOFwvGOpgH2w9olUMJECUB47YOVBNhS6KyilmPrPqp2+urft8BXhsIRiTdfAtPtNg40BVn/SY3BcELX2Vn9knRgkqFQZAeUAISX7eF/b4KH/BHuDv+vdT78f7uJOETi2N+dNF7t8jRA59FpTmuY2L6Gyi9TAhBetuew8gan4E9z79dTsaSR6jWOFv+tB143FI5IvHoV2GC3cfWqJiqXNxkMJzQJqV5ydk920oUSgDBSAhA+XYD+dht3Huvu8P+GzxwPHT6Og3eZRQSwzqEnnHSw8XOXpwGcTWUOAgoNhSI/oQQgfBzNXXUe4+LwfxCKv3S0+K8NhxctEfnRozhIpjd8Uu1qTQCHCQBYpdQlDJQAhM9Euw1TChLI7One4tfyhQ3Ub3K0rej7wFpD4YjEu/XAx3Yb15e1UrG00WA4ocnum0RynqOtzG1fS2XXlACEj+2stdPoNFf3wtr4heNX/x41EYeI/MjROWVgSs8+D3Ta09GIphKAMFECEB5pwHC7jfOHulf7Pxh0PGdYhsMCJiLyM28BW+w23vhFjavTAA6vaSNw8Dq17JwSgPAYC9ge88ob7N5nvWJxI43lrU66eA1w1IGI/EwLDt6qaXB5GsDhNS0RGGMoFNmOEoDwsD1klZTjI62L32QsIdk0o85pFy+aiENEfubfThpvmun43LYtvVui090BNQ0QBkoAwsP2h9Xt2v8OLxKlqPKfSLh8Dmyy29jNBAAP5DobBVACEAZKAMzz4GC4KncPR0UzHGmqDFC5zNEw4cvo3X+RcAlgFQaypWJJI83V7p2eDqcBxpmKQ/5LCYB5uwE5dhvn7eHe/P+mb+sIOlso9LKhUERkx2yfY8E2KJtVbzKWkDhMAHKBboZCkW2UAJg3zG5DX5KHrH7uvf/vcP6/AvjGUCgismNfAZV2G7s5DZDdPwlfkqP3m4eaikUsSgDMG2y3YXb/ZKcbZ9gXhM1zHD0dfIhW/4uEWysOigKVzXZvBMCb4CG7n6MpTiUAhikBMM/2hzS7r3tP/7UbmmmqdDQ/+J6pWERklz6w27CxvJW6YkdVPh3J7O3oGjfEVBxiUQJgnu0EwOHJ4Uj59w1OmgexRgBEJPzex0FZH4fnuiNZvROdNNcIgGFKAMxKBvrZbZzZy80EwNHq/7lAiaFQRGTXNgDf223sZgLg8CFnIODeRbIDUgJg1h7YrADo8UBmL0fZsSMOLwqfmIpDRNrF9jm31dURgCQn+5wkYCUBYogSALNsz1GlFvlJSHHn19FcFaB2Q7OTLrT6XySyvrbbsHptM8017tQDSEj1ktrZUaVTTQMYpATArP52G2a5OP+/dVGj041CbF+MRMQW++dccNs57xKH1zrb11j5OSUAZvWy2zCzj3sJQOUKRxeD5Vg7AIpI5JQAK+02rl7ZZDCU0GQ6WwjY01AYghIA03rYbZixm3vz/9WrHQ3/TzMVh4iExPYoQNUq9xKAjB6OHnZsP2TJzykBMMv2hzOtyL0dAKudXQyUAIi4w/a55/Ccd8Thta6noTAEJQAmpQCd7TZOLXQnAQg0BZ0uAPzOVCwiEpJ5dhvWrG8h0Oxs4Y9dqZ1tvSj1gy5Yr1uLAUoAzOmJzRdcfMlep3tl21a9polgm+3mbcBCc9GISAgWYJ2DIQsGgtSuc5T425acm+BkTwAP1oZrYoASAHN62m2YVugoI3bE4fz/SsDFTcZF4lodsNpuY9fWAXgcj3hqHYAhSgDMsf2hTHVx/t/h8L/tIUgRMWK+3YZ1G93bE8BhLYCehsKIe0oAzLH9BoDDk8GR+lJHF4EFpuIQEVtsn4N1zs59R7QQMDooATCnk92Gbr4B4DABWGIqDhGxZbHdhvUlLo4AOLvm2b7Wyv9SAmBOvt2GKQXurQGoL2110tz2/KOIGLHGbsM6FxOAlHxH1zzb11r5X0oAzLH9oUzMcucNgEBTkMYKJQAiMcz2Odi4tdW1VwEdXvPyTMUR75QAmBNzCUB9aYuTPQDqgC3mohERG8qAelstg9BQ5s4oQGKmo2ueRgAMUQJgTq7dhokZ7iQADZv19C8S44I4mAao3+ToGmCbRgCigxIAM3xAtt3Gbo0ANFU52hJ0jaEwRMSZNXYbNju7BtiW5Oyal4PuXUboH9GMPGz+WyakePEl2q6K5UhzpaPsv8RUHCLiSKndhs3V7iQAviSPk2qAPqwkQBxSAmCG/fl/Z3NhjjRX268BjOb/RaKF7XPR4SigI1oH4D4lAGbYH/7PdO9X4DD732oqDhFxpNxuQ7emAMDx1KdGAAxQAmCG7d2p/OlujgA4OvltX3RExCj7CYBLUwDg+NqnHQENUAJgRpLdhl6/O/P/4Hj4T1MAItHB9rno5giAz9m1z/Y1V/5LCYAZiXYbupkABBodrQHQFIBIdLB9LrY2ulMICMDjrACqEgADlACYEZMjAG0tjk7+BlNxiIgjts/FYKt7CYAv0dHtx/ZDl/yXEgAzYnIEwGEC4NJm4iLyE7b39A44uwY44nU2AqAEwAAlAGbE5giAsyJgti86ImKU7WTc4UOAIw6vfZoCMEAJgBn2RwASYnYEQAmASHSIxwRAIwAGKAEwQ1MAIuIW28l4DCcAGgEwQAmAGX67Db3ulQGgLeDo5HdnFxER+Sn7CYCLiwAdjn5qBMAAJQBm2P8kuzcA4GQrYOetRcQU++eim2exs2ufm1fODkMJgIiISBxSAiAiIhKHlACIiIjEISUAIiIicUgJgIiISBxSAiAiIhKHlACIiIjEISUAIiIicUgJgIiISBxSAiAiIhKHlACIiIjEISUAIiIicUgJgIiISBxSAiAiIhKHlACIiIjEISUAIiIicUgJgIiISBxSAiAiIhKHlACIiIjEISUAIiIicUgJgIiISBxSAiAiIhKHlACIiIjEISUAIiIicUgJgIiISBxSAiAiIhKHlACIiIjEISUAIiIicUgJgIiISBxSAiAiIhKHlACIiIjEISUAIiIicUgJgIiISBxSAiAiIhKHlACIiIjEISUAIiIicUgJgIiISBxSAiAiIhKHlACIiIjEISUAIiIicUgJgIiISBxSAiAiIhKHlACIiIjEISUAIiIicUgJgIiISBxSAiAiIhKHlACIiIjEISUAIiIicUgJgIiISBxSAiAiIhKHlACIiIjEISUAIiIicUgJgIiISBxSAiAiIhKHlACIiIjEISUAIiIicUgJgIiISBxSAiAiIhKHlACIiIjEISUAIiIicUgJgIiISBxSAiAiIhKHlACIiIjEISUAIiIicUgJgIiISBxSAiAiIhKHlACIiIjEISUAIiIicUgJgIiISBxSAiAiIhKHlACIiIjEISUAIiIicUgJgIiISBxSAiAiIhKHlACIiIjEISUAIiIicUgJgIiISBxSAiAiIhKHlACIiIjEISUAIiIicUgJgIiISBzyuB1AlMoBBgMDtn11B9K2fWXu4Oc7A93sHCgpx0dKgd9mmM5UrWwiGAjabT4PaDUYjojYkwAMs9PQ4/OQ1SfJcDjt07C5haaKgN3mG4BNO/j7aqAOqAXWA8uAJcBCoMLuwToqJQAWP7A/cACwLzAUjY6IiHQUbVgPLZ8CHwOfAC2uRhQF4j0BGAWcBpwI5Lsci4iIRMZm4AXgKWCOy7G4Jl4TgEnA1cDhbgciIiKu+hr4G/AftwOJtHhLAMYA9wLj3A5ERESiyjTgYmCW24FESrzMc2dj3finoZu/iIj83ARgBvA0cTIlHA8jAPsAzwNd3A5ERERiwibgFKwFgx2Wz+0AwsiDNc//FJDlciwiIhI70oGTsUbJvwRsvy8dzTrqCEAi8AxwvNuBiIhITHsdOAlodDsQ0zpiApAOvAoc6HYgIiLSIXwGHIVVaKjD6GgJQDrWnM1YtwMREZEOZTpWwbg6twMxpSO9BeAHXkY3fxERMW8c8CbWFHOH0JEWAT4DHO12ECIi0mH1BnYD3nA7EBM6SgJwAdaKfxERkXAaDpQCs90OxKmOsAZgKNbcTIrbgYiISFxoxCocNNftQJyI9QQgCWuHpwHh6DyzMI2eexbSuV8OeT2ySErzk5TWYaZ/RERcEwi2sqFuFc1t9cb6bKlvo7WujdoNLVSvamLzd/U0bA7bruWLgBFAc7gOEG4Jbgfg0JUYvvknZyYy4sh+DDuiL53755rsWkREtlMUzGVF9XyaAuF7xb5yeRPrP6pm7ftVtNS2mex6EHAZcJvJTiMplkcAegELMTT0709JYK8zhjHmxN1JSvOb6FJERH5BU1sDK6rmEwiG7UkdgNb6Nla8WsGy57cSaDJW2K8O2ANYa6rDSIrlRYD3AyNNdNRnfFdOfegg+u/dnYTEWP4nERGJLQkeP8m+VCqbt4T1OF6/h/xhqXQ/IJPq1c3Ul7SY6DYRyCFG3wqI1RGAPsASnE5heGDyuSPY+6xheLyx+k8hIhL7NtStZGtTaUSOFQzCkifLWfJsuYkq/y1YU9GrHfcUYbH6uPs3YLSTDjxeD7++YRLjTtkDj0c3fxERN6X7M9natJk2AmE/lscDBSNSSclPYNN0x4X9fEAy8LbzyCIrFhOALKz9mh1N1B985Vj2nDLQTEQiIuKIx+MlwZtAdcvWiB0zu38ySbk+Sp0nAYOBB4ixDYNisRTw8Thc+Df+1D0Ye9IgQ+GIiIgJOUmdSPQmR/SYvY7Ips8x2U67SQaONRBORMViAvBbJ4277JHP/hfvaSoWERExxkOnlG4RP+rgcwvI7pfktJtTTcQSSbGWABQCE+029ng9HHH9RLwJsfa/LSISH3ISC/B6IluixpvgYfhlnXG4HGxvoJOZiCIj1u6Ek3Hw5sLwI/tROEDFfUREopXH4yU7MfLX6ZwByXQ/INNJFx6se1TMiLUEYD+7DT1eD5N+N8RkLCIiEgZZifmuHLf/SblORwH2NRRKRMRaAjDJbsPeY7uQ291RdiciIhGQlpCJxxP521PGbonkj0h10sVepmKJhFhKAPxAX7uNhx7Wx2AoIiISLl6Pj1RfhivH7r6/owfFfsTQHjuxlAD0we67/x7oPa6L2WhERCRsUhLSXDlu59GORgASsfapiQmxlAD0t9swb7dM0vON7BkkIiIRkOxz55qdnJdAWhdHdebCsj19OMRSAlBgu2Fvx0UeREQkghK97j20ZfRIdNLc9r0q0mIpAUi32zC7iztzSSIiYo/P416l+rRCRyMAMbPaPJYSANv/qEnpjn6ZIiISYT6ve2vpEtIc3Rpj5okzlhIA2wWiExJjcc8jEZH45XXx9uRLcnRsR6sIIymWEgARERExRAmAiIhIHFICICIiEoeUAIiIiMQhJQAiIiJxSAmAiIhIHFICICIiEoeUAIiIiMQhJQAiIiJxSAmAiIhIHFICICIiEoeUAIiIiMQhJQAiIiJxSAmAiIhIHFICICIiEoeUAIiIiMQhJQAiIiJxSAmAiIhIHFICICIiEoeUAIiIiMQhJQAiIiJxSAmAiIhIHFICICIiEoeUAIiIiMShBLcDkNAFWtrY+P1mShaXU76miuqyeloaWmmsaSZI0O3wRKSD8uAhOSMRf0oCmZ1Sye+VTeHAXLoNKcCboOfJWKMEIEYEmgMs+3I9895eyaoZxbQ0tLodkogIAP6UBPqM68KwI/rSb6/u+PxKBmKBEoAo19LQyqyXlzDt6YXUbql3OxwRkZ9paWhlyWfrWPLZOjIKUplw2mBGHTcAf7JuMdFMv50otuyL9bx723SqSmrdDkVEpF1qNtfzwZ0zmfb09/zqwlEMO6Kv2yHJTigBiELNdS28ffM0Fry3yu1QRERsqSmr540/TWXV9GIO++N4ElP9bockP6EEIMpUbqzh2fM/onxNlduhiIg4Nv+dlRQvKufkBw4gu0u62+HIdrRSI4qUrajgsdPe1c1fRDqULasrefy0d9i8stLtUGQ7SgCiRMWGGp4590Mt9BORDqlmcz3PnPsBlcVa0xQtlABEgaa6Fp47Xzd/EenYajbX89z5H9Jc3+J2KIISgKjwzi3fUL622u0wRETCbsvqKt668Wu3wxCUALhu4YerWfDuSrfDEBGJmIUfrGbxJ2vdDiPuKQFwUXN9Cx/cOdPtMEREIu79O2aooqnLlAC46Nt/L6GmTPP+IhJ/qkvrmPXyErfDiGtKAFzS2hTgm2cXuh2GiIhrpj29kEBzwO0w4pYSAJcs/XwddeUNbochIuKa2i31LPtyvdthxC1VAnTJvLfNLPwbOGgwRx13AoMGD6WgU2d8Xp+RfkUktjS0ttEaCO924IFAgPLNm1iycD7vvP5vVixd5LjPeW+vZPf9ezoPTkKmBMAFrU0BVs8sdtRHWlo6t979AFNOPBWPx2MoMhGJVYFgkJrGyAyn73vQ4ZxzyTW88e9nuOnai2mor7Pd16rpxQRa2rSFsAv0L+6CDfPLaG2yf6KmpaXz+nufc/xJv9XNX0QA8Hk8JHgjdz3wer0cc+JpPPPGJ6Skptnup6WxlQ3zywxGJu2lBMAFJYvLHbX/2z0PMXTEKEPRiEhH4fdF/oFg8PBR3PC3+xz1UbLE2TVR7FEC4IItDjb72WPIMI79zckGoxGRjiKSIwDb+/WUU+i/+2Db7cvXqBKqG5QAuKDawbv/R085UcP+IrJDPpeuDV6vl8OO/o3t9tWb7K8hEPuUALiguc7+RhiDh44wGImIdCgecOvxYODgYbbbNjm4Jop9SgBc0NJkv/xlbm6ewUhEpMNxKQPIzSuw3VYlgd2hBMANDl7V1fC/iOyKW1cIr9f+7STo5KIotikBEBERiUNKAEREROKQEgAREZE4pARAREQkDikBEBERiUNKAEREROKQEgAREZE4pARAREQkDikBEBERiUNKAEREROKQEgAREZE4pARAREQkDikBEBERiUNKAEREROKQEgAREZE4pARAREQkDikBEBERiUMJbgcg0WXN6pU8/I+7+fTD9ygp3kBKSipDho/k+JN+y3EnnIrP5wvbsauqKvnXQ/fx7luvsXLFMgD69R/IYUcey5nnXUR6ekbYjg1QVVnBow/eyztvvcbqVStobGgI6/EAUlPTGDhoMEce+xtOO+NcklNSHPXXUF/Pk/96iDdf+zfLFi+ivr7OUKQ7l5ySQp++/X/8PWVmZhnr+4tPP+Lpxx5m5vSv2Vy2yVYfWdk55Bd0ol//gQwfNZqJe+/LqNHj8Hqj6/mnbFMp33z1BdOnTWXl8qWsWbWSqsoKqqoq8Xg8ZGZlk5eXT49evek/cBAj9xzLhL0mU9Cps9uhS4zyuB1ACG4B/mCn4a8uHMWkM4YaDse+R058i5LF5bbafjR1NkOGjzQckeX5px/j6kt/T0tz8w7/+55jxvP486/RqXOh8WN/O2MavzvpmJ1e5Iu6dOWJ519n+KjRxo8NMOObrzjj5GPZsrksLP23R+8+/Xj6pbfo23+grfZLFy/kt8f/mrVrVhmOrP06Fxbx2HOvsueY8Y76aW5q4vILz+LlF54xFNn/KurajSknnMrvzrmAwqIuYTlGezQ1NvLhe//hmSceYernnxAMBkNq7/V62XPMeI44egpHHD2FwqIuVDe20hZaN0YsnDeHYw8Ya6tt0aA8zn7+1//zd61tzSyq/NZEaCFb+txWFj22xW7zW7F5r4q06EqBxTVvvPIil19w1k5v/gCzZn7DScccQkN9vdFjL128kJOOPmSXT3glxRv5zVEHsWrlcqPHBli8cAEnHX2Iqzd/gFUrlzPliP3ZVFoSctuSjRs4/tcHuHrzB9hUWsKJRx3M8qWLHfVz2QVnhu3mD9a/13133cqYIb257qqLqaqqDNuxdqS1tZVnnniEUYN6cNZvj+fLzz4O+eYP0NbWxszpX/Onqy9h5MDunDrlCBbMnRWGiKUjUgIgVFVVcu3lF7TrAvT9/O948L47jR7/6kt/T01N9S/+XFVlBX+4/AKjxwa46uJzqaurNd6vHSXFG7n5+qtDbvfnP15hK3EIh5qaaq6+9Pe223/64Xu88uKzBiPaueamJv710H1MGjmQjz94JyLHXLhgHvuNH8aVF51jNOlsa2vjo/ff5riDJnDuyUeyavlSY31Lx6QEQHjjlRep2Nr+KYknH32QtrY2I8devHAB07/+st0///knH/64PsCEBfPm8u2Macb6M+G1l54P6fexZXMZb7/xShgjCt20qZ+zbMkiW22fePRBw9H8ss1lmzh1yhH89c9/sPUk3l6vv/wCh+8/wfa/TXsEg0E+/+hdfj15BH+74UoaG8yO2EnHoQRAmPnNVyH9/OayTaw2NBQ/I8RjQ+jxRqovUwKBALO/nd7un5818xsCgUAYI7LnmxASu+3NmDbVcCTtEwwGue+uW7n43P8Ly7/nyy88w+/PONn4FNrOtLa08MRD93DM/mNYtOC7iBxTYosSALE1DFm2qdTMsW2s7La7GnxHQnnSjqStW9q/AClq/x/KQ19E1dzURHV1VRiiab+Xnn+aay79vdGRgA/f+w+X/v53YR1d2JlVy5dywiGT+PyjdyN+bIluSgDE1tOOqSckO1MJra2tRo4NkJuXb6wvk/ILOrX7ZzvC/8MPomUk45knHuHRB+810ldJ8UYuPPs0o5/bUDU3N3HJGSewdtUK12KQ6KMEQOLauIl7ux3Cz/j9fkaNGdfunx8zbiIJCdFX0mPCpH3cDsGRm/50FfPnznbcz5UXnUNVZYWBiJxpbGzg73/9k9thSBRRAuCCxFS/7bbpmZkGI5FBg4cyaZ/93A7jf0w58bdkZee0++dzcvM46rgTwhhR6CbuvS99+g1wOwxHWlpauOLicxyNSkyfNjVibxe0xyfvv6VFgfIjJQAuyCpKs9XO7/dTVNTVcDRy6133G61e50TX7rvxxxtvDbnd9TffQVHXbmGIKHRZ2Tnccd8/3Q7DiPlzZ/Oqg1cS77/7bwajca6luTlsrwempNq7rgEkpth/KBL7lAC4oN9Eexfq8ZP2cVwqVn6u34DdefHND1ytCAcwYPc9eOXtT8jLLwi5bafOhbzy9ie2qwia0qVbd15+6yN69+nnahwm3XvnX22tVdlctolPP3ovDBE5E661CIVdutouFZ7dJd1wNNIeSgBcsPv+PcnpFnpd+3MvuCwM0QjAyD3H8tWcJfzxxlsZMWpMxEYEcvPyGTdxb277+4N8/NUcevXua7uvPn378+m077j1rvsZO2EvcnLzDEa6c1lZ2YzccyzX33w7X81ezNARoyJy3EhZuWIZ06Z+HnK7D959y1i9DFM8Hg+79eodlr5T09IZMdpeCei+EzSy6YboWzkUB3x+L4deM47nL/qYYDuLdh957G/Y78BDwhxZfEtPz+DCy67hwsuu2enPFG9Yz8jddwup3y7dujNn8Tqn4bVLYlISp599Pqefff4uf64wI/RtQEprXCgw3w5+v5/1W3dcwrqxoYFVK5fz7luv8ehD99lejPfKi8+GvFbkm6++sHWspORkjplyEr866FAGDx1O167dqa+vo7q6igXz5jL96y9567WXKC0pDrnvEaPHk50TvsTw1LMuYNb00GprZBamMXC/HmGKSHZFIwAu6TupG0dcPxFvwi//Cn510KHc8+DjEYhKJPbs6t365JQUBg0eyhV/+DNfz1nCeJtvJnzx6Ycht1m+bEnIbYq6dOWjqbP5+4OPcfiRx9KzVx/8iYlkZefQfbeeHHrE0fzltr8zZ8l6Hnr8efr07d/uvj0eDxdcGd63AA48/BgmH3hYu3/e4/Vw6DXjSEgK3y6jsnNKAFw04qh+/O7JQ9ltxI6388zLL+Dm2+/l6X+/RUpqaoSjE4kN7S2uk1/QiedefcfWbpolxRtD3mhp7aqVIR/n7gceo//AQb/4c16vl6OnnMgX3y7kzn880q4pq3MvvZYJ++wfckyh8Hg83PnQ04ye8Muv13q8Hg65eiwDJoc2oibmaArAZV0HF3D6E4eydX01a2dvIqEqi5FFBzJw0GDGTdw7Kt/vFokmoVTXS01N4677HuGgfUaHXJVv+dLF9OjZ/vnzhsaGkPr3+XzsvW9oN+iEhARO+b+z2PdXB3HFRWfz2ccf/OxnMjKzuPL62zj+t2eG1Ldd6RmZPPHy+zz6jzt47IG7qN3BRl9Fu+dx0BVj6DHK/Nbi0n66u0SJ3O6Z5HbPpGfqcA4pusjtcEQ6rKEjRjFi1BjmzJoRUrv1a9eE9POBEFfbBwIBNqxfG1KS8YOu3XfjhdffZ8G8ubz/3rusX7+GlJRU9hg2kv0POZLUtMiusk/w+znvsj9w+nmXMO2LT1iQZyX9AAAW50lEQVS+ZCHrK+dRl7GB3UZ2pnBAbkTjkR1TAiAiMc1Off1RY8aFnAC0Z8vq7eXlF4S8Z8a5/3ci1998u+21CkOGjaDHgCG0c21x2CWnpLLfwUew38FHsKTuPeZWve52SLIdrQEQkZhmJwFItVG0prl5x28a7EyXbt1DPsbc2TM5+pDJ7DtuKM888Qj19XUh9yHSXkoARCTurFkd+gK99PTQancMG26/HsLihQu48qJzGNG/GzdcexnLliyy3ZfIzmgKQGxZuWKZkWI5m0pLDEQj8S4YDOLxtK+2QX19HZ999H7Ixwh1d8MJe03mqcceDvk426uqquSf9/+df97/d4aOGMWpp5/NMcefRFqE5/SlY1ICILZcfcl5bocg8qNQEoC7b7uJ6uqqkI/RN8TNjfY78BDS0tKpq6sN+Vg7Mn/ubK6cew5/+eOVHHXcCZx82pkMHzXaSN8SnzQFICIxr73rAF558VkevPeOkPtPTEpiwO57hNQmIyOTKSeeGvKxfklNTTXPPPEIB08ew68mDOfJRx8MeYGiCCgBEJE4UL5lM9dcdj4Xnv1bW/X5R4+dYKsY1/mXXhXWIl4LF8zjmsvOZ3i/rtz4xyvYsrksbMeSjkdTACIS82654Vq83p8/z9TW1rBi2RJmfPMVLSGu4t/eYb8+xla77rv15NKrruOvf/6D7WO3R11dLQ/ddxdP/ethzrv0Wv7vvEvxJyaG9ZgS+5QAiEjMszOs316JSUkcddwJttuff8lVzPzmaz7+4B2DUe1YfX0dd91yHW++8hx3PvwsA/cYGvZjSuzSFICIyC6cfNqZ5Obl227v8/l4+MkXGDV6nMGodm3F0sUcf9AEXn/x6YgdU2KPEgARkZ1ITU3jol1sD91e6ekZvPbuZxx3wikGomqf5uYmrr3oDB66+68RO6bEFiUAIiI7cfm111PUtZuRvpKSk7n/0Wd49pW36TdgdyN9tse9t93Av+6/M2LHk9ihBEBEZAfGT9qHcy64zHi/+x90GF/M/J6nX3qLvffdv931C5y466Y/8MF/Xg37cSS2KAEQEfmJLt268/ATL4RtO26v18uBhxzBS299xCfTvuPk084M6+uCwWCQP11+Hps3qfKm/JcSABGR7eTm5fPvNz6gc2FRRI43aPBQ7rr/Ub5btpFb77qfwUOHh+U41ZUV3Hb9lWHpW2KTEgARkW2679aTtz6cGtE5+h9kZWVz+tnn8/HXc3n/85mc8n9nhbwB0S95782XWbJwvtE+JXapDoDY0qdvf9IynF+cNpUUa0MgiQr7HXAw9/3zqZA3/QmH4aNGM3zUaG654z4+fO8/PPPEI3z52ceO+21ra+PZf93PzX9/xECUEuuUAIgtf7vnISbts5/jfm6/+Xru/ttNBiISsSc7J5drb7iF3/7unIgsyAtFUnIyRxw9hSOOnsLCBfN45olHeOWFZ6itrbHd53tvvsKNdzyIL0zrGyR2aApAROJSVnYOl19zPdPnLee0M86Nupv/T+0xZBi33f0Ac5dt4Mo/3khqapqtfupqa1i04DvD0UksUgoYJVoaWylZXM6W2nkkdXmP3fcYYuz9YxGx5OUXMHHvfTn8yGM58JAjSE5JcTukkGVkZHL5Nddz1HEncPqJR7NsyaKQ+5g1/SuGjNgzDNH9XMnG9SxfspCVFdMoS9lEl0H5JCT5InJs2TUlAC6rLq3js4fmsvCD1bQ0tgLwAI8DMGLUGK649gZ+ddChboYoEtX8fj9X/2nH00iJiUmkpadT1KUbffr1Z7cevSL6pL+ptIRPP3qPlcuX4ff76dt/IAcccjiZmVmO++7Ttz8vvfURB0wayeayTSG1Xb1iiePj/5LPP3yH+++8ie+/m/0/f+9PTmDwwb2YfN4IMjvbG8UQM5QAuGjVjGJevvIzGqt3vEvZ3NkzOfm4w/jdORdw09/uwedT1izyUwl+PxdcerXbYfyP5qYmbr7hGp549MGf7UKYmprGJVf9kQsuvXqHOxiGorCoC2eedxG33vjHkNrV19c7Ou6uBAIBbvnDJTz/xMM7/O8tja3MfWM5iz9dy/F37EevsZF53VJ+TmsAXFKyqJwXL/5kpzf/7T3+z/u55Qbn9chFJPyaGhs54eiDeeSBe3a4BXF9fR1//fMf+P0ZJ9PS0uL4eL169w25TUNdnePj7swdN16905v/9hqrm3nh4o8pXVIetlhk15QAuCDYFuStG7/6cci/PR68906+nTEtjFGJiAm3/Plapk39/Bd/7o1XXuSsU6dQX+/sZjxr5jcht0lNT3d0zJ2ZN2cmT/3zvnb/fEtjK29cP5VgWzAs8ciuKQFwwfKpGyhdujXkdg/eE749z0XEuc1lm3jikQfa/fPvv/Mmh+47jgXfzbF1vPlzZ/PUY7/8tP1TPXr1sXW8X/LPe24jGAztZr5pWQUrpm0MSzyya0oAXLD0i3W22n3+6Yc7HFIUkejw0ftvhzysv2TR9xw8eQyXnX8mq1Yub3e7l557iuMO/xVNjY2hhkmPXqFPG/yS5uYmpn1ur1jRsi/WG45G2kMJgAu2rrdXxKOhvp6SEmXKItFq9coVttoFAgGef/oxJo4YwJEH7c1D993F3Nkz/6fgTzAYpGTjBp554hEO/9UELjr3/6iurgr5WF6vl9ET9rYV565sKimmsbHBVtut66oNRyPtobcAXNBUa/8pvqqiAnr0MhiNiJji9E2dYDDIjGlTmTFt6o9/l5WVTWpaGlu2bDYyAjh8z3EUdjFfY6SmqtJ224aaJoORSHspARARMWTgoMHG+6yqqqTKwc31pw496nhjfUls0xSAiIgh+x5wsPEd/EzqVNiF404+3e0wJEooARARMSQrK5tL/r+9O4+Osjz0OP6bSSYzSYDsLC17WEQh7KtllUUUtAVUlE0o4L1gT733aO9y7PEez6lV61atgHUBvGx6BZdqhdqKCi24lR1RhBRZAglCAiFkmeX+MZUDtcTknXfmmZn3+zkn/+TM8z6/mcC8v3nfd573Z41blCeW7rz75/KlZ5iOgThBAQAAGy346T26cfItpmN8S4/e/TT5tttNx0AcoQAAgI3cbrcWPb9SN906w3SUC7JycvX4s6u5BTAuQQGApfXII13D/BtWbsxi19xWuAy+VnZqbKZYPQdL/xZd8ff6pqSk6InFSzXnjjtNR1Gqx6PHn12l1m3bm46COBN//3MQc7l5+Y0ek1/Q3Ja58/ILjM1tRV5efqNLi8m8l9PYv3msnoPX51NmZuOWqY3H11cKl4AHHnlKTz+3QukZZs67+9Iz9PTytRoy7Boj8yO+UQCgvv0HNerx2Tm56tipi5G5Jan/wCG2zG1Fmter7kW9GjWm34DBUUpjXWNf91g+h74DGpltYPy9vhebfMs0/eGDTzRwyNCYzpudk6dlazdo+OjxMZ0XiYMCAP1wytRGfeq6beYcpdp0LrGod1/16Nm7wY/vN2Cwuna7ypa5rZp2+7wGP9btduvWGXOimMaa6bMb/hwkadqsuVFK8m3TG/H6SrHNZlXnrt302vr39ehvnlWr730/6vONnTBJv/tgm3r1a3zBhnNQAKCC5i107/0PNuix7TsU6qf32Pc1J5fLpYeeWKw0r/c7H+tLT9cvH2v4jVaiZdqsuQ0+CjF/4V26qkfPKCdqvDHXTtCEGyc36LETf3STrhl3XZQTXTrfqLEN+9R687RZGjJ0RHQD2cTlcmnarLn6cOcBPfjY02obhRU9Czt31aLlr+jJF15SQYtWtm8fyYUCAEnS7PkL9bN776/3/HZh565a9erbysrKtnXuPv0G6rn//b96j0I0a5alF1aua9TRgmjxeDxatua17ywB02bN1b33PxSjVI335G+Xa+z4ifU+5trrb9SvlyyNUaIwl8ulZ5at0Yhrxtb7uBsm3axfPdH4O+GZlub16vZ5C7R155da9/uNmjp9tnJy8yxvz+12a9TY8Vr96npt/vQzjb7uRhvTIplRAHDBv//Hz/XWu1s0fsIP5UtPv/D7wk5d9F/3/ULvbP5UHQs7R2XuseMn6oOP92jmnDsuuUAtv6C5Zs9fqPc/3qNRY66NytxW5OUXaN3b7+nBxxepR68+F37v8Xg0bORorVr3th79zbO2nSqJhoyMTC1/6XUten6l+g8ccuEKfLfbrQGDrtaSpau1dPWrysjIjHm2pk2badW6t/XkkmXq02/ghWKakpKiQVcP03MrXtEzy9bI6/PFPJtd3G63hgwdoScWv6A9xaV6Z/Nf9T8PPKqbbp2h3n0HXLZoZ2XnqGeffpq/8C4tXf2q9hSXatXa32vk6HGWvlUD50qkfy2/kPTfVgZe85O++sGPi2yOY91vb31DJZ99bWnsO5s+vWSHEy2hUEhlpSfUtGkzI1cwl58+JZfLpazsnJjPbUVNdbUqKsqVm5cf1zv9+tTV1ur06VPKycmVJy3NdJxL1NbUqLz8tHJy8+TxeEzHiZlQKKQzFeWqPHtW6RkZ8qWnf2chO1PtVzAUo4AX2btzmyaNHmBpbKsr8zR/1Q2X/M4frNXe8o/tiNZon688pb3Pn7Q6/JeyuK+KtcR8p0LUuVwuNW/R0tj82Tm5xua2wuvzqbnP3OtlB09amtG/eX3SvN64zRZN35TgRCnCSCycAgAAwIEoAAAAOBAFAAAAB6IAAADgQBQAAAAciAIAAIADUQAAAHAgCgAAAA5EAQAAwIEoAAAAOBAFAAAAB6IAAADgQBQAAAAciAIAAIADUQAMSE1LsTy2oqLcxiQAkk3I0Lzl5acsj/V4uTO9CRQAA9IyPZbHfvnFPhuTAEg6hhpA8f7PLY+N5D0R1lEADGiSl2557FtvrLMxCYBkEgiFjB0B2PCm9femSN4TYR0FwIC8dlmWx25670/asvl9G9MASBb+gJnd/9ZNG/XRn62/L+W3t/6eCOsoAAa06JIT0fiF82ao9MRxm9IASBb+YOwLQNmJEv3nT+ZEtI0WnSN7T4Q1FAAD2vVpIZfbZXn8sSOHNXH01dq9c7uNqQAkslBIqotxAdiz46+aet1QHT92xPI23Klute3dwsZUaCgKgAHeJmlqXVQQ0TYO/e2gxg3rpzvnzdAfN7yl4yXH5Pf7bUoIINFU+4NRvwAw4PfrRMlRvfeHt3T3v87UTeMG6+jhQxFts03P5lwEaAjfvTCk6LpCHd5eGtE2AoGAXlmzQq+sWWFTKgCIraLrC01HcCyOABjS/dqO8qTTvwA4V1qGR1eOaW86hmNRAAzxNUtTvyldTccAAGP633yFfE3TTMdwLAqAQUNmdefcFwBH8jZJ0+CZ3U3HcDQKgEFN8jM04l96m44BADE3ckFvZeb6TMdwNAqAYQNv66bWRc1NxwCAmGnbu4UGTO1mOobjUQAMc6e4NeXhEUrP8pqOAgBRl5Ht0+QHh0e0FgrsQQGIA1ktM3XbU2Pk8fGtAADJK9WbolseH6VmLTJNR4EoAHGjdVGBpjw0QikR3CoYAOJVqjdFNz8yklX/4ggFII50Gd5G058eI28TvhYDIHn4mqZp+qKx6jy0jekouAgFIM60799K81dNVMuuuaajAEDEWl6Rp3mrJqpd35amo+AfUADiUG7bZvrxixM0bF5PTgkASEip3hQNv6OX5r54vXLbNDMdB/8EV53FqVRvikYu7KOiCZ30/jPbtWdDsYKBoOlYAFAvd4pb3cd30PA7erHjj3MUgDiX166ZJj0wTCMX9Nb21/drx5sHVFFSaToWAFwi+3tNVDShk3rd0Ek5rZuajoMGoAAkiJzWTTVyYR+NXNhHZQfKVfxRiUr2fa2TxRU6W3pONVV1qj5bG/XbgQJwMFf4gj5vZpqaFmQov0OWWl2Rpw4DW6mgY7bpdGgkCkACKijMVkEh/9kAANZxESAAAA5EAQAAwIEoAAAAOBAFAAAAB6IAAADgQBQAAAAciAIAAIADUQAAAHAgCgAAAA5EAQAAwIEoAAAAOBAFAAAAB6IAAADgQBQAAAAciAIAAIADUQAAAHAgCgAAAA5EAQAAwIEoAAAAOBAFAAAAB6IAAADgQBQAAAAciAIAAIADUQAAAHCgRCoAtVYHBuqCduYAAERZMGTufTtYF4pkeI1dOaItkQrAWasDa6rq7MwBAIiygALG5vZXRVQ+LO+rYi2RCkCl1YFnTpyzMwcAIMqCQb+xuatKI/rQeMauHNGWSAXglNWBJ4sr7MwBAIiymlC1sbkrD0dUAE7blSPaEqkAfGl1YNmBctWc4zQAACSK2oCZAlBXGdTZQxGdxt9vV5ZoS6QC8IUkSydmgoGg/vZxic1xAADRct5fZWTesm1ViuD6w6AoAFFRJekrq4N3rz9oYxQAQLSEFFKV38yp2yPvRnQN3yFJ522KEnWJVAAkaYvVgfs2fqWq0+bOKQEAGua8v1KBUOy/BVBzOqDjWyxfby5FsI8yIdEKwEarA/01AW1dudfOLACAKCiv/drIvPtfPqVAbURrALxrV5ZYcEwBkKStK/aooiSidgcAiKZQSOW1ZTGftqrUr4OvR3zagQIQRV9K2mN1cF21X+sf/tDGOAAAO52pOy1/0PLCr5bt+PUJBaojWgBot6Rim+LERKIVAElaEcngfRu/0icv77MrCwDARmXVR2I+54F15Tq+JeIF4160I0ssJWoBiKimrX/kIxV/xNcCASCeVNaV65w/tivpln5apd1LIj7lEJC0yoY4MZWIBeCIpDcj2UCgNqCX/u1POryj1KZIAIBIhEIhHT0X2yPoX+86rw/vO6agP6IL/6TwPumoDZFiKsV0AIsOSpoXyQYCdUHtXl+s5p1ylN8+y6ZYAAAryqqPqqLuZMzmO/ZBpT6875gC1RHv/CVppqRjdmwolhK1AByVdLWkwkg2EvQHtXtDsWqr/GrXp6XcqYl4QAQAEtv5QKUOn9svyZadcb0CtSHtWXJSu5aUKWTP/YY2SHrYli3FmMt0gAgMUHjRBVv22rltm2nc3QPUZVgbOzYHAGiAQMiv/Wd2RH/t/5BU8pdK7VpcpnPHbLs3TEDSIEmf2LXBWErkAiBJz0iab+cGW12Zp0HTrlK3Ue3kSU+1c9MAgIuEQiEVn92rSn951Obwnw/q2KZKHVh7WuX7I7rJzz+zWNICuzcaK4leAHIlfS4p3+4Np2V41L5/S3Xo30rNO+cor12WfE088jZJs3sqAHCckEL6qvILVdTad96/7lxQdeeCqjxcqzMHa1S2vUpl285H+v3+yymVdIUS6Pa//yjRC4AkTZD0hpLjuQAA4l9I0iRJr5kOEolEvQjwYl9Iylb4PAwAANH2qKSnTIeIVLJ8ak6T9J6kwYZzAACS22ZJoyTZdiWhKclSACQpT9ImSd1MBwEAJKW9koZKOmU6iB2SqQBIUmtJf5bU1nQQAEBS+Wb9mUOmg9gl2Va+OSJphKT9hnMAAJJHsaSRSqKdv5R8BUAK/6GGStpmOggAIOHtkvQDJeEHy2QsAJJ0QuEjAWsN5wAAJK6XFT7sn3Dr/DdEshYASTojaYqkWZLOG84CAEgcNZLuknSLpNjenziGku0iwMspkrREfE0QAFC/zQov77vLdJBoS+YjABfbqfBhnLmSygxnAQDEn1JJsyUNkwN2/pJzjgBcLFPhInCPpO8bzgIAMKtU4Zv6PKbwqWPHcGIB+Ea6pGkKXyNwtZz9WgCAk4QUPtS/XNJKSVG+F3F8YqcX1lHSVEmjFb5OwGc2DgDAZucl/UXSHyW9pPBXxh2NAvBtPoVvLNRD4Vs9dlV4hcEmf//JMhcNAFCPCkmVf/85rPDN4j6TtFvSVjn0k/7l/D8R8hjf26HaZwAAAABJRU5ErkJggg==;" vertex="1" parent="1">
          <mxGeometry x="-450" y="460" width="80" height="80" as="geometry" />
        </mxCell>
        <mxCell id="dCbXYARRjmfmnTsoq2Sv-93" style="edgeStyle=orthogonalEdgeStyle;rounded=0;orthogonalLoop=1;jettySize=auto;html=1;exitX=0;exitY=0.5;exitDx=0;exitDy=0;startArrow=classic;startFill=0;strokeWidth=3;" edge="1" parent="1" source="dCbXYARRjmfmnTsoq2Sv-69" target="dCbXYARRjmfmnTsoq2Sv-82">
          <mxGeometry relative="1" as="geometry" />
        </mxCell>
        <mxCell id="dCbXYARRjmfmnTsoq2Sv-94" style="edgeStyle=orthogonalEdgeStyle;rounded=0;orthogonalLoop=1;jettySize=auto;html=1;exitX=0;exitY=0.5;exitDx=0;exitDy=0;startArrow=blockThin;startFill=1;strokeWidth=3;" edge="1" parent="1" source="dCbXYARRjmfmnTsoq2Sv-70" target="dCbXYARRjmfmnTsoq2Sv-82">
          <mxGeometry relative="1" as="geometry" />
        </mxCell>
        <mxCell id="dCbXYARRjmfmnTsoq2Sv-96" style="edgeStyle=orthogonalEdgeStyle;rounded=0;orthogonalLoop=1;jettySize=auto;html=1;exitX=1;exitY=0.5;exitDx=0;exitDy=0;strokeWidth=3;startArrow=block;startFill=1;" edge="1" parent="1" source="dCbXYARRjmfmnTsoq2Sv-70" target="dCbXYARRjmfmnTsoq2Sv-81">
          <mxGeometry relative="1" as="geometry">
            <Array as="points">
              <mxPoint x="150" y="716" />
            </Array>
          </mxGeometry>
        </mxCell>
        <mxCell id="dCbXYARRjmfmnTsoq2Sv-106" style="edgeStyle=orthogonalEdgeStyle;rounded=0;orthogonalLoop=1;jettySize=auto;html=1;exitX=1;exitY=0.5;exitDx=0;exitDy=0;strokeWidth=3;startArrow=block;startFill=1;" edge="1" parent="1" source="dCbXYARRjmfmnTsoq2Sv-39" target="dCbXYARRjmfmnTsoq2Sv-19">
          <mxGeometry relative="1" as="geometry">
            <Array as="points">
              <mxPoint x="510" y="390" />
              <mxPoint x="510" y="390" />
            </Array>
          </mxGeometry>
        </mxCell>
        <mxCell id="dCbXYARRjmfmnTsoq2Sv-108" style="edgeStyle=orthogonalEdgeStyle;rounded=0;orthogonalLoop=1;jettySize=auto;html=1;dashed=1;strokeWidth=3;" edge="1" parent="1" source="dCbXYARRjmfmnTsoq2Sv-19" target="dCbXYARRjmfmnTsoq2Sv-27">
          <mxGeometry relative="1" as="geometry">
            <Array as="points">
              <mxPoint x="750" y="366" />
              <mxPoint x="750" y="727" />
            </Array>
          </mxGeometry>
        </mxCell>
        <mxCell id="dCbXYARRjmfmnTsoq2Sv-110" style="edgeStyle=orthogonalEdgeStyle;rounded=0;orthogonalLoop=1;jettySize=auto;html=1;strokeWidth=3;dashed=1;startArrow=block;startFill=1;" edge="1" parent="1" target="dCbXYARRjmfmnTsoq2Sv-63">
          <mxGeometry relative="1" as="geometry">
            <mxPoint x="-60" y="330" as="sourcePoint" />
            <Array as="points">
              <mxPoint x="-60" y="330" />
              <mxPoint x="-150" y="330" />
              <mxPoint x="-150" y="250" />
              <mxPoint x="175" y="250" />
              <mxPoint x="175" y="340" />
            </Array>
          </mxGeometry>
        </mxCell>
        <mxCell id="dCbXYARRjmfmnTsoq2Sv-122" value="" style="edgeStyle=orthogonalEdgeStyle;rounded=0;orthogonalLoop=1;jettySize=auto;html=1;exitX=0.5;exitY=1;exitDx=0;exitDy=0;strokeWidth=3;dashed=1;" edge="1" parent="1" source="dCbXYARRjmfmnTsoq2Sv-63" target="dCbXYARRjmfmnTsoq2Sv-118">
          <mxGeometry relative="1" as="geometry">
            <mxPoint x="305" y="820" as="sourcePoint" />
            <mxPoint x="-262" y="880" as="targetPoint" />
            <Array as="points">
              <mxPoint x="305" y="890" />
            </Array>
          </mxGeometry>
        </mxCell>
        <mxCell id="dCbXYARRjmfmnTsoq2Sv-125" style="edgeStyle=orthogonalEdgeStyle;rounded=0;orthogonalLoop=1;jettySize=auto;html=1;exitX=1;exitY=0.5;exitDx=0;exitDy=0;strokeWidth=4;startArrow=block;startFill=1;" edge="1" parent="1" source="dCbXYARRjmfmnTsoq2Sv-69" target="dCbXYARRjmfmnTsoq2Sv-81">
          <mxGeometry relative="1" as="geometry">
            <Array as="points">
              <mxPoint x="140" y="406" />
            </Array>
          </mxGeometry>
        </mxCell>
      </root>
    </mxGraphModel>
  </diagram>
</mxfile>
